<svg xmlns="http://www.w3.org/2000/svg" width="180.782" height="180.76" viewBox="0 0 180.782 180.76"><defs><style>.a{fill:#f2635f;}.b{fill:#211715;}</style></defs><path class="a" d="M113.245,93.93q-1.77-1.769-3.539-3.539l24.369-24.369C143.22,56.877,165.3,34.8,174.441,25.656c5.059-5.059,5.435-14.325,0-19.315-5.452-5-13.917-5.4-19.315,0l-61.2,61.2-3.539,3.54L65.47,46.155,25.656,6.341C20.6,1.282,11.331.905,6.341,6.341c-5,5.452-5.4,13.916,0,19.315L66.774,86.089l4.3,4.3L46.155,115.312,6.341,155.126c-5.059,5.059-5.436,14.325,0,19.315,5.452,5,13.916,5.4,19.315,0,15.833-15.834,44.6-44.6,60.433-60.433l4.3-4.3,24.369,24.369c9.145,9.145,31.222,31.221,40.366,40.366,5.058,5.059,14.325,5.435,19.315,0,5-5.452,5.4-13.917,0-19.315Z"/><path class="b" d="M114.942,92.233,111.4,88.694v3.394l35.883-35.883q14.277-14.278,28.555-28.556c5.221-5.239,6.7-14.019,2.508-20.361a16.664,16.664,0,0,0-21.095-5.462C154.2,3.4,151.893,6.18,149.5,8.574l-7.461,7.461L125.158,32.914,93.226,64.847l-4.532,4.532h3.394L56.146,33.437q-14.25-14.25-28.5-28.5c-5.238-5.219-14.018-6.7-20.358-2.5A16.663,16.663,0,0,0,1.826,23.527c1.564,3.043,4.336,5.344,6.723,7.731l7.431,7.431L32.813,55.522,64.49,87.2l4.889,4.889V88.694L33.437,124.636q-14.25,14.249-28.5,28.5c-5.219,5.238-6.7,14.019-2.5,20.359a16.663,16.663,0,0,0,21.094,5.462c3.043-1.564,5.344-4.336,7.731-6.723l7.431-7.431,16.833-16.834L87.2,116.292q2.445-2.445,4.889-4.889H88.694q17.707,17.707,35.416,35.416l28.325,28.325a17.751,17.751,0,0,0,8.627,5.172,16.755,16.755,0,0,0,10.855-1.088c7.045-3.275,10.483-12.415,8.027-19.644-1.207-3.553-3.654-6-6.24-8.589l-7.128-7.128-16.251-16.251L118.117,95.408l-3.175-3.175c-2.187-2.187-5.582,1.206-3.394,3.394q14.887,14.889,29.776,29.776l30.225,30.225c2.307,2.307,4.164,4.717,4.369,8.112a12.24,12.24,0,0,1-3.053,8.868c-4.209,4.686-11.864,4.276-16.189-.011-8.975-8.9-17.871-17.871-26.8-26.805L97.386,113.306l-5.3-5.3a2.436,2.436,0,0,0-3.394,0L57.585,139.117l-31.1,31.106c-2.266,2.265-4.323,4.563-7.547,5.387a11.943,11.943,0,0,1-9.394-1.7c-5.4-3.5-6.211-11.285-2.276-16.232a69.136,69.136,0,0,1,5.416-5.494l6.613-6.613,15.052-15.052q16.583-16.581,33.164-33.164l5.265-5.265a2.436,2.436,0,0,0,0-3.394Q57.218,73.141,41.664,57.585T10.559,26.48C8.294,24.214,6,22.157,5.172,18.933a11.943,11.943,0,0,1,1.7-9.394c3.5-5.4,11.285-6.211,16.232-2.276A69.124,69.124,0,0,1,28.6,12.679l6.614,6.613L50.264,34.344,83.429,67.508l5.265,5.265a2.438,2.438,0,0,0,3.394,0q15.5-15.493,30.99-30.99l31.206-31.206c2.271-2.271,4.333-4.579,7.564-5.4a11.945,11.945,0,0,1,9.395,1.7c5.4,3.5,6.211,11.285,2.276,16.232a69.366,69.366,0,0,1-5.439,5.516l-6.616,6.617-15.07,15.069Q129.851,66.853,113.306,83.4l-5.3,5.3a2.436,2.436,0,0,0,0,3.394q1.77,1.77,3.539,3.539C113.735,97.814,117.131,94.421,114.942,92.233Z"/></svg>