<?xml version="1.0" encoding="UTF-8"?><svg id="b" xmlns="http://www.w3.org/2000/svg" width="216.653" height="328.119" viewBox="0 0 216.653 328.119"><defs><style>.e{fill:#3d8dcc;}.f{fill:#fff;}.g{fill:#211715;}.h{fill:#b3b3b3;}.i{fill:#ececec;}.j{fill:#645d5c;}</style></defs><g id="c"><g id="d"><path class="f" d="M110.01,157.188c-1.457-1.033-20.672-16.184-21.615-16.947,0,0,0-1.251-.005-2.863-4.333-2.636-8.363-6.275-11.982-10.606-5.407-6.471-8.583-13.421-10.401-19.294-2.398.554-4.964-.346-6.678-1.749-3.957-3.237-5.598-7.752-6.6-10.703-1.415-4.167-1.504-10.903.604-14.558.706-1.225,2.347-3.31,6.203-3.446,1.772-.062,3.842.492,5.379,1.969,0,0-6.151-43.487,46.788-43.487s46.788,43.487,46.788,43.487c1.537-1.477,3.607-2.032,5.379-1.969,3.856.136,5.497,2.221,6.203,3.446,2.108,3.655,2.018,10.39.604,14.558-1.002,2.951-2.643,7.466-6.6,10.703-1.63,1.334-4.03,2.213-6.324,1.825,0,0-.155-.026-.436-.073-.749,2.185-1.686,4.128-2.002,5.087-1.533,4.162-9.752,18.374-20.301,24.697-.003,1.668-.003,2.976-.003,2.976-.943.763-20.158,15.914-21.615,16.947h-3.385Z"/><path class="h" d="M110.626,255.807c-6.675-16.473-8.393-21.911-13.611-37.935-7.043-21.628-13.587-45.414-18.597-67.658-2.634,1.687-6.067,4.125-9.42,6.871-13.4,4.114-23.908,8.206-35.976,15.863-4.703,2.984-8.696,7.091-11.75,11.806-3.7,5.711-6.512,13.421-8.083,20.083-1.817,7.7-2.662,11.985-4.369,22.246-2.931,17.782-4.76,31.642-6.271,56.239-.492,8.005.279,16.601,3.282,24.008,3.004,7.407,10.544,14.401,18.046,16.704,6.228,1.912,11.501,1.412,16.597-.567,1.444-.004,2.271-.004,2.271-.004h132.552c5.922,2.594,12.334,2.935,18.606,1.065,7.506-2.238,13.19-8.713,16.204-15.942s3.706-15.196,3.986-23.023c.863-24.125-1.76-45.689-7.166-72.424-1.28-7.87-3.384-15.605-6.266-23.04-1.375-3.546-2.937-7.045-5.069-10.194-4.304-6.357-10.762-11.015-17.696-14.311-6.933-3.297-14.384-5.335-21.79-7.358,0,0-.163-.044-.471-.129-3.727-3.161-7.69-6-10.646-7.893-5.009,22.244-11.554,46.03-18.597,67.658-5.218,16.024-6.936,21.462-13.611,37.935"/><path class="f" d="M95.306,212.549c-5.751-18.153-11.102-37.576-15.466-56.177l-.057-1.345c-.727-1.959.213-4.676,1.491-6.156,2.17-2.514,4.905-6.149,7.123-8.631.943.763,20.158,15.914,21.615,16.947h3.385c1.457-1.033,20.672-16.184,21.615-16.947,2.218,2.481,4.953,6.117,7.123,8.631,1.277,1.48,2.217,4.196,1.491,6.156l.123.576c-4.824,20.662-10.879,42.377-17.356,62.268-5.487,16.851-7.104,21.995-14.693,40.571-7.579-18.576-9.196-23.721-14.683-40.571-.573-1.76-1.143-3.535-1.709-5.322Z"/><path class="e" d="M102.101,195.576c1.173-8.328,1.989-14.291,1.979-14.853-.035-2.033-.643-4.03-1.252-5.972-.487-1.575-.723-3.359-1.585-5.154,0,0-.137-.305-.337-.745,3.095-4.171,6.827-9.104,9.104-11.665h3.385c2.284,2.57,6.033,7.526,9.134,11.705-.026.084-.04.131-.04.131-.646,2.656-.748,3.939-1.303,6.446-.103.504-.22,1.008-.349,1.512-.258,1.111-.517,2.235-.517,3.372,0,.641,2.861,22.686,4.975,40.883-4.647,14.269-6.538,19.927-13.598,37.206-6.926-16.976-8.874-22.735-13.345-36.46,1.309-9.233,2.677-18.805,3.747-26.406Z"/><path class="g" d="M119.582,174.948c-5.008,0-10.016-.052-15.024-.053-1.255,0-2.458,1.104-2.4,2.4s1.055,2.4,2.4,2.4c5.008,0,10.016.052,15.024.053,1.255,0,2.458-1.104,2.4-2.4s-1.055-2.4-2.4-2.4h0Z"/><path class="g" d="M120.175,168.386c-.459,1.925-.762,3.876-1.167,5.812-.421,2.012-1.167,4.124-1.086,6.199.054,1.375.319,2.769.488,4.132.867,7.024,1.753,14.046,2.613,21.072.61,4.985,1.212,9.971,1.794,14.96.15,1.287.996,2.4,2.4,2.4,1.181,0,2.551-1.104,2.4-2.4-.981-8.405-2.014-16.804-3.059-25.202-.606-4.87-1.429-9.766-1.807-14.661-.111-1.435.363-2.825.67-4.212.502-2.267.844-4.564,1.383-6.824.717-3.003-3.911-4.284-4.629-1.276h0Z"/><path class="g" d="M100.9,220.982c1.209-8.518,2.428-17.035,3.626-25.555.434-3.083.866-6.166,1.282-9.251.23-1.707.547-3.438.654-5.159.11-1.769-.356-3.635-.84-5.324-.703-2.454-1.251-4.976-2.306-7.307-.534-1.181-2.248-1.467-3.284-.861-1.214.71-1.397,2.098-.861,3.284.835,1.847,1.19,3.989,1.757,5.933.392,1.343.812,2.763.742,4.177-.025.516-.111,1.035-.174,1.547-.048.388-.098.776-.149,1.163-.032.245-.064.49-.097.735-.047.353-.075.561-.071.535-.904,6.714-1.868,13.42-2.821,20.127-.695,4.893-1.392,9.786-2.087,14.679-.182,1.282.314,2.578,1.676,2.952,1.125.309,2.769-.385,2.952-1.676h0Z"/><path class="g" d="M86.698,138.544c-1.378,1.554-2.675,3.177-3.975,4.796-1.285,1.6-2.76,3.13-3.914,4.827-1.788,2.629-2.28,6.1-.643,8.884,2.809,4.778,6.068,9.368,9.587,13.646,2.074,2.522,4.323,5.024,7.075,6.824,1.173.767,2.539.134,3.284-.861,4.463-5.958,8.659-12.19,13.595-17.775,1.093-1.236.818-2.836-.486-3.769-.295-.211-.581-.434-.868-.655-.116-.089-.231-.178-.347-.267.004.003.358.278-.026-.02-.335-.26-.67-.52-1.005-.781-1.694-1.318-3.384-2.643-5.073-3.968-3.636-2.852-7.267-5.71-10.894-8.573-.973-.768-1.951-1.53-2.916-2.308-1.008-.813-2.409-.985-3.394,0-.841.841-1.014,2.576,0,3.394,6.108,4.928,12.32,9.736,18.511,14.559,1.19.927,2.363,1.885,3.59,2.763l-.486-3.769c-5.206,5.89-9.639,12.462-14.346,18.746l3.284-.861c-.815-.533-1.416-1.046-2.325-1.921-.977-.94-1.895-1.941-2.78-2.967-1.874-2.173-3.593-4.473-5.24-6.821-1.349-1.924-2.654-3.882-3.891-5.88-.35-.565-.731-1.13-1.028-1.725-.033-.065-.078-.127-.105-.195.195.497.057-.17.051-.334-.027-.7.198-1.437.499-2.062.785-1.627,2.299-3.011,3.424-4.41,1.388-1.728,2.767-3.464,4.238-5.123,2.043-2.304-1.34-5.711-3.394-3.394Z"/><path class="g" d="M96.213,255.305c-12.006-20.812-23.874-41.719-34.943-63.048-.419-.807-.836-1.614-1.252-2.422-.327-.635-.821-1.323-1.03-2.008-.152-.499-.054-.405.448-.944.584-.628,1.176-1.248,1.775-1.863,2.395-2.461,4.886-4.826,7.39-7.175,1.125-1.055.825-3.021-.486-3.769-1.59-.908-3.181-1.816-4.771-2.723-.723-.413-1.446-.825-2.169-1.238-.434-.248-.869-.493-1.301-.743l-.434-.248c-.356-.222-.323-.193.099.09l.328,1.211c-.14.303-.16.352-.06.147.058-.119.119-.237.182-.354.107-.202.22-.4.336-.597.245-.416.507-.821.782-1.218.582-.842,1.231-1.629,1.909-2.396,1.669-1.888,3.501-3.631,5.395-5.291,3.519-3.085,7.284-5.9,11.22-8.431l-3.526-1.434c6.537,28.98,14.756,57.661,24.588,85.698,2.351,6.703,4.954,13.313,7.62,19.896.486,1.201,1.599,2.048,2.952,1.676,1.139-.313,2.166-1.744,1.676-2.952-10.529-26.001-18.834-52.941-25.964-80.056-2.229-8.475-4.315-16.988-6.244-25.537-.333-1.474-2.261-2.248-3.526-1.434-5.874,3.778-11.59,8.141-16.418,13.203-1.211,1.269-2.344,2.607-3.386,4.019-.882,1.196-1.933,2.634-2.264,4.103-.622,2.761,2.094,3.927,4.047,5.042,2.169,1.238,4.337,2.476,6.506,3.714l-.486-3.769c-2.333,2.188-4.655,4.391-6.898,6.672-2.202,2.239-5.183,4.688-3.885,8.18,1.052,2.831,2.782,5.542,4.182,8.216,1.433,2.737,2.879,5.467,4.336,8.191,6.022,11.255,12.232,22.409,18.53,33.512,3.507,6.182,7.044,12.348,10.595,18.505,1.543,2.675,5.693.261,4.145-2.423h0Z"/><path class="g" d="M131.338,257.727c12.611-21.859,25.078-43.822,36.608-66.274.854-1.664,1.733-3.28,1.195-5.203-.488-1.745-2.008-3.029-3.225-4.288-2.495-2.582-5.099-5.055-7.717-7.511l-.486,3.769c2.169-1.238,4.337-2.476,6.506-3.714,1.957-1.117,4.671-2.272,4.047-5.042-.33-1.465-1.385-2.91-2.264-4.103-1.041-1.412-2.175-2.75-3.386-4.019-4.828-5.062-10.544-9.425-16.418-13.203-1.265-.813-3.193-.04-3.526,1.434-6.537,28.98-14.756,57.661-24.588,85.698-2.351,6.703-4.954,13.313-7.62,19.896-.487,1.202.53,2.637,1.676,2.952,1.372.377,2.464-.47,2.952-1.676,10.529-26.001,18.834-52.941,25.964-80.056,2.229-8.475,4.315-16.988,6.244-25.537l-3.526,1.434c3.936,2.531,7.7,5.347,11.22,8.431,1.852,1.623,3.642,3.325,5.282,5.165.685.768,1.346,1.557,1.936,2.4.279.398.546.804.796,1.221.141.236.278.475.407.718l.123.236c.157.323.156.313-.001-.03l.328-1.211c.384-.255.457-.31.219-.163-.182.112-.367.218-.554.321-.361.208-.723.413-1.084.619-.795.454-1.59.908-2.386,1.362-1.59.908-3.181,1.816-4.771,2.723-1.31.748-1.61,2.715-.486,3.769,2.219,2.081,4.427,4.175,6.568,6.337.495.5.986,1.003,1.473,1.511.375.391,1.422,1.193,1.598,1.701.083.239.057.213-.129.632-.334.751-.758,1.479-1.135,2.21-2.681,5.2-5.416,10.373-8.189,15.524-5.755,10.693-11.672,21.298-17.667,31.857-3.355,5.908-6.736,11.801-10.131,17.686-1.546,2.681,2.6,5.1,4.145,2.423h0Z"/><path class="g" d="M133.313,141.938c2.45,2.763,4.923,5.664,7.123,8.631.372.502.646,1.07.83,1.664.096.312.172.626.2.95.018.208-.037.929.002.787.065-.232-.125.229-.192.346-.168.295-.344.586-.52.877-2.605,4.295-5.488,8.483-8.696,12.349-.983,1.184-2.002,2.34-3.089,3.43-.5.501-1.015.989-1.551,1.451-.641.552-.552.486-1.265.952l3.284.861c-4.707-6.284-9.14-12.856-14.346-18.746l-.486,3.769c2.737-1.958,5.343-4.128,7.99-6.205,3.712-2.911,7.418-5.828,11.121-8.751.998-.787,2.001-1.569,2.99-2.367,1.01-.815.848-2.546,0-3.394-.998-.998-2.382-.817-3.394,0-6.032,4.866-12.166,9.613-18.278,14.378-.387.302-.775.604-1.163.905-.169.131-.338.262-.507.393-.464.36.345-.263-.07.054-.369.282-.734.571-1.111.841-1.304.933-1.578,2.533-.486,3.769,4.936,5.585,9.132,11.816,13.595,17.775.746.996,2.099,1.636,3.284.861,5.108-3.341,8.893-8.869,12.324-13.797,1.405-2.018,2.768-4.071,4.041-6.176.394-.651.818-1.307,1.046-2.04.632-2.033.156-4.256-.716-6.138-.904-1.951-2.597-3.553-3.935-5.213-1.521-1.889-3.021-3.797-4.631-5.612-2.054-2.316-5.438,1.089-3.394,3.394Z"/><path class="j" d="M136.034,51.118c4.932,1.494,8.676,4.504,11.771,8.921,2.971,4.241,4.185,8.457,5.581,14.505l5.281,4.419c1.516-1.457,3.559-2.005,5.308-1.943,1.173.041,2.138.266,2.933.591,2.835-13.794,3.101-29.48-2.928-42.829-.746-1.652-3.95-10.173-11.264-16.008-5.915-4.718-8.827-5.705-12.927-5.656l-8.093-3.222c-2.41-2.597-4.515-3.787-7.997-4.997-12.836-4.466-27.62-2.695-39.295,3.285-11.675,5.97-21.403,16.623-26.105,28.672-4.613,11.803-4.859,28.503-2.499,41.093.905-.505,2.088-.876,3.631-.93,1.748-.062,3.791.486,5.308,1.943l1.898,1.824c.352-3.603,1.253-7.163,4.05-10.024,1.825-1.867,4.41-3.371,5.5-5.541.924-1.838,1.073-3.825,2.036-5.651.634-1.202,1.715-2.564,2.992-3.426,1.746-1.179,3.458-1.779,5.68-2.365,2.893-.762,17.018-1.76,20.825-1.939,0,0,10.582-2.145,16.32-2.145,7.049,0,11.994,1.421,11.994,1.421Z"/><path class="g" d="M135.396,53.432c4.468,1.394,8.04,4.396,10.634,8.252,2.743,4.077,3.946,8.767,5.042,13.498.697,3.008,5.326,1.735,4.629-1.276-1.239-5.348-2.715-10.695-5.932-15.231-3.294-4.645-7.619-8.163-13.097-9.871-2.956-.922-4.22,3.71-1.276,4.629h0Z"/><path class="g" d="M139.789,15.519c1.842-.011,2.863.083,4.633.752,1.81.684,3.908,2.146,5.605,3.429,3.899,2.948,6.957,6.652,9.316,10.918,4.353,7.871,6.658,16.703,7.037,25.672.271,6.405-.298,12.819-1.476,19.114-.238,1.273.353,2.589,1.676,2.952,1.169.321,2.713-.396,2.952-1.676,2.27-12.131,2.635-24.956-1.08-36.849-2.699-8.641-7.218-17.367-14.421-23.055-4.278-3.378-8.638-6.092-14.242-6.057-3.088.019-3.094,4.819,0,4.8h0Z"/><path class="g" d="M58.115,77.315c-1.503-8.125-1.777-16.548-.943-24.766.807-7.954,2.989-15.599,7.157-22.456,8.568-14.092,23.596-23.869,40.133-25.14,4.868-.374,9.779-.083,14.53,1.066,4.173,1.009,8.015,2.4,11.007,5.574,2.123,2.252,5.513-1.146,3.394-3.394-2.959-3.139-6.583-4.899-10.67-6.14C118.2.687,113.426.025,108.703,0c-9.336-.047-18.709,2.347-26.889,6.844-7.729,4.249-14.379,10.377-19.477,17.553-5.052,7.111-8.131,15.242-9.422,23.846-1.508,10.044-1.276,20.362.571,30.347.236,1.275,1.78,1.999,2.952,1.676,1.339-.368,1.913-1.673,1.676-2.952h0Z"/><path class="g" d="M107.72,49.442c-6.539.315-13.145.753-19.627,1.691-3.795.549-7.928,2.027-10.436,5.053-1.812,2.186-2.332,4.606-3.282,7.2-.748,2.044-2.699,3.27-4.276,4.647-4.57,3.992-5.756,9.536-6.041,15.349-.152,3.088,4.649,3.08,4.8,0,.211-4.306.871-8.53,4.207-11.573,1.687-1.539,3.568-2.834,4.844-4.772,1.32-2.004,1.374-4.512,2.554-6.557,1.751-3.034,5.342-4.157,8.616-4.676.13-.021.261-.038.391-.057.365-.053-.391.05-.002,0,.351-.045.702-.088,1.054-.129.799-.093,1.6-.177,2.401-.257,1.706-.17,3.414-.318,5.123-.457,3.221-.261,6.447-.506,9.675-.662,3.075-.148,3.093-4.949,0-4.8h0Z"/><path class="g" d="M107.279,45.25c1.559-.139,3.127-.239,4.691-.121.166.013.332.028.497.045.451.045-.553-.101.23.029.335.056.668.119.999.194.789.18,1.572.415,2.327.708-.219-.085.111.045.157.066.159.073.317.149.473.228.348.176.688.367,1.02.571.325.199.638.414.951.632.078.054.303.228.103.071.126.099.249.202.371.305.509.432.991.898,1.431,1.4.088.101.169.208.259.307-.126-.139-.176-.252-.031-.037.157.232.311.461.449.706.638,1.128,2.177,1.509,3.284.861,1.135-.664,1.501-2.151.861-3.284-1.547-2.737-4.383-4.899-7.233-6.116-3.484-1.488-7.108-1.699-10.84-1.367-1.247.111-2.462,1.024-2.4,2.4.054,1.205,1.061,2.519,2.4,2.4h0Z"/><path class="g" d="M182.708,217.871c-1.202,9.426-2.404,18.852-3.595,28.28-.262,2.078-.525,4.155-.782,6.233-.159,1.289,1.217,2.4,2.4,2.4,1.43,0,2.24-1.108,2.4-2.4,1.19-9.618,2.43-19.231,3.655-28.844.241-1.89.482-3.779.723-5.669.164-1.288-1.221-2.4-2.4-2.4-1.433,0-2.235,1.108-2.4,2.4h0Z"/><path class="g" d="M44.446,244.326c-1.506-12.024-3.104-24.035-4.673-36.051-.195-1.492-.397-2.983-.576-4.477-.154-1.287-.993-2.4-2.4-2.4-1.177,0-2.555,1.104-2.4,2.4,1.203,10.031,2.623,20.04,3.915,30.06.45,3.489.897,6.978,1.334,10.469.161,1.286.988,2.4,2.4,2.4,1.172,0,2.562-1.105,2.4-2.4h0Z"/><path class="g" d="M40.462,325.864h134.83c3.089,0,3.094-4.8,0-4.8H40.462c-3.089,0-3.094,4.8,0,4.8h0Z"/><path class="g" d="M162.674,317.516c5.51,5.696,12.848,9.73,20.797,10.479,7.523.709,15.095-1.642,20.708-6.707,11.854-10.697,12.363-28.125,12.468-42.936.111-15.564-1.383-31.066-3.849-46.423-1.339-8.339-2.834-16.699-4.598-24.958-1.732-8.109-4.228-16.293-7.92-23.738-3.399-6.854-8.719-12.3-15.142-16.389-6.814-4.339-14.557-6.999-22.276-9.22-2.035-.586-4.077-1.144-6.12-1.701-2.984-.815-4.257,3.814-1.276,4.629,13.573,3.707,29.133,7.899,37.706,20.068,4.438,6.299,6.902,14.11,8.905,21.476,1.049,3.858,1.812,7.754,2.533,11.683.743,4.047,1.593,8.074,2.317,12.125,2.603,14.564,4.434,29.262,4.835,44.062.202,7.446.179,14.961-.463,22.386-.607,7.024-2.102,14.169-5.965,20.171-3.489,5.422-8.588,9.189-14.959,10.395-7.397,1.4-14.727-1.011-20.632-5.482-1.317-.997-2.53-2.127-3.677-3.313-2.152-2.224-5.544,1.172-3.394,3.394h0Z"/><path class="g" d="M64.69,155.922c-9.038,2.91-17.888,6.385-26.208,10.989-4.2,2.324-8.393,4.786-11.98,8.004-3.396,3.047-6.292,6.716-8.547,10.679-4.389,7.715-6.657,16.287-8.509,24.897-1.67,7.759-2.926,15.61-4.142,23.451-2.59,16.703-4.427,33.586-5.214,50.475-.432,9.283.587,19.818,5.596,27.885,4.684,7.544,12.565,13.561,21.444,14.953,14.248,2.235,25.561-7.766,35.963-15.988l1.172-.926c1.018-.804.841-2.553,0-3.394-1.005-1.005-2.374-.806-3.394,0-2.962,2.342-5.925,4.683-8.887,7.025-.736.582-1.498,1.063-2.595,1.808-1.804,1.224-3.643,2.401-5.554,3.452-3.247,1.787-6.804,3.236-10.533,3.533-8.286.66-15.846-3.483-21.122-9.659-5.748-6.729-7.282-16.107-7.365-24.701-.046-4.815.41-9.643.762-14.442.311-4.241.661-8.479,1.068-12.711.7-7.287,1.58-14.553,2.647-21.795,1.134-7.693,2.358-15.386,3.832-23.022,1.474-7.637,3.103-15.353,6.106-22.554,3.357-8.052,8.554-14.848,16.002-19.486,7.666-4.773,15.797-8.63,24.297-11.668,2.133-.762,4.282-1.481,6.438-2.175,2.929-.943,1.676-5.579-1.276-4.629h0Z"/><path class="g" d="M155.875,103.569c-.265,1.995-1.082,3.964-1.843,5.812-.298.724-.619,1.441-.896,2.173-.068.179-.133.359-.197.54-.223.632.122-.241-.037.102-.94,2.031-2.009,3.986-3.186,5.89-3.407,5.512-7.546,10.75-12.619,14.823-2.737,2.198-5.806,3.941-9.207,4.727-3.009.695-1.735,5.324,1.276,4.629,7.167-1.655,13.131-6.895,17.807-12.337,3.862-4.494,7.457-9.546,9.918-14.963,1.645-3.62,3.257-7.442,3.783-11.395.171-1.287-1.226-2.4-2.4-2.4-1.439,0-2.228,1.109-2.4,2.4h0Z"/><path class="g" d="M62.59,104.021c3.364,14.481,12.432,28.521,25.526,35.981,3.54,2.017,7.422,3.477,11.458,4.078,1.28.19,2.58-.32,2.952-1.676.311-1.132-.386-2.76-1.676-2.952-14.107-2.098-25.026-14.596-30.486-27.051-1.359-3.101-2.381-6.361-3.146-9.656-.699-3.008-5.328-1.735-4.629,1.276h0Z"/><path class="g" d="M66.612,77.293c-3.152-2.851-7.763-3.455-11.589-1.598-2.812,1.364-4.429,4.164-5.129,7.113-1.634,6.878.108,14.716,4.082,20.523,2.886,4.216,7.003,7.263,12.316,6.537,1.286-.176,1.987-1.822,1.676-2.952-.381-1.386-1.663-1.852-2.952-1.676-3.72.508-6.592-3.494-8.104-6.336-1.457-2.738-2.515-5.836-2.741-8.938-.126-1.723-.121-3.502.207-5.204.147-.761.326-1.56.619-2.276.134-.327.308-.646.492-.948.054-.089.504-.714.166-.288.758-.954,1.582-1.486,2.948-1.736,1.639-.3,3.362.038,4.616,1.172,2.286,2.068,5.691-1.316,3.394-3.394h0Z"/><path class="g" d="M160.188,80.687c1.254-1.134,2.977-1.472,4.616-1.172,1.367.25,2.204.799,2.948,1.736-.338-.426.111.199.166.288.183.302.358.62.492.948.293.716.472,1.515.619,2.276.329,1.702.333,3.48.207,5.204-.226,3.103-1.284,6.2-2.741,8.938-1.512,2.842-4.384,6.844-8.104,6.336-1.283-.175-2.577.309-2.952,1.676-.308,1.12.384,2.776,1.676,2.952,8.678,1.185,13.724-7.348,15.973-14.5,1.122-3.568,1.26-7.507.69-11.184-.481-3.106-1.768-6.089-4.415-7.92-3.803-2.631-9.222-1.999-12.569,1.029-2.296,2.077,1.107,5.463,3.394,3.394h0Z"/><path class="g" d="M102.991,121.146c2.871,1.516,5.962,2.153,9.208,2.132,3.31-.021,6.644-.677,9.294-2.742,1.023-.797.837-2.557,0-3.394-1.01-1.01-2.368-.799-3.394,0,.728-.567.165-.135-.023-.015-.185.118-.375.228-.569.33-.101.053-.204.1-.305.152-.39.201.094-.052.098-.032.007.036-.721.265-.785.285-.716.23-1.453.391-2.197.501.355-.053-.061.004-.207.018-.215.021-.431.039-.647.053-.52.034-1.041.047-1.562.044-.466-.003-.933-.019-1.398-.05-.214-.015-.427-.032-.64-.053-.026-.003-.798-.111-.307-.033-.693-.11-1.379-.254-2.052-.456-.288-.086-.568-.189-.851-.286-.613-.21.355.183-.198-.077-.352-.166-.699-.339-1.043-.521-1.146-.605-2.61-.291-3.284.861-.634,1.084-.289,2.676.861,3.284h0Z"/><path class="g" d="M110.975,99.459c.401,1.53.786,3.084,1.016,4.65l-.086-.638c.027.215.039.426.017.642l.086-.638c-.015.1-.037.193-.071.289l.242-.573c-.03.067-.061.125-.102.186l.375-.486c-.048.058-.093.103-.152.15l.486-.375c-.118.075-.242.136-.368.195l.573-.242c-.203.085-.404.147-.621.181l.638-.086c-.196.023-.387.022-.583-.001l.638.086c-.22-.031-.435-.084-.655-.114-.319-.1-.638-.114-.957-.043-.319.014-.617.109-.892.285-.498.291-.973.862-1.103,1.434-.14.614-.11,1.304.242,1.849.312.484.835,1.022,1.434,1.103.501.068.988.195,1.498.217.783.034,1.51-.205,2.21-.526.864-.396,1.539-1.174,1.769-2.104.195-.788.111-1.476-.022-2.265-.253-1.498-.599-2.983-.985-4.453-.318-1.214-1.729-2.072-2.952-1.676-1.25.404-2.018,1.651-1.676,2.952h0Z"/><path class="g" d="M86.415,86.292c-.774,2.516-.27,8.305,4.497,8.797,6.301-.038,6.636-7.036,4.515-10.327-1.737-2.694-6.843-3.815-9.012,1.529Z"/><path class="g" d="M136.99,86.292c.774,2.516.27,8.305-4.497,8.797-6.301-.038-6.636-7.036-4.515-10.327,1.736-2.694,6.843-3.814,9.012,1.53Z"/><path class="f" d="M79.402,275.573l.757-1.012c.935-1.25,3.246-4.558,3.711-4.984.302-.276,1.284-.95,2.015-1.22,2.868-1.059,6.455-.541,8.796-1.972,4.153-2.539,4.3-4.693,7.357-7.697,2.621-14.019,6.706-35.873,8.662-46.342-.189-.004-.378,0-.565.01-1.514.083-2.976.559-4.405,1.065-4.574,1.619-9.027,3.581-13.317,5.862-.041-.021-.082-.051-.123-.072-.154-.093-.319-.185-.483-.257-.041-.031-.093-.051-.144-.072-.144-.062-.288-.123-.432-.165-.041-.021-.082-.041-.123-.051-.082-.031-.154-.051-.236-.072-.103-.031-.206-.062-.298-.082-.031-.01-.062-.01-.093-.021-.103-.021-.206-.041-.298-.062-.123-.021-.236-.031-.35-.041-.072-.01-.144-.021-.216-.021-.134-.021-.278-.021-.422-.021-.236,0-.473.01-.709.041-1.131.144-2.221.637-3.095,1.368-1.11.925-2.56,1.265-4,1.244-1.141-.01-2.303.35-3.239,1.008-.925.658-2.005,1.069-3.157,1.1-.123,0-.247.01-.38.031-.411.051-.812.134-1.203.257-.524.165-1.028.391-1.501.658-1.08.607-2.046,1.47-2.838,2.427-1.409,1.707-2.365,3.743-3.301,5.748-4.646,9.955-6.645,13.21-11.485,23.243,1.502,4.146,4.459,8.807,6.932,11.871,2.035,2.521,4.252,4.972,7.037,6.629,2.54,1.511,7.469,1.938,11.001,1.793l.144-.193Z"/><path class="g" d="M94.863,220.713c3.092-1.584,6.257-3.012,9.506-4.243,1.599-.606,3.227-1.26,4.908-1.598,1.056-.212,2.519-.278,3.418.44,1.012.808,2.406.989,3.394,0,.838-.838,1.018-2.581,0-3.394-3.637-2.903-7.874-1.955-11.908-.482s-7.938,3.184-11.741,5.132c-1.153.591-1.489,2.209-.861,3.284.685,1.172,2.126,1.454,3.284.861h0Z"/><path class="g" d="M82.232,275.772c.534-.718,1.053-1.447,1.576-2.172.298-.412.596-.824.897-1.234.135-.184.271-.367.408-.55.151-.202.368-.446.083-.112.105-.123.57-.627.178-.289.281-.242.992-.673,1.15-.744,1.112-.497,2.441-.586,3.636-.724,1.332-.153,2.71-.275,3.986-.711,1.44-.492,2.655-1.32,3.837-2.263.873-.697,1.632-1.485,2.325-2.359.387-.489.758-.988,1.125-1.491.309-.423.605-.834.819-1.103.806-1.014.99-2.404,0-3.394-.836-.836-2.583-1.02-3.394,0-1.482,1.864-2.299,3.432-4.175,4.877-1.052.81-1.858,1.196-3.12,1.442-1.289.251-2.654.326-3.98.532-2.174.338-4.479,1.187-5.885,2.964-1.26,1.594-2.4,3.278-3.612,4.908-.774,1.041-.17,2.68.861,3.284,1.223.716,2.508.182,3.284-.861h0Z"/><path class="g" d="M95.478,218.77c-2.575-2.863-6.782-3.595-10.19-1.82-.785.409-1.397,1.095-2.227,1.413-.971.372-2.058.205-3.069.371-1.981.327-3.401,1.814-5.377,2.006-4.928.479-8.118,4.529-10.154,8.674-1.793,3.651-3.479,7.352-5.31,10.985-1.917,3.805-3.871,7.591-5.747,11.416-.571,1.163-.315,2.596.861,3.284,1.057.618,2.711.307,3.284-.861,3.029-6.175,6.248-12.253,9.199-18.466,1.591-3.349,3.022-7.931,6.555-9.741.69-.354,1.363-.478,2.121-.551,1.208-.116,2.344-.455,3.402-1.059.683-.39,1.26-.877,2.064-.995.963-.142,1.919-.066,2.886-.284,1.022-.231,1.99-.688,2.826-1.312.684-.511,1.363-.982,2.238-1.072,1.288-.133,2.402.471,3.243,1.406,2.07,2.302,5.456-1.102,3.394-3.394h0Z"/><path class="g" d="M97.541,233.235c1.141,2.35,2.033,4.824,2.604,7.376.251,1.12.576,2.69.568,3.657-.007.891-.436,1.943-.679,2.792-.309,1.08-.653,2.155-1.068,3.199-.23.577-.573,1.51-1.056,1.944-1.075.966-3.669.766-4.09-.643-.883-2.952-5.517-1.695-4.629,1.276,1.11,3.713,5.414,5.437,8.978,4.491,3.399-.902,4.743-3.787,5.811-6.837.458-1.31.851-2.647,1.162-4,.403-1.754.27-3.408.001-5.178-.555-3.66-1.846-7.18-3.458-10.5-.566-1.166-2.226-1.479-3.284-.861-1.19.696-1.429,2.113-.861,3.284h0Z"/><path class="g" d="M87.246,235.57c.598,1.436,1.29,2.814,1.967,4.213.434.897.979,2.227,1.021,2.987.071,1.264-.253,2.509-.525,3.793-.132.622-.273,1.243-.426,1.861-.072.29-.145.578-.238.862-.037.118-.078.235-.122.351.09-.2.076-.172-.043.083-.108.2-.227.394-.335.593-.161.23-.164.243-.008.039-.089.107-.183.21-.281.309-.143.144-.479.345-.136.139-.109.073-.222.14-.339.201.278-.102.288-.106.031-.014-.117.029-.695.112-.145.072-.121.009-.94-.059-.43.031-.607-.107-.853-.217-1.265-.459-.098-.058-.553-.442-.182-.097-.139-.129-.516-.694-.238-.204-.089-.157-.184-.307-.261-.471.267.568-.002-.178-.036-.314-.122-.48-.022.398-.013-.17.004-.261-.015-.522-.008-.784.013-.476.096-1.357.127-1.579.175-1.283-.31-2.577-1.676-2.952-1.12-.308-2.775.384-2.952,1.676-.318,2.328-.693,5.022.728,7.091,1.448,2.107,4.199,3.313,6.728,2.967,2.681-.366,4.459-2.463,5.364-4.881.419-1.119.637-2.333.874-3.502.287-1.412.659-2.925.621-4.371-.086-3.234-1.972-5.863-3.173-8.746-.498-1.196-1.59-2.051-2.952-1.676-1.129.31-2.178,1.748-1.676,2.952h0Z"/><path class="g" d="M51.254,253.666c.809,3.553,2.549,6.923,4.455,10.003,1.925,3.111,4.176,6.109,6.753,8.711,2.517,2.543,5.357,4.483,8.898,5.191,3.13.626,6.424.803,9.601.477,1.289-.132,2.4-1.008,2.4-2.4,0-1.195-1.103-2.533-2.4-2.4-2.629.27-5.384.237-7.987-.241-3.077-.565-5.203-2.028-7.413-4.324s-4.14-4.882-5.812-7.608c-1.659-2.706-3.157-5.571-3.866-8.685-.685-3.011-5.314-1.737-4.629,1.276h0Z"/><path class="f" d="M125.667,233.654c3.473,2.032,17.245,10.253,26.307,15.749.443-2.371,1.028-5.5,1.499-8.02,5.801,2.983,9.285,5.232,13.52,8.988,1.692,1.501,3.055,4.144,3.787,6.284,1.57,4.589,2.961,11.195,2.078,17.179l-.102.691c-3.019,6.521-8.247,13.46-13.876,17.922-6.47.122-12.521-.607-15.719-1.187-3.692-.67-6.999-2.575-10.086-4.708-7.214-4.985-13.513-10.72-18.957-17.888-.562-.74-.874-1.663-.994-2.584s.108-1.931.788-2.563c0,0,.783-.728,1.966-1.829-.765-.601-1.305-1.043-1.532-1.261-1.119-1.073-1.784-1.808-2.381-3.238-.305-.732-.229-1.699-.046-2.494.252-1.097,1.099-3.115,3.664-2.725,0,0,.745.113,1.79.272-2.012-1.478-3.498-2.584-4.025-3.006-.237-.189-.48-.394-.725-.61-1.377-1.216-2.82-2.821-3.544-4.361-.854-1.814-.4-3.677.662-5.087,1.381-1.834,3.791-2.446,6.982-1.451-.579-1.709.463-3.229,1.226-4.072,1.994-2.203,5.663-1.186,7.226-.285.128.074.293.17.492.286Z"/><path class="g" d="M175.173,274.471c.57-4.134.345-8.224-.446-12.318-.668-3.456-1.636-7.024-3.408-10.092-1.785-3.091-4.683-5.271-7.53-7.333-2.9-2.1-6.031-3.837-9.21-5.474-2.742-1.413-5.172,2.728-2.423,4.145,2.855,1.471,5.676,3.018,8.321,4.846,2.338,1.616,4.99,3.433,6.49,5.89,1.597,2.616,2.387,5.689,3.005,8.667.701,3.377,1.046,6.96.573,10.393-.177,1.282.311,2.577,1.676,2.952,1.121.308,2.774-.384,2.952-1.676h0Z"/><rect class="i" x="87.091" y="215.239" width="85.482" height="47.379" rx="5.156" ry="5.156" transform="translate(-128.884 322.649) rotate(-79.412)"/><path class="g" d="M103.123,279.851c8.653,1.617,17.305,3.235,25.958,4.852,3.451.645,6.898,1.334,10.357,1.936,3.85.67,7.686-1.238,8.914-5.095.192-.605.281-1.248.398-1.87,1.505-8.054,3.011-16.107,4.516-24.161l6.265-33.517,2.163-11.574c.529-2.828,1.365-5.689-.004-8.442-2.032-4.085-6.694-4.262-10.614-4.995-5.429-1.015-10.858-2.03-16.286-3.044l-13.413-2.507c-1.87-.35-3.691-.627-5.543.098-2.499.978-4.24,3.127-4.75,5.75-1.356,6.967-2.609,13.956-3.913,20.933l-6.352,33.982c-1.162,6.216-2.438,12.423-3.488,18.659-.688,4.085,1.625,8.07,5.792,8.995,3.01.668,4.295-3.958,1.276-4.629-3.19-.708-2.371-3.458-1.948-5.723l1.942-10.391c2.004-10.723,4.009-21.446,6.013-32.169l4.825-25.81c.378-2.024.472-5.208,3.196-5.308.847-.031,1.735.251,2.56.406l5.837,1.091,27.839,5.204c1.666.311,3.24,1.191,3.047,3.176-.04.409-.154.823-.229,1.226l-1.628,8.709c-1.942,10.39-3.884,20.781-5.827,31.171-1.742,9.318-3.483,18.635-5.225,27.953-.301,1.608-.556,3.233-.903,4.831-.824,3.791-5.255,2.036-7.823,1.556-9.798-1.831-19.596-3.663-29.394-5.494l-2.283-.427c-1.273-.238-2.589.353-2.952,1.676-.321,1.169.396,2.713,1.676,2.952Z"/><path class="f" d="M155.676,253.093l.063-1.399c-8.805-5.392-27.844-16.759-30.563-18.326-1.563-.901-5.232-1.917-7.226.285-.759.839-1.796,2.349-1.234,4.049-.417-.108-.665-.169-.665-.169-2.86-.707-5.027-.058-6.308,1.644-1.062,1.411-1.516,3.274-.662,5.087s2.704,3.718,4.27,4.971c.527.422,2.013,1.528,4.025,3.006-1.041-.158-1.789-.271-1.789-.271-2.565-.39-3.412,1.628-3.664,2.725-.183.795-.259,1.762.046,2.494.597,1.43,1.262,2.165,2.381,3.238.227.218.765.658,1.528,1.257-1.174,1.096-1.963,1.832-1.963,1.832-.675.63-.91,1.646-.788,2.56.121.924.438,1.849.992,2.592,5.451,7.168,11.748,12.903,18.965,17.889,3.079,2.127,6.387,4.03,10.086,4.7,2.303.423,7.336.546,10.795.108,0,0,1.398-31.228,1.714-38.27Z"/><path class="g" d="M156.95,249.621c-9.879-6.047-19.811-12.021-29.802-17.882-2.406-1.412-5.306-2.336-8.085-1.498-3.586,1.082-5.985,5.399-4.332,8.906,1.045,2.219,3.548,3.718,5.45,5.153,2.334,1.76,4.694,3.485,7.059,5.202,5.305,3.851,10.624,7.701,16.069,11.353,2.573,1.725,4.978-2.431,2.423-4.145-4.347-2.915-8.6-5.973-12.849-9.028-2.408-1.731-4.809-3.472-7.196-5.232-1-.738-1.999-1.478-2.991-2.226-.403-.303-.804-.609-1.205-.914-.447-.34.113.091-.19-.146-.176-.138-.353-.275-.529-.414-.681-.539-1.704-1.223-1.828-2.01-.041-.261.152-.566.326-.88.157-.284.349-.647.915-.935,1.609-.818,3.395.286,4.763,1.09,4.158,2.444,8.294,4.926,12.432,7.403,5.727,3.429,11.453,6.862,17.146,10.347,2.642,1.617,5.056-2.533,2.423-4.145h0Z"/><path class="g" d="M116.688,235.219c-2.718-.615-5.548-.478-7.77,1.369-2.241,1.862-3.253,5.117-2.327,7.896,1.192,3.58,4.454,6.038,7.37,8.205,5.489,4.08,11.041,8.076,16.591,12.073,2.338,1.684,4.671,3.378,7.037,5.023,1.065.74,2.666.196,3.284-.861.699-1.194.206-2.542-.861-3.284-4.396-3.057-8.716-6.227-13.052-9.368-2.565-1.859-5.127-3.721-7.681-5.593-.967-.709-1.933-1.419-2.895-2.134-.328-.244-.655-.488-.982-.734-.12-.091-.239-.183-.36-.273-.396-.293.493.421.08.062-1.454-1.265-4.254-3.299-4.083-5.505.182-2.349,2.545-2.659,4.373-2.246,3.008.681,4.292-3.946,1.276-4.629h0Z"/><path class="g" d="M115.584,249.569c-3.819-.427-6.327,3.035-6.222,6.581.085,2.855,2.214,5.153,4.328,6.845,4.104,3.283,8.358,6.387,12.57,9.529,2.186,1.631,4.376,3.257,6.561,4.89,1.039.777,2.681.169,3.284-.861.717-1.225.18-2.505-.861-3.284-3.636-2.717-7.282-5.42-10.912-8.144-1.891-1.419-3.779-2.841-5.654-4.28-.126-.097-.504-.389-.171-.131-.175-.136-.35-.271-.525-.408-.3-.234-.599-.469-.896-.706-.353-.282-.708-.564-1.04-.871-.966-.892-2.102-1.979-1.81-3.397.049-.236.123-.482.217-.704-.229.544.328-.473.052-.071.126-.184.095-.172.211-.207.138-.041.494-.023.87.019,1.29.144,2.4-1.206,2.4-2.4,0-1.417-1.106-2.255-2.4-2.4h0Z"/><path class="g" d="M112.215,261.818c-1.457,1.585-1.791,3.627-1.253,5.683s2.02,3.641,3.335,5.237c2.461,2.987,5.146,5.787,8.02,8.378,2.956,2.665,6.108,5.123,9.378,7.39,3.293,2.283,6.947,4.399,10.949,5.083,3.69.631,7.609.618,11.318.174,1.287-.154,2.4-.993,2.4-2.4,0-1.177-1.104-2.555-2.4-2.4-3.403.407-7.52.531-10.582-.105-4.379-.909-8.136-3.606-11.666-6.219-3.426-2.535-6.65-5.351-9.628-8.399-1.533-1.569-2.999-3.203-4.394-4.896-.536-.651-3.01-3.121-2.082-4.132,2.087-2.271-1.299-5.675-3.394-3.394h0Z"/><path class="g" d="M172.25,269.167c-1.522,5.038-4.309,9.759-7.536,13.891s-7.063,7.971-11.741,10.373c-2.749,1.412-.323,5.555,2.423,4.145,5.216-2.678,9.529-7.018,13.089-11.609,3.609-4.654,6.682-9.859,8.394-15.524.895-2.963-3.736-4.23-4.629-1.276h0Z"/><path class="g" d="M129.335,203.366c-2.034-.38-4.068-.764-6.102-1.144-.645-.12-1.267-.099-1.849.242-.498.291-.973.862-1.103,1.434-.14.614-.11,1.304.242,1.849.323.5.827.989,1.434,1.103,2.034.38,4.068.764,6.102,1.144.645.12,1.267.099,1.849-.242.498-.291.973-.862,1.103-1.434.14-.614.11-1.304-.242-1.849-.323-.5-.827-.989-1.434-1.103h0Z"/></g></g></svg>