<?xml version="1.0" encoding="UTF-8"?><svg id="b" xmlns="http://www.w3.org/2000/svg" width="349.005" height="307.626" viewBox="0 0 349.005 307.626"><defs><style>.e{fill:#fff;}.f{fill:#211715;}.g{fill:#645d5c;}</style></defs><g id="c"><g id="d"><path class="e" d="M216.215,99.8c-.128-.562-.261-1.155-.4-1.782.004-.007,1.847-3.025,2.614-4.743,0,0,.195-.385.474-.93,2.584.027,5.214-.962,6.292-1.651,3.705-2.382,5.387-5.683,6.484-8.061,1.558-3.364,2.146-8.965.582-12.181-.524-1.075-1.804-2.944-5.168-3.363-1.545-.192-3.403.105-4.858,1.207,0,0,5.813-31.638-42.732-35.076-32.167-2.278-43.254,10.084-43.254,21.235.148,4.153.609,8.54,1.419,12.662,1.128,6.892,1.919,13.82,2.79,20.172,1.457,10.627,4.966,20.179,12.6,26.091,3.686,2.855,7.453,4.906,11.42,6.174,3.492,6.226,8.184,11.503,15.888,13.215,6,1.333,14.825,1.6,20.767-.353,9.019-2.966,18.719-8.157,24.503-15.969,0,0,.576-.778,1.426-1.923-2.805-1.004-6.095-2.879-7.138-4.157-1.412-1.73-2.226-4.058-3.708-10.567Z"/><path class="g" d="M222.235,68.296c1.456-1.102,3.313-1.399,4.858-1.207,3.364.418,4.644,2.288,5.168,3.363l.689,1.414c2.396-5.403,2.822-14.63,2.946-19.11.118-4.32-1.161-11.589-2.364-15.748-2.403-8.275-5.217-12.937-11.792-19.677-14.3-13.967-29.321-15.704-39.34-14.812-13.154,1.171-22.967,4.371-31.178,12.658l-6.587,7.542c-4.727,6.031-6.849,12.974-7.916,20.587-.759,5.415-.707,12.886.31,20.03,2.961-2.494,5.506-4.639,5.506-4.639,5.436-4.973,14.96-12.405,21.512-15.141.768-.321,1.705.209,1.948,1.361.492,2.331-.676,5.564,1.133,5.014,3.133-.951,12.669-6.493,19.977-8.894,3.955,1.165,7.079,2.488,7.079,2.488,2.589,1.371,4.043,2.515,6.377,4.702,5.602,5.249,8.421,11.364,12.015,20.488.395,1.003,2.079,1.992,3.78.574l5.878-.991Z"/><path class="e" d="M194.56,304.797c2.579-1.074,4.11-3.996,3.206-6.887-2.98-9.531-7.54-24.073-12.153-38.761,26.231,4.393,62.796,10.517,62.796,10.517l5.438,9.058c-7.418,3.409-46.542,20.792-58.625,25.833"/><path class="e" d="M188.297,253.105c-1.094,1.428-2.152,2.885-3.228,4.309,3.629,11.557,7.264,23.143,10.16,32.388,2.377-2.407,4.756-4.812,7.135-7.217.921-.931,1.842-1.862,2.763-2.793,2.711-2.741,4.498-4.762,6.787-7.175-1.879,3.871-2.914,5.543-5.442,11.069-.464,1.015-.279,3.502,1.005,4.491,1.953,1.506,4.485-.183,5.103-.827,4.328-4.51,7.477-9.069,11.669-12.413,5.386-.646,11.124-2.053,16.807-5.143.667-.363,2.685-2.15,3.312-2.579,1.026-.702,1.783-1.135,2.914-1.701-2.817-9.161-7.918-18.978-13.538-23.951-4.341,3.67-10.414,2.656-15.836,1.792-2.982-.475-5.978-.867-8.982-1.174-1.578-.161-3.168-.299-4.749-.161-3.819.335-7.354,2.283-10.234,4.813-2.117,1.86-3.926,4.029-5.643,6.27Z"/><path class="e" d="M228.373,114.85c-.471-.122-.942-.24-1.413-.354-5.534,8.906-16.079,14.713-25.829,17.919-5.941,1.954-14.767,1.687-20.767.353-8.114-1.803-12.887-7.561-16.435-14.219-14.137,5.957-22.669,8.658-29.049,12.709-2.36,1.49-5.36,3.97-7.22,6.94-1.39,2.22-3.621,8.41-4.17,11.17-2.526,12.686-5.026,28.352-6.29,45.21-.255,7.019-.528,11.718,2.173,15.125,18.265.083,34.666.146,44.345.211,3.817.026,7.178,2.501,8.329,6.14,3.045,9.631,8.029,25.469,13.021,41.36,2.767-3.661,5.406-7.535,8.872-10.58,2.88-2.531,6.415-4.478,10.234-4.813,1.58-.139,3.171,0,4.749.161,3.004.307,6,.699,8.982,1.174,5.422.864,11.495,1.878,15.829-1.801,6.49,5.745,12.282,17.924,14.675,28.111,8.389-2.778,23.806-8.778,33.389-15.944,6.766-5.06,8.583-10.25,10.25-15.167.967-2.851,1.737-9.914,1.847-12.877.143-3.833-1.514-14.817-2.514-20.039-2.222-12.25-4.028-20.472-10.806-44.139-3.416-11.93-8.889-22.986-14.017-28.362-5.706-5.982-12.236-9.48-20.011-12.291-5.91-2.136-12.05-4.409-18.175-5.996Z"/><path class="e" d="M209.95,120.538s.001,0,.002,0c.043-.024.048-.028-.002,0Z"/><path class="f" d="M288.131,249.85c6.59-.002,13.181-.016,19.771-.024,10.341-.013,20.682-.026,31.023-.038,2.587-.003,5.174-.009,7.761-.009,3.089,0,3.094-4.8,0-4.8-6.76,0-13.52.016-20.279.024-10.294.013-20.588.026-30.882.038-2.465.003-4.929.008-7.394.009-3.089,0-3.094,4.801,0,4.8h0Z"/><path class="f" d="M2.318,249.858c11.015-.005,22.031-.047,33.046-.069,1.774-.004,3.548-.01,5.323-.01,3.089,0,3.094-4.801,0-4.8-11.151.002-22.302.046-33.453.069-1.638.003-3.277.009-4.915.01-3.089.001-3.094,4.801,0,4.8h0Z"/><path class="f" d="M214.428,102.685c.791,3.263,1.59,6.918,3.898,9.495,1.134,1.266,2.78,2.197,4.273,2.978,1.761.921,3.646,1.756,5.588,2.203,1.221.281,2.656-.375,2.952-1.676.279-1.223-.368-2.651-1.676-2.952-.832-.191-1.641-.463-2.434-.776-.122-.048-.648-.275-.119-.044-.232-.101-.464-.204-.694-.31-.403-.187-.801-.383-1.194-.589-.736-.385-1.458-.801-2.149-1.264-.174-.117-.344-.241-.516-.361-.434-.304.408.35.029.022-.232-.201-.455-.401-.666-.624-.162-.17-.279-.498.086.13-.068-.116-.165-.222-.241-.333-.142-.207-.274-.42-.398-.638-.135-.238-.259-.481-.376-.729-.032-.068-.168-.266-.156-.346.155.372.184.44.087.204-.035-.087-.069-.173-.103-.26-.674-1.75-1.123-3.586-1.564-5.405-.296-1.221-1.745-2.067-2.952-1.676-1.269.411-1.993,1.644-1.676,2.952h0Z"/><path class="f" d="M162.848,121.537c2.362,4.002,5.307,7.661,9.192,10.274,4.098,2.756,8.909,3.734,13.749,4.189,4.944.465,10.171.356,14.984-.969s9.539-3.485,13.828-5.985c5.061-2.95,9.583-6.692,13.106-11.388.779-1.037.167-2.682-.861-3.284-1.227-.718-2.503-.179-3.284.861-5.402,7.198-13.986,11.773-22.346,14.624-4.21,1.436-8.641,1.718-13.061,1.506-4.075-.195-8.385-.717-12.02-2.688-4.001-2.169-6.863-5.701-9.142-9.564-1.569-2.658-5.72-.246-4.145,2.423h0Z"/><path class="f" d="M225.432,116.598c4.432,1.032,8.769,2.411,13.064,3.907,3.953,1.376,7.972,2.698,11.803,4.391,6.434,2.842,12.668,6.906,16.835,12.683,4.577,6.346,7.708,13.78,10.101,21.189,2.423,7.504,4.41,15.189,6.401,22.819,2.517,9.646,4.63,19.399,6.226,29.241.879,5.423,1.95,11.075,1.528,16.587-.443,5.796-1.385,11.565-4.211,16.725-3.494,6.381-10.066,10.216-16.308,13.516s-12.714,6.015-19.324,8.39c-1.254.451-2.513.886-3.778,1.306-2.917.969-1.667,5.606,1.276,4.629,6.515-2.164,12.923-4.709,19.134-7.633,6.929-3.262,14.513-7.073,19.666-12.889,4.323-4.878,6.696-11.238,7.617-17.623.423-2.929.874-5.951.838-8.918s-.462-5.947-.855-8.884c-1.421-10.615-3.522-21.17-6.118-31.559-1.78-7.126-3.758-14.203-5.769-21.267-2.396-8.416-5.358-16.742-9.839-24.299-3.849-6.491-9.146-11.692-15.688-15.476-3.578-2.069-7.41-3.655-11.29-5.06-4.431-1.605-8.861-3.225-13.37-4.601-2.202-.672-4.422-1.279-6.665-1.801-3.005-.7-4.288,3.927-1.276,4.629h0Z"/><path class="f" d="M236.969,234.245c4.927-2.089,9.661-4.524,14.473-6.855,1.133-.549,1.526-2.253.861-3.284-.749-1.162-2.072-1.448-3.284-.861-4.812,2.331-9.547,4.766-14.473,6.855-1.16.492-1.501,2.29-.861,3.284.778,1.207,2.042,1.388,3.284.861h0Z"/><path class="f" d="M240.152,189.026c2.439,8.929,4.878,17.857,7.318,26.786.813,2.976,5.445,1.713,4.629-1.276-2.439-8.929-4.878-17.857-7.318-26.786-.813-2.976-5.445-1.713-4.629,1.276h0Z"/><path class="f" d="M231.607,240.186c-3.409,2.177-7.641,1.691-11.453,1.109-4.715-.72-9.536-1.661-14.317-1.728-9.748-.136-16.147,7.638-21.445,14.767-.774,1.041-.171,2.68.861,3.284,1.223.715,2.508.183,3.284-.861,2.502-3.367,5.095-6.931,8.553-9.387,1.623-1.153,3.379-2.095,5.31-2.608,2.068-.549,4.176-.414,6.286-.205,4.453.442,8.844,1.278,13.286,1.789,4.128.475,8.457.282,12.057-2.016,2.596-1.657.191-5.814-2.423-4.145h0Z"/><path class="f" d="M194.549,257.661c-2.447,2.425-4.893,4.851-7.34,7.276-.893.885-.952,2.52,0,3.394.962.883,2.441.945,3.394,0,2.447-2.425,4.893-4.851,7.34-7.276.893-.885.952-2.52,0-3.394-.962-.883-2.441-.945-3.394,0h0Z"/><path class="f" d="M195.228,278.544c3.704-4.325,7.756-8.348,11.804-12.348.894-.884.951-2.521,0-3.394-.963-.884-2.44-.943-3.394,0-4.048,4-8.1,8.022-11.804,12.348-.816.953-1.006,2.471,0,3.394.897.824,2.522,1.018,3.394,0h0Z"/><path class="f" d="M200.59,287.791c2.726-2.756,5.487-5.482,8.162-8.287,2.363-2.479,4.653-5.024,7.06-7.462.911-.922.921-2.473,0-3.394-.915-.915-2.481-.925-3.394,0-2.406,2.438-4.697,4.983-7.06,7.462-2.675,2.806-5.436,5.532-8.162,8.287-.912.921-.92,2.474,0,3.394s2.48.924,3.394,0h0Z"/><path class="f" d="M224.505,277.309c4.928-.63,9.673-1.769,14.246-3.739,1.943-.837,3.696-1.745,5.34-3.073.33-.266.655-.537.983-.806.161-.132.321-.263.484-.393.309-.246-.269.19-.039.031.957-.659,1.954-1.228,2.99-1.752,1.156-.585,1.487-2.213.861-3.284-.688-1.176-2.123-1.448-3.284-.861-1.677.848-3.17,1.849-4.619,3.038-.587.482-.979.837-1.429,1.129-.907.589-1.946,1.036-2.93,1.481-3.96,1.792-8.3,2.877-12.604,3.427-1.285.164-2.4.985-2.4,2.4,0,1.169,1.105,2.565,2.4,2.4h0Z"/><path class="f" d="M231.17,242.533c3.867,2.885,6.682,7.51,8.922,11.766,2.66,5.054,4.679,10.449,6.003,16.005.716,3.004,5.345,1.732,4.629-1.276-1.447-6.073-3.732-11.999-6.674-17.504-2.641-4.942-5.923-9.752-10.457-13.135-1.04-.776-2.681-.169-3.284.861-.716,1.225-.181,2.506.861,3.284h0Z"/><path class="f" d="M209.122,272.866c-.981,1.959-2.002,3.897-2.961,5.866-.695,1.427-1.513,2.882-2.032,4.383-.421,1.218-.355,2.665-.033,3.898.875,3.352,4.304,4.977,7.497,3.709,2.884-1.146,4.785-3.929,6.747-6.209,2.362-2.744,4.707-5.524,7.526-7.816,1.006-.818.85-2.544,0-3.394-.995-.995-2.385-.82-3.394,0-4.423,3.596-7.649,8.356-11.631,12.39-.062.063-.405.326-.136.131.288-.209-.313.184-.38.222-.112.064-.57.27-.219.133-.141.055-.712.219-.583.196-.322.057-.302.071-.609-.109.232.136-.134-.228.081.095-.079-.119-.147-.244-.211-.371.112.221.045.153.001-.039-.05-.217-.116-.428-.153-.648.078.455.016-.171.009-.324-.005-.1.02-.203.011-.302.005.053-.119.397-.026.177.032-.074.031-.17.057-.247.119-.352-.109.215.075-.177.531-1.13,1.054-2.264,1.602-3.386.943-1.932,1.944-3.834,2.906-5.755.58-1.158.308-2.6-.861-3.284-1.065-.623-2.701-.302-3.284.861h0Z"/><path class="f" d="M207.154,112.089c3.345-2.995,6.28-6.379,8.859-10.052,1.672-2.38,3.28-4.898,4.488-7.551.537-1.179.337-2.583-.861-3.284-1.031-.603-2.744-.324-3.284.861-1.169,2.569-2.718,5.007-4.326,7.32-2.35,3.378-5.127,6.496-8.27,9.311-.966.865-.881,2.513,0,3.394.96.96,2.426.867,3.394,0h0Z"/><path class="f" d="M142.938,21.021c-5.38,6.954-7.931,15.299-8.822,23.969-.873,8.496-.133,17.393,1.88,25.681.729,3,5.359,1.73,4.629-1.276-1.866-7.68-2.478-15.824-1.776-23.699.667-7.488,2.825-15.259,7.484-21.28.792-1.024.998-2.396,0-3.394-.826-.826-2.596-1.031-3.394,0h0Z"/><path class="f" d="M234.909,73.33c1.973-4.355,2.617-9.181,3.026-13.906.362-4.182.506-8.325-.023-12.499-1.187-9.362-3.842-18.463-9.744-25.97-6.565-8.349-15.498-14.995-25.576-18.435-7.882-2.69-16.08-3.02-24.277-1.954-5.458.71-10.789,1.894-15.862,4.068-4.849,2.078-9.2,5.119-12.926,8.847-2.187,2.188,1.207,5.583,3.394,3.394,6.197-6.2,13.988-9.532,22.538-11.056,7.538-1.344,15.189-1.586,22.574.343,9.402,2.456,17.683,8.001,24.173,15.161,2.814,3.104,5.22,6.491,6.919,10.335,1.72,3.892,2.768,8.1,3.514,12.276.793,4.441.946,8.771.663,13.262-.285,4.522-.644,9.536-2.536,13.713-.534,1.18-.339,2.582.861,3.284,1.029.602,2.746.325,3.284-.861h0Z"/><path class="f" d="M195.572,113.272c-10.385,5.107-22.776,7.782-33.72,2.713-4.983-2.308-9.628-5.68-12.697-10.29-3.091-4.642-4.777-10.015-5.803-15.457-1.435-7.609-2.036-15.381-3.247-23.031-.203-1.281-1.803-1.992-2.952-1.676-1.365.375-1.88,1.667-1.676,2.952,1.159,7.325,1.802,14.738,3.069,22.044,1.036,5.976,2.872,11.996,6.168,17.136,6.732,10.495,19.506,16.376,31.811,15.805,7.581-.352,14.703-2.723,21.47-6.051,1.163-.572,1.482-2.222.861-3.284-.694-1.186-2.116-1.435-3.284-.861h0Z"/><path class="f" d="M223.446,70.369c1.364-.961,2.938-1.178,4.524-.645,1.158.389,1.655.885,2.072,1.656,1.363,2.523.796,6.283-.035,8.933-.881,2.808-2.609,5.573-4.867,7.468-1.918,1.609-5.446,2.977-8.022,1.878-1.191-.508-2.572-.356-3.284.861-.59,1.009-.338,2.772.861,3.284,3.52,1.502,7.421,1.013,10.838-.574,3.121-1.449,5.604-4.427,7.228-7.391,1.66-3.03,2.642-6.257,2.801-9.721.142-3.101-.401-6.574-2.665-8.873-3.002-3.05-8.4-3.468-11.873-1.021-1.058.746-1.555,2.098-.861,3.284.612,1.047,2.219,1.611,3.284.861h0Z"/><path class="f" d="M191.441,72.727c.712,2.139.392,7.105-3.679,7.619-5.395.09-5.818-5.895-4.066-8.753,1.434-2.34,5.784-3.398,7.746,1.134Z"/><path class="f" d="M158.966,72.528c.659,2.077.379,6.894-3.355,7.382-4.949.073-5.353-5.735-3.754-8.503,1.31-2.266,5.297-3.282,7.109,1.121Z"/><path class="f" d="M167.066,82.307c-.674,1.206-1.31,2.433-1.882,3.691-.327.718-.583,1.334-.604,2.137-.026.956.423,1.867,1.151,2.47.564.468,1.198.882,1.931,1.026.47.092.933.104,1.403.16.568.068,1.311-.317,1.697-.703.416-.416.73-1.099.703-1.697-.028-.621-.232-1.264-.703-1.697l-.486-.375c-.374-.217-.778-.326-1.211-.328-.211-.025-.424-.027-.636-.053l.638.086c-.189-.028-.368-.077-.544-.151l.573.242c-.164-.077-.312-.17-.457-.279l.486.375c-.105-.086-.207-.173-.299-.274l.375.486c-.032-.04-.059-.082-.08-.128l.242.573c-.03-.073-.048-.138-.062-.216l.086.638c-.009-.108-.006-.209.008-.316l-.086.638c.036-.199.098-.385.175-.572l-.242.573c.578-1.329,1.261-2.618,1.969-3.883.308-.55.411-1.237.242-1.849-.153-.557-.584-1.16-1.103-1.434-1.132-.598-2.629-.309-3.284.861h0Z"/><path class="f" d="M192.973,45.597c5.332,2.861,9.46,7.533,12.363,12.786,1.584,2.868,2.886,5.881,4.11,8.917.672,1.668,1.125,3.474,2.779,4.447,1.7,1.001,3.789.758,5.344-.387,1.042-.767,1.564-2.081.861-3.284-.601-1.028-2.234-1.634-3.284-.861-.028.021-.713.341-.453.421.15.046-.051-.194-.131-.394-.163-.406-.324-.813-.488-1.219-.641-1.59-1.299-3.174-1.991-4.743-1.169-2.651-2.455-5.259-4.017-7.702-3.155-4.933-7.487-9.345-12.67-12.126-2.722-1.46-5.149,2.682-2.423,4.145h0Z"/><path class="f" d="M144.232,60.393c5.819-5.304,12.266-10.496,19.354-14,.357-.176.799-.308,1.127-.531.606-.411-.239.038-.512-.039l-.534-.37.013.1c-.073.085.047.768.047.962,0,.523-.037,1.045-.052,1.567-.052,1.906.522,3.988,2.725,4.265,1.427.179,2.935-.684,4.191-1.255,1.538-.7,3.05-1.459,4.566-2.206,4.116-2.027,8.246-4.093,12.608-5.544,2.917-.97,1.667-5.608-1.276-4.629-4.124,1.372-8.074,3.249-11.974,5.154-1.706.833-3.402,1.686-5.115,2.504-.627.3-1.257.596-1.895.873-.447.194-.12.048-.026.011-.12.048-.24.099-.362.143-.1.036-.232.072-.331.121-.075.026-.15.051-.225.075-.82.239-.178.666,1.925,1.282-.125-.013.062-.51-.012.012.022-.154-.008-.372-.007-.52.003-.402.032-.803.044-1.204.034-1.069.031-2.222-.31-3.246-.395-1.185-1.272-2.209-2.47-2.62-1.246-.428-2.289-.092-3.443.421-3.671,1.633-7.062,3.921-10.31,6.265-3.872,2.795-7.613,5.798-11.143,9.016-2.288,2.086,1.114,5.472,3.394,3.394h0Z"/><path class="f" d="M195.86,306.872c7.83-3.27,15.592-6.704,23.358-10.12,8.967-3.945,17.923-7.913,26.866-11.912,2.995-1.339,5.992-2.674,8.974-4.043,1.178-.541,1.469-2.244.861-3.284-.707-1.21-2.101-1.404-3.284-.861-15.649,7.186-31.447,14.073-47.236,20.945-2.115.92-4.231,1.838-6.35,2.748-.886.38-1.772.76-2.659,1.137-.198.084-1.359.575-.761.323-.349.147-.697.293-1.046.439-1.195.499-2.051,1.589-1.676,2.952.31,1.128,1.749,2.179,2.952,1.676h0Z"/><path class="e" d="M37.551,209.075c30.789.512,101.072.671,126.168.839,3.817.026,7.178,2.501,8.329,6.14,5.972,18.886,19.399,61.642,25.719,81.855,1.138,3.64-1.586,7.331-5.4,7.317-27.194-.096-100.462-.36-128.631-.93-2.429-.049-4.546-1.642-5.264-3.963-5.555-17.963-19.82-63.232-26.392-83.911-1.169-3.677,1.613-7.411,5.471-7.347Z"/><path class="f" d="M37.551,211.475c14.38.238,28.762.33,43.143.423,16.799.108,33.598.184,50.397.257,7.067.031,14.134.061,21.201.096,2.76.013,5.52.028,8.28.044,3.068.018,6.222-.167,8.25,2.622.941,1.293,1.278,2.939,1.753,4.442.472,1.493.943,2.986,1.414,4.479,1.124,3.564,2.247,7.128,3.369,10.692,2.607,8.283,5.212,16.567,7.814,24.852,2.564,8.163,5.126,16.326,7.685,24.491,1.079,3.443,2.158,6.886,3.236,10.329.776,2.48,3.053,6.784-.324,8.328-1.138.52-2.601.294-3.829.289-1.325-.005-2.65-.009-3.975-.014-3.057-.011-6.114-.022-9.171-.034-7.309-.028-14.617-.059-21.926-.092-16.627-.077-33.255-.167-49.882-.296-13.491-.105-26.983-.206-40.471-.469-1.505-.029-2.928-.387-3.617-1.89-.542-1.181-.81-2.581-1.196-3.822-.964-3.102-1.931-6.203-2.901-9.304-2.421-7.745-4.851-15.486-7.285-23.227-4.784-15.212-9.578-30.421-14.403-45.621-.421-1.327-1.204-2.86-.774-4.241.454-1.457,1.712-2.314,3.211-2.334,3.086-.04,3.095-4.84,0-4.8-5.086.066-8.996,4.662-7.955,9.717.322,1.562.942,3.101,1.424,4.62.524,1.652,1.048,3.304,1.571,4.957,2.503,7.903,4.999,15.808,7.491,23.714,4.937,15.662,9.871,31.326,14.747,47.007,1.103,3.547,1.849,7.463,5.562,9.211,2.807,1.321,6.541.858,9.591.906,6.846.107,13.692.182,20.538.249,16.911.164,33.823.267,50.735.355,14.978.078,29.957.14,44.936.194,1.351.005,2.701.01,4.052.015,1.725.006,3.445.092,5.08-.562,2.299-.918,4.057-2.821,4.779-5.197.653-2.148.116-4.154-.528-6.212-2.311-7.389-4.627-14.776-6.945-22.163-5.215-16.622-10.435-33.243-15.674-49.858-1.014-3.215-1.781-6.721-3.215-9.777-2.032-4.329-6.346-6.313-10.931-6.343-5.978-.038-11.957-.065-17.935-.092-16.598-.075-33.197-.142-49.795-.233-16.192-.088-32.384-.183-48.574-.381-2.984-.036-5.968-.077-8.952-.127-3.09-.051-3.091,4.749,0,4.8Z"/><path class="f" d="M168.662,103.387c.028-.014.271-.109.272-.129-.003.047-.505.188-.141.064.206-.07.409-.146.617-.208.47-.141.95-.249,1.434-.331.065-.011.469-.077.126-.024s.067-.006.133-.012c.244-.026.489-.045.734-.059.523-.029,1.048-.033,1.571-.008.243.011.486.029.728.053.098.01.263.062.358.04-.131.03-.439-.07-.111-.009.446.084.887.175,1.321.308.203.062.401.137.601.211.426.157-.215-.108.056.023.122.059.249.112.372.17.556.263,1.095.558,1.62.879,1.072.656,2.687.269,3.284-.861.618-1.17.284-2.583-.861-3.284-2.275-1.392-4.7-2.205-7.367-2.331-2.444-.115-4.963.287-7.17,1.363-1.131.552-1.527,2.251-.861,3.284.748,1.16,2.074,1.451,3.284.861h0Z"/><path class="f" d="M197.532,63.542c-.139-.009-.278-.022-.416-.039l.638.086c-.555-.075-1.092-.224-1.607-.441l.573.242c-.492-.214-.952-.486-1.376-.814l.486.375c-.384-.304-.729-.647-1.032-1.032l.375.486-.042-.055c-.151-.28-.357-.504-.618-.673-.232-.212-.504-.355-.816-.43-.574-.158-1.339-.087-1.849.242-.512.33-.964.822-1.103,1.434-.133.583-.141,1.351.242,1.849.398.519.785,1.02,1.288,1.441.483.405.995.797,1.553,1.094,1.167.621,2.389.952,3.706,1.034.591.037,1.288-.294,1.697-.703.416-.416.73-1.099.703-1.697-.028-.621-.232-1.264-.703-1.697-.486-.446-1.035-.662-1.697-.703h0Z"/><path class="f" d="M147.532,122.625c-6.233,2.52-12.768,5.041-17.851,9.584-4.377,3.912-6.506,9.258-8.076,14.798-.798,2.816-1.223,5.762-1.745,8.639-.601,3.316-1.162,6.64-1.679,9.97-1.168,7.517-2.132,15.068-2.846,22.642-.397,4.214-.744,8.439-.685,12.676.044,3.163.411,6.407,2.075,9.167,1.593,2.642,5.745.232,4.145-2.423-1.184-1.965-1.387-4.374-1.419-6.744-.048-3.426.169-6.848.466-10.259.616-7.08,1.452-14.141,2.496-21.17.951-6.4,2.05-12.781,3.318-19.126.465-2.328,1.242-4.591,2.086-6.806.816-2.141,1.729-4.218,3.256-5.958,4.58-5.22,11.458-7.822,17.735-10.36,1.201-.486,2.048-1.599,1.676-2.952-.313-1.139-1.743-2.165-2.952-1.676h0Z"/><path class="e" d="M174.658,145.94c-.542-.451-1.102-.798-1.684-1.04.594-1.5.975-2.464.975-2.464.535-1.35.019-3.554-1.093-4.725-.952-1.003-2.253-1.396-3.648-1.478.646-1.352,1.055-2.207,1.055-2.207.464-.971.472-2.936,0-3.974-.25-.55-.779-1.395-1.266-1.751-.677-.494-2.458-.504-3.292-.422-4.967.488-9.309,1.366-13.517,2.884.564-1.256.852-2.023,1.608-3.332.83-1.416,2.342-2.182,3.736-2.959,2.651-1.48,5.365-3.087,7.898-4.758,1.895-1.256,1.959-3.161,1.054-4.716-.575-1.001-1.29-1.53-2.491-1.82-2.337-.565-5.328.351-7.999,1.416-2.64,1.054-6.552,2.48-8.681,4.471-2.544,2.374-3.545,5.557-4.716,8.665-.649,1.714-2.022,6.578-2.587,8.335l-.691,4.092c-.196,1.158-.144,2.344.15,3.481,1.705,6.583,3.392,13.167,5.09,19.763.692,2.714,1.394,5.461,1.756,8.239l.05,2.758c6.008.614,14.136,1.492,20.422,2.328.177-.973.311-1.727.328-1.882.181-1.48.341-3.96.404-5.439.076-1.913.069-4.973.053-7.937.239.282.382.452.382.452.422,1.182,1.182,2.138,2.329,2.482.909.273,1.893.35,2.741-.076,1.277-.642,2.113-1.954,2.504-3.329.392-1.375.539-3.023.599-4.451.107-2.547.093-4.332.1-7.046.004-1.354-.531-2.691-1.572-3.557Z"/><path class="f" d="M142.327,136.701c.881-2.77,1.588-5.603,2.587-8.335.699-1.912,1.372-3.854,2.449-5.593.986-1.591,2.31-2.658,3.94-3.537,1.617-.872,3.326-1.537,5.032-2.211,1.893-.748,3.928-1.595,5.993-1.618,1.065-.012,2.501.39,2.322,1.618-.051.348-.548.694-1.003.989-1.033.671-2.078,1.321-3.133,1.956-2.109,1.27-4.434,2.323-6.422,3.776-2.043,1.494-2.974,3.555-3.975,5.803-.527,1.183-.344,2.579.861,3.284,1.023.598,2.754.329,3.284-.861.443-.995.861-2.003,1.394-2.954.514-.918,1.216-1.41,2.114-1.931,2.387-1.386,4.801-2.713,7.138-4.185,2.201-1.387,4.422-2.86,4.532-5.73.086-2.254-1.187-4.543-3.139-5.663-4.418-2.535-10.304.426-14.468,2.196-2.129.905-4.207,1.921-5.972,3.442-1.858,1.602-3.107,3.797-4.056,6.025-1.698,3.985-2.798,8.135-4.107,12.253-.938,2.951,3.694,4.214,4.629,1.276h0Z"/><path class="f" d="M138.866,176.056c3.966.368,7.929.776,11.891,1.196,5.311.564,11.154,1.212,16.121,1.882,2.262.305,4.53.619,6.768,1.074l-1.762-2.314c-.285,4.19-.516,8.382-.932,12.562-.582,5.842-1.509,11.639-2.605,17.405-.242,1.272.355,2.589,1.676,2.952,1.172.322,2.709-.396,2.952-1.676,1.156-6.084,2.12-12.207,2.745-18.37.434-4.283.672-8.579.964-12.873.067-.983-.788-2.116-1.762-2.314-4.68-.954-9.47-1.455-14.209-2.016-5.423-.642-10.853-1.22-16.286-1.766-1.853-.186-3.706-.37-5.56-.542-1.292-.12-2.4,1.189-2.4,2.4,0,1.398,1.104,2.28,2.4,2.4h0Z"/><path class="f" d="M144.677,136.984c4.62-2.707,9.509-4.672,14.758-5.764,2.369-.493,4.915-1.027,7.346-.979.326.006.863.212,1.159.165-.304.049-.304-.376-.291-.091.005.113.369.549.402.63.314.762.204,1.703-.1,2.443-.493,1.199.534,2.639,1.676,2.952,1.377.378,2.457-.472,2.952-1.676,1.124-2.734.216-6.805-2.369-8.436-2.527-1.595-6.501-.575-9.207-.152-6.656,1.042-12.94,3.361-18.748,6.764-2.664,1.561-.251,5.711,2.423,4.145h0Z"/><path class="f" d="M152.526,142.26c4.276-1.802,8.842-2.651,13.399-3.398,1.435-.235,3.247-.531,4.527.038,1.098.488,1.511,1.932,1.184,2.898-.992,2.932,3.642,4.191,4.629,1.276.791-2.337-.014-5.304-1.71-7.06-1.808-1.872-4.509-2.35-7.007-2.161-2.692.204-5.406.764-8.047,1.311-2.819.584-5.594,1.348-8.251,2.467-1.194.503-2.052,1.586-1.676,2.952.309,1.125,1.75,2.183,2.952,1.676h0Z"/><path class="f" d="M155.822,149.488c3.624-.787,7.255-1.547,10.909-2.184,1.389-.242,2.994-.711,4.362-.49,1.279.207,2.242.933,2.545,1.959.399,1.35.196,3.214.175,4.763-.022,1.686-.018,3.402-.237,5.076-.145,1.106-.396,2.601-1.24,3.324-.837.717-1.772.097-2.064-.657-.468-1.208-1.612-2.045-2.952-1.676-1.154.317-2.147,1.737-1.676,2.952.71,1.832,1.816,3.363,3.726,4.06,1.894.691,4.002.488,5.629-.719,3.159-2.344,3.438-6.537,3.563-10.153.064-1.858.106-3.728.068-5.587-.034-1.661-.381-3.431-1.341-4.821-1.056-1.53-2.822-2.626-4.613-3.08-1.933-.491-3.803-.156-5.73.166-4.157.695-8.282,1.545-12.399,2.439-1.267.275-2.006,1.752-1.676,2.952.36,1.309,1.681,1.952,2.952,1.676h0Z"/><path class="f" d="M169.187,176.927c.764-3.626.782-7.467.796-11.161.014-3.571-.057-7.142-.019-10.713.033-3.09-4.767-3.092-4.8,0-.037,3.474.029,6.948.019,10.421-.009,3.349.067,6.889-.626,10.177-.267,1.267.373,2.594,1.676,2.952,1.192.328,2.684-.402,2.952-1.676h0Z"/><path class="f" d="M142.254,132.841c-2.458,1.555-4.695,4.079-5.231,7.025-.649,3.575.91,7.393,1.79,10.815.94,3.656,1.879,7.313,2.82,10.969.904,3.514,1.877,7.024,2.371,10.626.176,1.285,1.821,1.987,2.952,1.676,1.386-.381,1.853-1.663,1.676-2.952-.889-6.49-2.949-12.877-4.578-19.211-.408-1.589-.817-3.178-1.226-4.767-.387-1.505-.935-3.052-1.126-4.598-.285-2.305,1.032-4.21,2.975-5.438,2.604-1.647.198-5.802-2.423-4.145h0Z"/><path class="f" d="M282.845,96.638c3.164.925,6.738,1.787,9.97.655,2.637-.924,4.978-3.146,5.579-5.943,1.45-6.747-7.276-10.054-12.473-10.849-1.434-.219-3.041-.509-4.397.177-1.555.787-2.369,2.474-1.894,4.187.863,3.111,4.666,4.317,7.363,5.248,5.104,1.763,11.372,2.809,16.389.213,2.141-1.108,3.834-3.096,4.323-5.485.662-3.231-.801-6.537-3.129-8.754-2.207-2.101-5.029-3.438-7.732-4.771-2.538-1.251-5.153-2.43-7.886-3.187-2.574-.712-5.272-1.037-7.941-1.022-2.869.016-7.366.071-7.502,3.965-.11,3.166,2.968,4.959,5.373,6.258,2.488,1.344,5.057,2.543,7.701,3.548,5.236,1.991,10.758,2.925,16.321,3.413,2.878.252,5.719.054,8.313-1.345,2.576-1.39,4.461-4.023,4.633-6.984.335-5.771-5.736-10.102-10.108-12.637-5.133-2.977-10.871-5.426-16.573-7.063-4.271-1.226-10.253-2.698-14.356-.188-1.645,1.006-3.043,2.952-2.496,4.949.388,1.415,1.503,2.435,2.646,3.266,2.827,2.056,6.405,3.211,9.698,4.27,4.54,1.46,9.191,2.585,13.863,3.534,4.745.964,9.552,1.772,14.375,2.223,4.654.435,10.838-2.323,11.638-7.407.406-2.58-1.01-4.872-2.575-6.797-1.587-1.953-3.556-3.639-5.651-5.025-2.589-1.713-5.535-3.029-8.357-4.305-2.956-1.336-5.98-2.545-9.097-3.456-2.912-.851-5.889-1.404-8.908-1.691-1.292-.123-2.4,1.191-2.4,2.4,0,1.4,1.104,2.277,2.4,2.4,4.867.463,9.627,1.941,14.114,3.844,4.199,1.781,8.784,3.718,12.201,6.813,1.311,1.187,2.758,2.591,3.435,4.267-.072-.178.135.568.164.649-.079-.222-.002-.026-.055.196-.147.61-.578,1.178-1.135,1.656-2.67,2.287-6.104,1.676-9.282,1.247-7.764-1.048-15.541-2.679-23.015-5.039-2.894-.914-5.26-1.691-7.772-3.14-.244-.141-.486-.287-.722-.443-.072-.047-.67-.479-.38-.254.287.222-.25-.22-.332-.3-.093-.091-.495-.586-.248-.241.26.363-.066-.13-.111-.236-.004-.009.227.619.136.289-.06-.215.049-.229.035.357.007-.297-.038-.426-.161.628.008-.065.187-.345.212-.363-.234.163.197-.146.203-.149.375-.254.697-.358,1.438-.506.489-.098,1.503-.13,2.279-.102,2.027.073,4.024.497,5.98,1.015,4.605,1.219,9.079,3.097,13.339,5.213,3.568,1.772,7.549,3.863,9.801,7.271,1.08,1.635,1.428,3.374-.122,4.873-1.219,1.179-3.033,1.623-4.687,1.646-4.369.06-9.023-.834-13.219-2.002-4.245-1.182-8.226-3.009-12.057-5.169-.36-.203-.733-.391-1.053-.654-.027-.023-.631-.679-.633-.679l-.003.041c-.021.339-.174.639-.46.9.035.028.147-.033.177-.015.325.194,1.776-.116,2.171-.128,2.056-.061,4.106.055,6.118.495,4.265.934,8.339,2.973,12.111,5.122,1.879,1.071,3.817,2.42,4.483,4.589.468,1.522-.094,2.826-1.178,3.6-3.118,2.228-7.853,1.342-11.278.424-1.175-.315-2.334-.694-3.465-1.142-.514-.204-1.021-.426-1.518-.668-.069-.033-1.298-.86-1.275-.866-.108.026-.152,1.122-.279,1.283-.513.649-.765.171-.235.286.445.097.94.078,1.394.15,1.276.204,2.539.547,3.753.987,1.509.547,4.35,1.576,4.86,3.314.442,1.506-1.232,2.86-2.485,3.276-2.268.753-4.895-.125-7.08-.764-2.971-.868-4.24,3.762-1.276,4.629h0Z"/></g></g></svg>