<?xml version="1.0" encoding="UTF-8"?><svg id="b" xmlns="http://www.w3.org/2000/svg" width="173.001" height="469.537" viewBox="0 0 173.001 469.537"><defs><style>.h{fill:#3d8dcc;}.i{fill:#211715;}.j{fill:#fff;}.k{fill:#c6c6c6;}.l{fill:#645d5c;}</style></defs><g id="c"><g id="d"><path class="j" d="M61.574,420.67c-.482-19.484-1.322-78.91-3.057-107.733-1.659-27.567-3.465-61.053-5.099-78.573,19.44.004,71.663.058,88.514.064-.197,3.499-.388,7.026-.388,7.026-1.374,18.407-2.568,47.086-4.037,71.483-1.986,32.997-2.8,106.105-3.245,113.47-4.933,1.645-26.926,1.411-36.318-.541-.317.057-.625.116-.625.116-11.441,2.187-30.624,2.071-35.557.426-.056-.932-.119-2.916-.188-5.738Z"/><path class="j" d="M125.023,75.126c-2.009,3.76-6.584,10.389-12.186,13.708.027,1.824.17,3.944.408,5.936,0,0-.295,12.161-15.879,12.161s-15.928-12.239-15.928-12.239c.225-2.016.365-4.269.408-6.044-2.574-1.541-4.968-3.664-7.156-6.282-3.158-3.78-4.941-7.986-5.988-11.688-.735-.113-1.18-.182-1.18-.182-1.336-.205-2.593-.813-3.62-1.632-1.337-1.081-2.299-2.501-3.037-3.985-1.515-3.045-2.174-6.451-1.884-9.793.079-.848.217-1.717.646-2.48.606-1.088,1.811-1.887,3.135-2.084s2.74.219,3.695,1.081c0,0-4.392-26.723,30.591-26.723,33.234,0,31.386,26.723,31.386,26.723.955-.862,2.371-1.279,3.695-1.081s2.529.996,3.135,2.084c.428.763.566,1.632.646,2.48.29,3.342-.369,6.748-1.884,9.793-.738,1.484-1.699,2.904-3.037,3.985-1.027.819-2.284,1.427-3.62,1.632,0,0-.225.035-.621.099-.297,1.11-.63,2.046-.794,2.543-.178.483-.494,1.167-.933,1.988Z"/><path class="l" d="M123.358,16.653c4.749,2.607,7.094,7.12,8.624,11.03,2.241,5.726,2.853,15.36.503,22.906-.117-.027-.235-.05-.354-.068-1.324-.198-2.74.219-3.695,1.081l-3.475-3.783c-.78-1.947-1.362-3.497-2.142-5.444-.528-1.318-1.45-3.678-2.229-4.949-.74-1.208-2.248-.89-3.629-1.133-4.483-.79-3.537-1.777-6.865-4.661-4.512,4.858-9.316,6.859-15.489,8.79-3.322,1.039-9.313,2.038-13.404,1.904-4.108,2.377-10.118,4.235-13.808,5.391l-.935,3.885c-.955-.862-2.371-1.279-3.695-1.081-.134.02-.266.046-.396.081l-.392-1.035c-2.305-6.087-2.185-15.94-.338-22.859,1.9-7.119,6.362-14.027,12.685-16.913l5.669-3.877c5.522-4.775,21.949-4.433,27.583-2.421,5.377,1.92,9.467,5.324,11.424,9.299l4.36,3.858Z"/><path class="i" d="M129.849,53.016c1.046-.875,2.863-.687,3.614.476.484.75.486,1.81.508,2.67.028,1.077-.028,2.163-.222,3.223-.7,3.832-2.654,8.419-6.911,9.183-1.064.191-1.664,1.487-1.397,2.46.308,1.121,1.393,1.588,2.46,1.397,6.451-1.157,9.527-8.443,10.012-14.29.249-2.994.014-6.424-2.577-8.366-2.549-1.91-5.938-1.57-8.316.419-.829.693-.716,2.112,0,2.828.821.821,1.997.695,2.828,0h0Z"/><path class="i" d="M125.323,67.058c-.066,1.618-.513,3.184-1.017,4.715-.091.278-.196.553-.279.833-.037.125-.198.479.023-.033-.143.33-.298.655-.459.976-.968,1.923-2.146,3.749-3.414,5.487-2.981,4.088-7.027,8.419-12.133,9.617-2.505.588-1.445,4.446,1.063,3.857,6.072-1.425,10.784-6.39,14.356-11.227,3.086-4.179,5.644-8.914,5.859-14.225.104-2.574-3.896-2.569-4,0h0Z"/><path class="i" d="M67.872,50.187c-2.381-1.991-5.763-2.325-8.316-.419-2.593,1.936-2.826,5.376-2.577,8.366.485,5.846,3.562,13.133,10.012,14.29,1.062.19,2.156-.288,2.46-1.397.266-.968-.328-2.269-1.397-2.46-4.257-.763-6.212-5.351-6.911-9.183-.183-1.002-.241-2.026-.225-3.044.014-.875.005-1.936.436-2.726.692-1.27,2.609-1.502,3.689-.599.828.692,2.017.812,2.828,0,.712-.712.832-2.132,0-2.828h0Z"/><path class="i" d="M65.779,66.776c1.096,6.278,3.497,12.268,7.637,17.169,4.296,5.087,9.983,8.767,16.682,9.49,1.076.116,2-1.002,2-2,0-1.178-.921-1.884-2-2-5.756-.621-10.565-4.303-14.137-8.658-3.521-4.293-5.382-9.659-6.326-15.065-.186-1.065-1.49-1.663-2.46-1.397-1.124.309-1.583,1.392-1.397,2.46h0Z"/><path class="i" d="M120.724,11.785C114.649-.193,98.594-1.313,86.964.945c-3.003.583-6.016,1.565-8.388,3.558-1.974,1.657.868,4.474,2.828,2.828,1.396-1.172,3.762-1.904,5.747-2.347,2.686-.6,5.441-.826,8.189-.875,4.9-.088,9.971.195,14.394,2.492,3.165,1.644,5.908,3.991,7.537,7.203,1.165,2.296,4.617.274,3.454-2.019h0Z"/><path class="i" d="M73.311,8.067c-7.195,3.38-11.784,10.974-13.694,18.451-1.005,3.935-1.412,8.076-1.368,12.132.042,3.845.46,7.822,1.796,11.448.883,2.395,4.75,1.36,3.857-1.063-2.405-6.527-2.146-14.427-.515-21.106s5.512-13.388,11.942-16.408c2.328-1.094.3-4.543-2.019-3.454h0Z"/><path class="i" d="M122.348,18.38c4.641,2.626,7.341,7.682,8.616,12.72,1.493,5.902,1.412,12.419-.207,18.281-.686,2.485,3.172,3.545,3.857,1.063,1.834-6.642,1.893-14.086.118-20.752-1.571-5.9-4.939-11.696-10.365-14.767-2.243-1.27-4.262,2.185-2.019,3.454h0Z"/><path class="i" d="M109.628,29.149c-3.501,4.074-7.8,6.694-12.84,8.452-4.955,1.728-10.211,2.834-15.481,2.729-2.575-.051-2.575,3.949,0,4,5.724.114,11.521-1.085,16.893-2.995,5.537-1.968,10.397-4.868,14.257-9.358,1.67-1.943-1.147-4.785-2.828-2.828h0Z"/><path class="i" d="M88.187,35.149c-2.967,2.51-6.533,4.384-10.003,6.092-3.649,1.795-7.422,3.383-11.323,4.548-2.461.735-1.413,4.596,1.063,3.857,4.225-1.261,8.326-3.007,12.278-4.951,3.8-1.87,7.567-3.972,10.813-6.717.825-.698.719-2.109,0-2.828-.817-.817-2.001-.7-2.828,0h0Z"/><path class="i" d="M109.476,33.791c1.621,1.679,3.567,3.199,5.745,4.065,1.141.453,2.472.35,3.498.615.103.026.311.124.143-.016.08.066.205.335.283.479.299.552.56,1.124.812,1.699,1.766,4.022,3.461,8.079,6.095,11.642.641.867,1.733,1.304,2.736.718.855-.5,1.363-1.863.718-2.736-1.355-1.833-2.463-3.867-3.518-5.882-.259-.495-.513-.993-.757-1.496-.12-.247-.237-.495-.352-.744-.066-.142-.223-.502-.075-.154-.51-1.206-.971-2.431-1.506-3.626-.543-1.212-1.108-2.524-2.286-3.248-1.129-.694-2.427-.554-3.638-.767-1.945-.342-3.738-2.001-5.067-3.378-1.791-1.855-4.618.975-2.828,2.828h0Z"/><path class="i" d="M79.793,89.313c-.036,1.858-.165,3.721-.431,5.562-.198,1.373-.358,2.805-.695,4.153-.031.125-.065.25-.103.373-.017.056-.159.47-.055.193.103-.274-.061.123-.09.178-.073.138-.158.265-.24.398.142-.229.109-.117-.039.034-.099.101-.2.199-.303.297-.333.315.25-.103-.187.129-.15.08-.292.175-.444.254-.337.176-.756.322-1.218.513-.61.252-1.219.508-1.826.767-.994.423-1.214,1.888-.718,2.736.602,1.028,1.739,1.143,2.736.718.251-.107.161-.068-.039.016.149-.062.297-.125.446-.187.291-.121.581-.243.873-.361.688-.279,1.396-.52,2.038-.898,1.455-.858,2.465-2.183,2.944-3.798.409-1.378.547-2.897.756-4.315.331-2.243.55-4.495.594-6.763.021-1.081-.934-2-2-2-1.102,0-1.979.916-2,2h0Z"/><path class="i" d="M110.778,89.313c.047,2.393.285,4.771.65,7.135.218,1.412.329,2.956.82,4.307.607,1.671,1.776,2.967,3.391,3.729.614.29,1.26.515,1.891.764.322.127.644.255.965.385.152.061.303.124.455.185.487.195-.238-.105.02.007.99.429,2.145.293,2.736-.718.494-.845.279-2.305-.718-2.736-1.038-.45-2.092-.872-3.15-1.272-.257-.097-.501-.22-.834-.415-.11-.064-.367-.246-.136-.067-.135-.105-.264-.227-.382-.35-.04-.041-.319-.395-.157-.17.157.218-.115-.206-.142-.255-.062-.112-.118-.226-.171-.343.207.457.015-.012-.011-.096-.398-1.28-.518-2.696-.722-4.017-.31-2.009-.468-4.04-.507-6.072-.021-1.08-.904-2-2-2-1.068,0-2.021.915-2,2h0Z"/><path class="h" d="M138.571,234.434c-20.422-.017-71.009-.069-87.358-.069.47-9.63,3.04-37.327,3.568-42.24l-15.259-63.891c.844-5.629,3.188-10.847,5.334-12.172,1.479-1.18,3.132-2.405,4.794-3.309,8.857-4.817,16.557-8.84,26.579-13.019,1.168-2.329,2.766-4.735,4.826-6.629,3.814,3.866,8.68,7.182,13.334,9.293.276.125.584.278.673.568h4.265c.089-.29.397-.443.673-.568,4.654-2.111,9.52-5.427,13.334-9.293,1.607,1.478,2.933,3.267,3.993,5.089,11.942,4.747,20.424,9.153,30.363,14.558,1.662.904,4.701,2.211,6.717,5.618,3.852,5.037,15.278,40.674,16.197,49.187.515,4.77.574,8.92-.094,14.825-2.454,12.64-16.603,9.898-20.881,9.753-1.375-.046-3.946-.447-7.175-1.072.137,3.719.258,7.011.258,7.011.393,10.573,1.629,31.929,1.76,36.364-1.468,0-3.471-.003-5.903-.005Z"/><path class="i" d="M96.223,185.678c.164,14.775.303,29.55.413,44.325.011,1.407.026,2.813.027,4.22.002,2.574,4.002,2.578,4,0-.008-11.26-.176-22.522-.287-33.781-.048-4.921-.099-9.843-.154-14.764-.029-2.572-4.029-2.579-4,0h0Z"/><path class="i" d="M95.285,104.496c.008,12.687.245,25.377.384,38.062.028,2.572,4.028,2.579,4,0-.14-12.686-.376-25.376-.384-38.062-.002-2.574-4.002-2.578-4,0h0Z"/><path class="j" d="M102.799,428.448c-.139-.131-.275-.263-.407-.395v-1.486c6.121.74,14.384,1.047,21.093.899.05.144.081.226.081.226.347,1.405.794,2.785,1.346,4.122-.314.768-.91,1.449-1.623,1.888-1.26.776-2.798.94-4.278.966-6.661.116-12.645-2.864-16.212-6.219Z"/><path class="j" d="M71.929,432.703c-.21-.274-.383-.572-.508-.884.556-1.374,1.011-2.788,1.357-4.229,6.557.17,14.615-.146,21.159-1.056-.006.867-.006,1.519-.006,1.519-3.508,3.512-9.698,6.734-16.619,6.614-1.48-.026-3.018-.19-4.278-.966-.421-.259-.801-.603-1.105-.998Z"/><path class="l" d="M51.044,463.071c-.116-.152-.226-.308-.329-.47-1.371-2.15-1.372-4.955-.583-7.38s2.281-4.55,3.787-6.608c3.655-4.991,7.522-9.827,11.587-14.49,1.587-1.82,3.38-3.717,5.753-4.164-.383,1.43.513,2.966,1.773,3.742,1.26.776,2.798.94,4.278.966,6.922.12,13.112-3.102,16.619-6.614-.027,4.999.022,6.663,0,11.664-.006,1.218-.016,2.465-.438,3.607-1.028,2.78-4.076,4.119-6.521,5.792-6.363,4.354-9.714,12.299-16.382,16.171-4.779,2.775-10.948,2.996-15.914.57-1.383-.676-2.701-1.571-3.63-2.787Z"/><path class="l" d="M145.278,463.071c.116-.152.226-.308.329-.47,1.371-2.15,1.372-4.955.583-7.38-.789-2.425-2.281-4.55-3.787-6.608-3.655-4.991-7.522-9.827-11.587-14.49-1.587-1.82-3.38-3.717-5.753-4.164.383,1.43-.513,2.966-1.773,3.742-1.26.776-2.798.94-4.278.966-6.922.12-13.112-3.102-16.619-6.614.027,4.999-.022,6.663,0,11.664.006,1.218.016,2.465.438,3.607,1.028,2.78,4.076,4.119,6.521,5.792,6.363,4.354,9.714,12.299,16.382,16.171,4.779,2.775,10.948,2.996,15.914.57,1.383-.676,2.701-1.571,3.63-2.787Z"/><path class="i" d="M51.214,236.365c11.943,0,23.886.012,35.83.022,14.167.012,28.335.024,42.502.035,4.996.004,9.993.008,14.989.008,2.574,0,2.578-4,0-4-10.837,0-21.674-.013-32.511-.022-14.476-.012-28.953-.025-43.429-.035-5.794-.004-11.588-.008-17.381-.008-2.574,0-2.578,4,0,4h0Z"/><path class="i" d="M70.86,427.03c-.36,1.477-.827,2.925-1.399,4.333-.182.448-.031,1.143.202,1.541.243.415.718.811,1.195.919.512.117,1.087.091,1.541-.202l.405-.313c.248-.25.419-.544.514-.883.572-1.409,1.039-2.857,1.399-4.333.125-.513.068-1.08-.202-1.541-.243-.415-.718-.811-1.195-.919-.512-.117-1.087-.091-1.541.202-.431.278-.794.684-.919,1.195h0Z"/><path class="i" d="M90.321,427.011c.007,1.058.018,2.116.026,3.174.004.515.221,1.049.586,1.414.347.347.916.608,1.414.586.517-.023,1.054-.193,1.414-.586.358-.39.59-.874.586-1.414-.007-1.058-.018-2.116-.026-3.174-.004-.515-.221-1.049-.586-1.414-.347-.347-.916-.608-1.414-.586-.517.023-1.054.193-1.414.586-.358.39-.59.874-.586,1.414h0Z"/><path class="i" d="M121.637,428.224c.364,1.463.832,2.897,1.404,4.292.062.26.181.487.358.68.141.218.328.389.561.515.429.251,1.061.357,1.541.202.484-.157.951-.457,1.195-.919.234-.443.401-1.055.202-1.541-.571-1.395-1.04-2.829-1.404-4.292-.119-.481-.496-.948-.919-1.195-.429-.251-1.061-.357-1.541-.202-1.052.341-1.667,1.372-1.397,2.46h0Z"/><path class="i" d="M102.003,426.863l-.023,3.296c-.003.511.226,1.054.586,1.414.347.347.916.608,1.414.586.517-.023,1.054-.193,1.414-.586s.582-.871.586-1.414l.023-3.296c.003-.511-.226-1.054-.586-1.414-.347-.347-.916-.608-1.414-.586-.517.023-1.054.193-1.414.586s-.582.871-.586,1.414h0Z"/><path class="i" d="M51.431,234.451c1.412,15.274,2.25,30.605,3.162,45.915.893,14.986,1.906,29.973,2.547,44.973.557,13.044.916,26.096,1.237,39.148.312,12.705.568,25.412.819,38.118.15,7.592.213,15.194.518,22.782.014.341.028.681.049,1.022.055.919.589,1.645,1.468,1.929,2.09.675,4.384.837,6.56,1.006,3.096.241,6.206.307,9.31.289,6.926-.039,13.934-.438,20.751-1.721,2.527-.476,1.457-4.332-1.063-3.857-6.463,1.217-13.122,1.541-19.687,1.578-3.011.017-6.028-.045-9.032-.268-2.084-.155-3.776-.239-5.774-.885l1.468,1.929c-.391-6.595-.357-13.235-.488-19.838-.246-12.386-.488-24.772-.779-37.157-.312-13.273-.662-26.547-1.181-39.814-.555-14.185-1.488-28.352-2.323-42.522-.949-16.102-1.842-32.217-3.18-48.293-.12-1.445-.246-2.889-.38-4.332-.099-1.076-.848-2-2-2-1.005,0-2.1.918-2,2h0Z"/><path class="i" d="M97.413,427.795c5.042,1.031,10.256,1.349,15.388,1.557,5.358.218,10.758.274,16.109-.135,1.949-.149,4.012-.278,5.884-.881.885-.285,1.414-1.014,1.468-1.929.365-6.149.339-12.337.462-18.494.232-11.637.458-23.275.723-34.912.293-12.841.621-25.683,1.081-38.519s1.249-25.687,1.936-38.531c.882-16.496,1.621-33.003,2.726-49.487.112-1.67.229-3.341.354-5.01.191-2.568-3.81-2.556-4,0-1.189,15.998-1.901,32.031-2.739,48.05-.709,13.558-1.591,27.108-2.116,40.675-.491,12.691-.83,25.388-1.131,38.085-.285,12.01-.523,24.021-.761,36.032-.139,7.041-.201,14.092-.487,21.129-.013.327-.028.654-.047.981l1.468-1.929c-.621.2-1.264.325-1.908.429-.632.102-1.358.179-2.307.261-2.357.202-4.725.282-7.091.317-5.515.081-11.047-.088-16.543-.562-2.489-.215-4.96-.485-7.407-.986-2.513-.514-3.588,3.341-1.063,3.857h0Z"/><path class="i" d="M96.161,266.423c-.449,4.915-.397,9.898-.435,14.828-.056,7.256-.026,14.513.018,21.769.062,10.171.172,20.342.157,30.513-.017,11.349-.045,22.697-.066,34.046-.023,12.64-.045,25.28-.036,37.92.003,4.565.008,9.13.033,13.696.012,2.149-.076,4.337.089,6.481.065.85.301,1.367,1.015,1.917.857.659,2.24.131,2.736-.718.603-1.032.141-2.076-.718-2.736h-.002c.239.238.478.477.718.716.179.332.251,1.395.238.561-.005-.338-.02-.677-.026-1.015-.023-1.224-.032-2.448-.041-3.672-.03-4.218-.036-8.437-.041-12.655-.014-12.291.006-24.582.028-36.874.02-11.677.048-23.354.068-35.031.016-9.425-.051-18.849-.119-28.274-.094-12.976-.423-26.023.218-38.99.041-.829.09-1.658.166-2.485.098-1.077-.99-2-2-2-1.164,0-1.901.92-2,2h0Z"/><path class="i" d="M118.423,100.775c6.638,2.7,13.127,5.735,19.491,9.03,3.004,1.555,5.969,3.181,8.953,4.774,2.326,1.241,4.396,2.495,5.817,4.802,1.347,2.188,4.808.181,3.454-2.019-1.626-2.642-3.932-4.485-6.645-5.919-3.07-1.622-6.11-3.301-9.192-4.901-6.791-3.527-13.726-6.74-20.814-9.623-1.001-.407-2.198.442-2.46,1.397-.314,1.145.392,2.052,1.397,2.46h0Z"/><path class="i" d="M146.476,234.519c-.354-12.242-1.32-24.467-1.772-36.706-.083-2.249-.166-4.499-.248-6.748-.094-2.566-4.095-2.579-4,0,.442,12.005,1.065,23.999,1.677,35.997.127,2.485.272,4.971.344,7.458.074,2.568,4.075,2.579,4,0h0Z"/><path class="i" d="M147.923,124.989c-1.114,6.944-2.553,13.832-3.556,20.794-.899,6.242-1.365,12.531-1.823,18.818-.187,2.568,3.814,2.556,4,0,.444-6.087.863-12.191,1.75-18.233.998-6.8,2.398-13.532,3.487-20.317.171-1.065-.275-2.152-1.397-2.46-.953-.262-2.288.324-2.46,1.397h0Z"/><path class="i" d="M52.782,192.125c-1.196,11.184-2.132,22.409-2.991,33.623-.22,2.87-.434,5.742-.577,8.617-.128,2.573,3.873,2.566,4,0,.597-12.039,1.827-24.066,2.962-36.064.195-2.059.387-4.119.607-6.176.115-1.076-1.002-2-2-2-1.177,0-1.885.921-2,2h0Z"/><path class="i" d="M76.152,97.617c-8.29,3.446-16.328,7.389-24.235,11.637-2.017,1.084-4.057,2.124-5.926,3.454-1.375.978-2.898,1.976-3.95,3.31-2.575,3.264-3.81,7.646-4.446,11.684-.168,1.066.273,2.151,1.397,2.46.95.261,2.291-.324,2.46-1.397.541-3.437,1.447-7.617,3.768-10.353.951-1.121,2.545-2.13,3.915-3.018,1.775-1.151,3.697-2.096,5.561-3.094,7.349-3.934,14.82-7.626,22.52-10.827.997-.414,1.709-1.325,1.397-2.46-.259-.941-1.457-1.814-2.46-1.397h0Z"/><path class="j" d="M107.733,113.941c4.282-4.255,7.086-9.409,10.249-14.557-1.15-2.218-2.69-4.479-4.647-6.278-3.814,3.866-8.68,7.182-13.334,9.293-.276.125-.584.278-.673.568-.077.251.04.516.154.753.173.358,1.326,1.809,2.758,3.561,1.876,2.296,4.232,5.109,5.492,6.661Z"/><path class="j" d="M86.66,113.941c-4.282-4.255-7.086-9.409-10.249-14.557,1.15-2.218,2.69-4.479,4.647-6.278,3.814,3.866,8.68,7.182,13.334,9.293.276.125.584.278.673.568.077.251-.04.516-.154.753-.173.358-1.326,1.809-2.758,3.561-1.876,2.296-4.232,5.109-5.492,6.661Z"/><path class="i" d="M109.147,115.355c3.337-3.354,5.926-7.322,8.37-11.348.603-.994,1.201-1.991,1.806-2.984.371-.608.711-1.165.623-1.906-.075-.63-.503-1.258-.817-1.804-1.185-2.062-2.645-3.994-4.38-5.623-.786-.738-2.045-.786-2.828,0-2.181,2.19-4.576,4.13-7.17,5.811-1.259.816-2.556,1.574-3.889,2.262-1.266.653-3.034,1.117-3.462,2.67-.326,1.183.264,2.237.946,3.142.866,1.149,1.779,2.263,2.69,3.375,1.753,2.141,3.535,4.258,5.282,6.404.682.838,2.12.709,2.828,0,.829-.829.684-1.988,0-2.828-1.458-1.791-2.942-3.561-4.411-5.343-.827-1.003-1.653-2.008-2.463-3.026-.228-.287-.458-.573-.675-.869-.095-.129-.184-.287-.288-.409-.178-.208.044-.247.018.086l-.273,1.009c-.331.273-.346.323-.045.15l.311-.142c.313-.147.625-.295.935-.448.633-.314,1.258-.643,1.875-.988,1.272-.709,2.509-1.481,3.71-2.305,2.468-1.694,4.796-3.601,6.908-5.722h-2.828c1.806,1.696,3.184,3.688,4.334,5.873v-2.019c-3.019,4.924-5.83,10.025-9.936,14.153-1.818,1.827,1.01,4.657,2.828,2.828Z"/><path class="i" d="M88.074,112.527c-4.106-4.127-6.918-9.228-9.936-14.153v2.019c1.15-2.186,2.528-4.178,4.334-5.873h-2.828c2.113,2.122,4.442,4.026,6.908,5.722,1.2.825,2.438,1.595,3.71,2.305.566.316,1.139.619,1.719.909.31.155.621.306.935.454.155.073.31.145.466.215.301.173.287.123-.045-.15l-.273-1.009c-.022-.285.216-.317.018-.086-.086.101-.154.223-.232.331-.233.324-.483.635-.732.947-.81,1.017-1.636,2.022-2.463,3.026-1.469,1.782-2.953,3.552-4.411,5.343-.681.837-.819,2.01,0,2.828.704.704,2.143.842,2.828,0,1.711-2.103,3.457-4.177,5.175-6.273.922-1.125,1.843-2.253,2.725-3.411.71-.933,1.358-2.003,1.019-3.237-.415-1.508-2.074-1.961-3.306-2.59-1.334-.682-2.632-1.433-3.892-2.242-2.652-1.704-5.099-3.677-7.323-5.911-.78-.783-2.041-.74-2.828,0-1.693,1.59-3.124,3.468-4.293,5.472-.305.522-.707,1.104-.868,1.689-.229.834.175,1.495.587,2.171.605.993,1.203,1.99,1.806,2.984,2.444,4.026,5.034,7.995,8.37,11.348,1.818,1.827,4.647-1.001,2.828-2.828Z"/><path class="i" d="M52.771,462.061c-1.764-2.411-1.296-5.449-.01-7.976,1.514-2.974,3.717-5.634,5.739-8.271,2.116-2.76,4.308-5.462,6.559-8.112,1.828-2.153,3.807-5.161,6.732-5.814l-2.46-2.46c-.571,2.943,1.158,5.499,3.883,6.568,2.632,1.032,5.78.761,8.511.323,5.056-.81,9.966-3.258,13.62-6.851l-3.414-1.414c-.022,4.261.165,8.554-.021,12.81-.093,2.138-1.179,3.407-2.893,4.565-1.759,1.189-3.576,2.23-5.202,3.609-6.047,5.129-9.633,13.856-17.855,16.002-4.468,1.166-10.438.409-13.502-3.383-.679-.841-2.122-.707-2.828,0-.831.831-.681,1.985,0,2.828,3.11,3.849,8.921,5.341,13.677,5.006,5.042-.355,9.414-2.628,12.98-6.144,3.201-3.157,5.678-6.959,8.876-10.119,1.601-1.581,3.382-2.737,5.264-3.947,1.842-1.184,3.714-2.58,4.659-4.621,1.259-2.721.856-6.042.849-8.965-.006-2.548-.017-5.095-.004-7.642.009-1.746-2.187-2.621-3.414-1.414-2.595,2.552-5.893,4.34-9.397,5.293-2.03.552-4.109.809-6.213.725-1.137-.045-4.061-.4-3.718-2.166.295-1.521-.904-2.807-2.46-2.46-3.578.798-5.931,3.833-8.189,6.48-2.685,3.147-5.274,6.373-7.782,9.662-4.04,5.297-10.39,13.142-5.439,19.907.637.87,1.736,1.303,2.736.718.859-.502,1.359-1.86.718-2.736Z"/><path class="i" d="M147.005,464.08c4.95-6.764-1.399-14.61-5.439-19.907-2.509-3.289-5.098-6.515-7.782-9.662-2.258-2.648-4.61-5.682-8.189-6.48-1.556-.347-2.755.94-2.46,2.46.343,1.766-2.586,2.12-3.718,2.166-2.105.084-4.183-.172-6.213-.725-3.503-.953-6.802-2.741-9.397-5.293-1.226-1.206-3.423-.333-3.414,1.414.012,2.269.006,4.537-.002,6.805-.008,2.53-.211,5.171.189,7.675.812,5.083,5.969,6.587,9.377,9.571,3.39,2.968,5.897,6.763,8.938,10.058,3.234,3.503,7.199,6.272,11.985,7.069,5.371.895,12.207-.283,15.814-4.747.678-.84.821-2.008,0-2.828-.702-.702-2.146-.845-2.828,0-2.682,3.32-7.738,4.319-11.787,3.739-4.286-.615-7.624-3.079-10.478-6.196-2.743-2.995-5.056-6.374-8.004-9.183-1.496-1.426-3.158-2.608-4.906-3.702-1.437-.899-3.228-1.881-3.929-3.522-.547-1.282-.367-2.864-.371-4.221-.003-1.183-.002-2.366.002-3.549.007-2.323.014-4.646.002-6.97l-3.414,1.414c3.654,3.593,8.564,6.041,13.62,6.851,2.665.427,5.737.699,8.324-.252,2.812-1.034,4.658-3.608,4.07-6.639l-2.46,2.46c2.863.638,4.786,3.527,6.578,5.633,2.305,2.709,4.549,5.471,6.714,8.294,1.98,2.583,4.13,5.187,5.642,8.083,1.343,2.572,1.903,5.682.086,8.164-.638.872-.147,2.231.718,2.736,1.014.593,2.097.157,2.736-.718Z"/><path class="k" d="M2.102,127.857c.283-.791,1.053-1.364,1.965-1.331,15.502.548,60.383,2.756,72.348,3.347,1.378.068,2.518,1.087,2.743,2.448,1.777,10.773,8.278,48.189,10,57.916l.146.826c-.311.169-.631.312-.976.437-.767.276-2.074.443-2.888.396-24.922-1.433-46.689-3.699-71.465-5.167-1.434-.085-2.622-1.142-2.861-2.558-2.042-12.103-7.301-44.011-9.103-55.322-.055-.348-.019-.686.091-.992Z"/><path class="k" d="M87.488,180.712c-.497-2.85-1.056-6.058-1.644-9.444l.913.186,4.401.895c2.55.566,12.73,3.204,16.7,4.648-.638.515-1.11.897-1.11.897-5.066,4.101-14.333,11.076-16.524,12.604-.308.215-.609.403-.919.563l-.146-.824c-.369-2.083-.957-5.436-1.671-9.525Z"/><path class="j" d="M91.253,172.307c2.537.563,12.676,3.19,16.604,4.623,1.194-3.822,2.907-9.251,4.149-13.31-1.678-.56-3.368-1.084-5.068-1.573-1.573-2.724-3.146-5.448-4.719-8.172-.82-1.421-1.702-2.905-3.12-3.73-1.39-.809-3.078-.859-4.687-.887-1.767-.031-3.772-.208-7.03.214l-5.278.65,3.778,21.222,5.37.963Z"/><path class="i" d="M112.693,161.838c-1.736-.589-3.462-1.205-5.222-1.719l1.195.919-3.707-6.421c-1.045-1.809-2.019-3.858-3.602-5.272-1.641-1.466-3.673-1.947-5.822-2.055-2.206-.111-4.431-.066-6.634.083-2.555.172-2.574,4.173,0,4,2.367-.159,4.828-.273,7.195-.046,2.314.223,3.306,1.678,4.397,3.558,1.353,2.332,2.696,4.67,4.045,7.004.376.651.716,1.49,1.392,1.885.558.326,1.307.445,1.916.64,1.268.405,2.523.853,3.783,1.281,2.443.83,3.491-3.033,1.063-3.857h0Z"/><path class="i" d="M152.683,119.38c1.906,2.538,2.805,5.506,3.89,8.303,1.872,4.826,3.552,9.728,5.153,14.65,1.655,5.088,3.221,10.208,4.626,15.371.555,2.041,1.087,4.089,1.552,6.153.181.803.352,1.609.5,2.419.057.313.105.628.159.942.08.462.005.008.01.046.035.295.066.591.096.887.375,3.726.425,7.458.136,11.192-.22,2.838-.668,5.675-2.695,7.822-2.879,3.049-7.286,3.425-11.337,3.301-1.619-.05-3.228-.227-4.845-.316-.561-.031-1.119-.064-1.678-.128-.141-.016-.281-.034-.421-.051-.354-.044.33.05-.153-.022-.425-.064-.849-.127-1.273-.196-4.432-.725-8.825-1.707-13.198-2.721-5.018-1.164-10.018-2.414-14.981-3.796-2.037-.567-4.069-1.154-6.082-1.801-.779-.25-1.556-.509-2.325-.789-.314-.114-.625-.238-.938-.356-.254-.095-.263-.111.016.012-.135-.059-.272-.115-.405-.18-.191-.092-.376-.191-.565-.288-.392-.2-.168-.122-.001.029l.514,1.946c2.224-7.593,5.019-15.043,6.983-22.71l-2.46,1.397c9.004,2.158,18.094,3.959,27.067,6.246,3.573.911,7.491,1.114,11.171,1.306,2.573.135,2.565-3.866,0-4-1.963-.103-3.918-.315-5.872-.526-1.285-.139-2.573-.207-3.824-.532-1.976-.514-3.965-.976-5.953-1.44-5.135-1.198-10.281-2.348-15.424-3.511-2.035-.46-4.072-.915-6.102-1.401-1.036-.248-2.184.321-2.46,1.397-1.965,7.666-4.759,15.117-6.983,22.71-.192.655-.001,1.481.514,1.946.904.816,2.118,1.233,3.237,1.655,1.725.651,3.492,1.194,5.259,1.72,4.908,1.463,9.874,2.739,14.851,3.944,7.948,1.925,15.887,3.736,24.053,4.331,4.502.328,9.312.218,13.371-1.997,2.289-1.248,4.175-3.226,5.297-5.579,1.654-3.469,1.759-7.442,1.831-11.224.193-10.17-2.892-19.851-5.88-29.461-1.66-5.338-3.421-10.648-5.342-15.898-1.416-3.868-2.821-7.856-4.799-11.482-.252-.462-.518-.919-.834-1.34-.648-.862-1.728-1.307-2.736-.718-.85.497-1.37,1.868-.718,2.736h0Z"/><path class="i" d="M89.346,192.515c2.004-1.761,1.455-4.421,1.052-6.718-.329-1.877-.658-3.755-.985-5.632-.832-4.768-1.661-9.536-2.489-14.305-1.648-9.503-3.294-19.006-4.906-28.515-.27-1.592-.539-3.184-.803-4.777-.453-2.727-2.175-4.51-5.004-4.705-3.059-.211-6.131-.302-9.193-.452-9.463-.463-18.926-.92-28.39-1.366s-18.929-.889-28.395-1.279c-1.635-.067-3.27-.133-4.905-.194-1.116-.041-2.198-.109-3.227.429-1.401.731-2.205,2.291-2.09,3.846.131,1.773.559,3.572.842,5.326.345,2.136.693,4.271,1.041,6.406,1.668,10.227,3.352,20.451,5.047,30.674.69,4.16,1.381,8.32,2.081,12.479.463,2.754,2.041,4.718,4.953,4.997,3.851.369,7.742.483,11.602.753,14.789,1.036,29.557,2.341,44.344,3.403,3.843.276,7.687.536,11.533.773,3.464.214,6.76.623,9.78-1.433,3.73-2.539,7.282-5.39,10.853-8.144,2.039-1.573,4.073-3.154,6.076-4.773.841-.679.707-2.121,0-2.828-.831-.831-1.986-.681-2.828,0-3.952,3.194-8,6.272-12.068,9.316-1.308.979-2.611,1.974-3.953,2.906-2.632,1.827-5.817,1.084-8.834.895-14.16-.887-28.297-2.093-42.441-3.191-7.2-.558-14.404-1.085-21.612-1.53-.965-.06-2.764.259-3.276-.801-.3-.62-.296-1.559-.409-2.237-.312-1.861-.623-3.721-.933-5.582-1.611-9.673-3.207-19.348-4.793-29.025-.718-4.38-1.434-8.761-2.144-13.143-.268-1.653-.535-3.306-.799-4.959-.031-.197.005-.707-.122-.535.069-.094.152-.075.465-.057.762.044,1.527.056,2.29.086,8.372.324,16.741.713,25.11,1.101,9.448.439,18.896.892,28.343,1.351,3.711.18,7.423.362,11.134.544,1.376.068,2.751.135,4.127.203.549.027,1.246-.067,1.617.432.348.467.343,1.495.437,2.056,2.856,17.106,5.854,34.19,8.846,51.273.181,1.033,1.032,3.371.2,4.103-1.938,1.702.901,4.522,2.828,2.828h0Z"/><g id="e"><path class="j" d="M27.977,171.663c-.314-1.413-1.699-3.02-4.109-2.776-1.51.153-2.526,1.115-2.701,2.546-.235,1.922.196,4.123.913,7.705.55,2.747,1.268,5.93,2.044,8.538,1.308,2.684,3.303,4.495,6.332,4.98,1.856.337,13.474,1.724,18.723,1.768,4.531-.171,11.305.163,11.423-3.699-1.667-.466-3.122-1.274-3.771-1.39-.164-.365-.336-.772-.491-1.383-.61-2.404-2.285-6.816-4.073-7.858-1.435-.837-3.945-.957-4.75.567,0,0-.226.428-.573,1.088-.187-.676-.377-1.379-.567-2.125-.658-2.577-1.801-5.707-2.558-7.521-.479-1.149-1.222-1.984-2.936-2.54-1.552-.504-3.941.193-4.261,1.749,0,0-.176.853-.351,1.706l-.742-3.123c-.831-3.5-3.54-4.558-5.572-4.08-2.285.538-2.844,2.433-2.104,5.282"/><path class="i" d="M49.244,181.668c.173-.299-.26.245.129-.15-.445.453.261-.092-.04.047-.278.128.26-.059.323-.076.224-.04.199-.037-.077.007.104-.008.208-.013.312-.013.159-.001.316.013.475.021-.525-.029.129.035.25.066.152.039.298.092.447.138.211.081.19.073-.061-.026.087.042.172.088.256.136.066.038.129.08.191.124-.228-.182-.283-.222-.168-.123.082.117.23.216.328.323.076.083.433.584.146.161.089.13.181.258.268.39.461.708.842,1.468,1.184,2.24.037.083.074.167.11.251-.083-.197-.08-.188.009.028.088.225.178.448.262.674.142.379.275.76.4,1.145.24.738.397,1.506.666,2.234.253.684.5,1.404,1.168,1.794.356.208.805.282,1.19.435.968.383,1.91.81,2.908,1.113s2.225-.363,2.46-1.397c.246-1.08-.325-2.134-1.397-2.46-1.219-.371-2.378-1.081-3.62-1.347l1.195.919c-.088-.199-.083-.185.015.041-.044-.111-.086-.223-.124-.336-.069-.201-.125-.405-.18-.61-.089-.33-.177-.659-.277-.985-.218-.714-.466-1.42-.741-2.114-.65-1.639-1.383-3.235-2.49-4.619-2.085-2.606-7.096-3.295-8.97-.051-.524.906-.241,2.23.718,2.736s2.177.25,2.736-.718h0Z"/><path class="i" d="M50.271,186.189c-1.309-4.886-2.549-9.845-4.485-14.527-.932-2.255-2.739-3.867-5.227-4.196-2.38-.315-5.205.809-5.866,3.312s3.2,3.554,3.857,1.063c.095-.36.002-.051-.097.055.057-.06.452-.358.193-.19.335-.217.294-.176.691-.267.547-.125-.234-.027.325-.038.021,0,.642.048.303-.01.307.052.598.156.869.285.482.229.472.238.773.552.24.25-.015-.052.09.119.083.135.16.271.234.411.198.372-.043-.126.116.255.087.208.168.419.25.628.169.432.333.866.493,1.301,1.472,4.007,2.521,8.19,3.624,12.311.665,2.484,4.525,1.43,3.857-1.063h0Z"/><path class="i" d="M41.663,185.76c-1.222-4.687-2.449-9.373-3.631-14.07-.548-2.178-.95-4.453-2.618-6.105-1.658-1.642-4.238-2.346-6.469-1.559-3.344,1.18-3.774,4.54-3.021,7.601.615,2.498,4.473,1.44,3.857-1.063-.158-.644-.309-1.315-.22-1.984.028-.213.087-.391.222-.527.341-.342,1.199-.409,1.604-.298.792.217,1.47.721,1.916,1.721.352.789.483,1.724.692,2.563,1.232,4.938,2.526,9.86,3.81,14.785.649,2.489,4.508,1.434,3.857-1.063h0Z"/><path class="i" d="M22.397,188.685c1.568,3.109,4.224,5.354,7.707,5.93,2.274.376,4.579.615,6.87.867,6.009.659,12.128,1.327,18.169.676,3.373-.363,7.083-1.42,7.456-5.35.102-1.077-.992-2-2-2-1.167,0-1.898.92-2,2-.006.063-.029.17-.19.335-.182.186-.588.395-.955.526-1.14.406-2.376.518-3.575.595-2.508.162-5.028.199-7.537.052-2.71-.159-5.415-.415-8.115-.699-1.283-.135-2.565-.278-3.846-.432-.531-.064-1.062-.129-1.593-.197-.211-.027-.421-.054-.632-.082.344.046-.162-.023-.271-.039-1.035-.15-2.084-.307-3.021-.796-1.417-.738-2.31-2.01-3.013-3.404-1.16-2.299-4.612-.276-3.454,2.019h0Z"/><path class="i" d="M33.488,184.726c-.756-2.72-1.493-5.445-2.213-8.175-.327-1.241-.652-2.482-.963-3.727-.259-1.037-.43-2.109-.943-3.06-1.599-2.966-5.89-3.866-8.505-1.715-2.394,1.97-1.817,5.497-1.367,8.182.674,4.025,1.546,8.06,2.699,11.976.725,2.464,4.587,1.415,3.857-1.063-.877-2.98-1.543-6.019-2.149-9.064-.253-1.272-.561-2.732-.697-3.902-.06-.514-.099-1.032-.103-1.55-.003-.469.005-.919.089-1.149.115-.319.166-.399.49-.529.261-.105.805-.11,1.148-.033.779.175,1.09.732,1.219,1.278.447,1.899.938,3.787,1.436,5.673.699,2.645,1.414,5.286,2.146,7.921.688,2.477,4.549,1.425,3.857-1.063h0Z"/></g><path class="i" d="M45.794,156.417c.102.005.22.029.321.022-.47.036-.369-.065-.16-.018.192.043.383.082.572.141.068.021.135.048.203.069.381.12-.437-.222-.084-.036.19.1.377.196.556.316.051.034.35.243.056.033-.288-.206-.007.004.043.05.124.113.234.295.37.388l-.179-.235c.043.058.085.117.125.178.05.076.098.154.142.234.039.07.073.19.127.246-.124-.308-.148-.363-.071-.166.02.054.039.108.056.163.063.197.067.447.149.632-.146-.332-.032-.363-.031-.163,0,.128.012.256.01.385-.002.093-.021.194-.014.287.018.263.108-.527.021-.153-.045.196-.124.393-.164.588.098-.476.148-.325.042-.128-.029.055-.061.11-.093.163-.049.079-.108.151-.156.23.29-.474.231-.277.108-.159-.118.113-.253.222-.365.34.008-.008.434-.301.185-.15-.104.063-.204.133-.311.192-.172.095-.665.239-.023.036-.148.047-.291.109-.44.153s-.302.083-.455.115c-.092.019-.185.034-.277.051-.362.067.504-.049.161-.023-.336.026-.668.042-1.006.024-.146-.008-.29-.026-.436-.038.766.061.053-.003-.164-.068-.089-.027-.178-.069-.268-.091-.25-.062.454.24.117.042-.129-.076-.338-.259-.48-.289l.226.178c-.058-.047-.116-.095-.171-.145-.07-.062-.137-.128-.202-.195-.055-.057-.122-.172-.188-.209.194.259.23.305.107.136-.033-.046-.064-.093-.094-.141-.051-.08-.099-.161-.144-.244-.083-.155-.139-.455.009.063-.053-.186-.128-.363-.172-.553-.014-.062-.068-.446-.026-.082.042.371.004-.033.002-.092-.005-.122-.005-.245,0-.367l.008-.124c.022-.218.014-.166-.024.155.058-.037.167-.595.193-.711-.107.477-.106.238-.008.06.054-.099.118-.191.176-.288.207-.345-.322.338-.041.055.078-.078.149-.161.229-.237.077-.073.177-.137.248-.215-.347.383-.206.159-.049.059.182-.116.401-.188.576-.31-.394.274-.28.113-.073.042.102-.035.206-.067.31-.096.104-.028.208-.053.314-.075.07-.014.14-.027.21-.038-.34.042-.43.054-.27.036.224-.007.445-.031.67-.026,1.047.023,2.048-.936,2-2-.049-1.103-.879-1.976-2-2-2.656-.057-5.149,1.417-6.127,3.914-1.02,2.604.226,5.757,2.626,7.11,1.989,1.121,4.523.972,6.56.079.979-.429,1.829-1.179,2.389-2.09.743-1.208.847-2.632.641-4-.445-2.968-3.234-4.887-6.091-5.013-1.047-.046-2.047.953-2,2,.05,1.123.879,1.951,2,2Z"/><path class="i" d="M108.389,175.002c-6.781-2.449-13.918-4.077-20.975-5.512-1.057-.215-2.16.306-2.46,1.397-.271.988.333,2.244,1.397,2.46,7.057,1.435,14.194,3.063,20.975,5.512,1.016.367,2.19-.413,2.46-1.397.305-1.111-.377-2.092-1.397-2.46h0Z"/><path class="i" d="M65.392,47.717c-.013.161-.03.321-.05.481l.071-.532c-.152,1.113-.56,2.155-.961,3.197-.176.457-.036,1.135.202,1.541.243.415.718.811,1.195.919.512.117,1.087.091,1.541-.202l.405-.313c.248-.25.419-.544.514-.883.242-.63.492-1.26.683-1.908.221-.748.337-1.525.4-2.301.04-.486-.251-1.08-.586-1.414-.347-.347-.916-.608-1.414-.586-.517.023-1.054.193-1.414.586l-.313.405c-.181.312-.272.648-.273,1.009h0Z"/><g id="f"><path class="i" d="M109.819,65.279c4.809.14,10.161-.1,13.084-4.53,2.204-3.34,2.545-8.983-.608-11.876-.898-.824-2.577-1.079-3.736-1.351-1.326-.311-2.677-.52-4.032-.657-2.611-.263-5.247-.124-7.826.359-2.252.422-4.792.924-6.088,3-.978,1.567-1.349,3.618-1.184,5.435.233,2.568,1.332,5.309,3.292,7.052,1.942,1.727,4.547,2.457,7.098,2.568,2.574.111,2.568-3.889,0-4-2.435-.105-4.487-1.038-5.643-3.243-.867-1.653-1.131-4.018-.233-5.581.43-.749,1.748-.913,2.715-1.14,1.542-.363,3.103-.548,4.687-.58,3.086-.062,6.092.474,9.004,1.481l-.883-.514c1.78,1.864,1.314,5.322-.172,7.255-2.135,2.776-6.381,2.413-9.475,2.323-2.575-.075-2.573,3.925,0,4Z"/><path class="i" d="M75.269,52.216c3.725-1.287,7.703-1.826,11.627-1.293.942.128,1.88.33,2.797.577.627.169,1.541.303,1.883.752.461.606.67,1.864.651,2.78-.031,1.49-.613,3.057-1.544,4.223-.935,1.172-2.466,1.723-3.906,1.945-1.726.266-3.642.197-5.377.048-1.567-.134-3.293-.559-4.477-1.654-1.986-1.835-2.754-5.815-.772-7.892,1.777-1.862-1.047-4.695-2.828-2.828-2.978,3.119-2.929,8.359-.608,11.876,2.833,4.293,8.024,4.688,12.721,4.541,2.244-.07,4.579-.521,6.465-1.811,1.959-1.341,3.274-3.446,3.916-5.714.527-1.865.57-3.913-.028-5.767-.3-.931-.724-1.84-1.383-2.574-.79-.879-1.817-1.236-2.92-1.572-5.609-1.709-11.765-1.398-17.28.508-2.418.836-1.379,4.701,1.063,3.857h0Z"/><path class="i" d="M95.987,56.247c.049-.025.099-.048.149-.07l-.478.202c.408-.172.842-.262,1.279-.324l-.532.071c.907-.12,1.832-.111,2.739.005l-.532-.071c.511.069,1.022.171,1.5.367l-.478-.202.051.022c.513.222.978.357,1.541.202.464-.128.967-.486,1.195-.919.245-.464.368-1.026.202-1.541-.149-.461-.454-.994-.919-1.195-.584-.253-1.141-.451-1.769-.553-.705-.114-1.415-.194-2.129-.199-1.31-.009-2.656.161-3.838.752-.938.469-1.276,1.869-.718,2.736.618.959,1.733,1.219,2.736.718h0Z"/><path class="i" d="M125.093,54.75c.048-.021.096-.042.144-.063l-.478.202c.84-.355,1.735-.66,2.632-.831.26-.062.487-.181.68-.358.218-.141.389-.328.515-.561.146-.23.225-.477.237-.744.06-.266.048-.532-.036-.798-.157-.484-.457-.951-.919-1.195l-.478-.202c-.354-.095-.709-.095-1.063,0-1.118.213-2.218.633-3.254,1.096-.233.126-.42.297-.561.515-.177.193-.296.42-.358.68-.083.266-.095.532-.036.798.012.266.091.514.237.744.275.427.685.803,1.195.919l.532.071c.361-.001.697-.092,1.009-.273h0Z"/><path class="i" d="M72.219,51.296c-1.036-.463-2.135-.883-3.254-1.096-.266-.083-.532-.095-.798-.036-.266.012-.514.091-.744.237-.233.126-.42.297-.561.515-.177.193-.296.42-.358.68-.117.512-.091,1.087.202,1.541.269.418.689.822,1.195.919.897.171,1.792.477,2.632.831l-.478-.202c.048.021.096.041.144.063.23.146.477.225.744.237.266.06.532.048.798-.036.26-.062.487-.181.68-.358.218-.141.389-.328.515-.561.245-.464.368-1.026.202-1.541l-.202-.478c-.178-.301-.417-.54-.718-.718h0Z"/></g><g id="g"><path class="i" d="M92.203,76.924c1.931,1.02,4.008,1.456,6.192,1.442,2.28-.015,4.519-.49,6.338-1.907.829-.646.729-2.159,0-2.828-.88-.807-1.944-.689-2.828,0,.684-.533-.074.019-.293.135-.171.09-.638.229-.028.033-.171.055-.337.13-.509.185-.217.07-.436.129-.658.18-.083.019-.749.097-.766.145.023-.065.425-.048-.016-.004-.14.014-.28.025-.42.035-.337.022-.674.03-1.012.028-.302-.002-.604-.012-.906-.033-.138-.009-.277-.021-.415-.034-.079-.008-.158-.016-.236-.026-.155-.019-.103-.012.156.021-.38.052-.965-.186-1.33-.295-.186-.056-.368-.123-.552-.185-.464-.159.398.193-.022-.005-.228-.108-.453-.22-.676-.337-.925-.488-2.217-.265-2.736.718-.488.924-.27,2.215.718,2.736h0Z"/><path class="i" d="M97.173,62.603c.26.992.51,1.999.659,3.014l-.071-.532c.018.139.025.276.011.416l.071-.532c-.01.065-.024.125-.046.187l.202-.478c-.019.044-.039.081-.066.12l.313-.405c-.031.038-.06.067-.098.097l.405-.313c-.076.049-.157.088-.239.126l.478-.202c-.131.055-.262.095-.402.117l.532-.071c-.127.015-.251.014-.378,0l.532.071c-.142-.02-.282-.054-.425-.074-.266-.083-.532-.095-.798-.036-.266.012-.514.091-.744.237-.415.243-.811.718-.919,1.195-.117.512-.091,1.087.202,1.541.26.403.695.852,1.195.919.364.049.718.141,1.089.157.59.026,1.132-.159,1.656-.401.658-.304,1.176-.922,1.351-1.629.149-.604.088-1.099-.014-1.704-.164-.971-.388-1.933-.638-2.886-.127-.483-.49-.944-.919-1.195s-1.061-.357-1.541-.202c-.484.157-.951.457-1.195.919-.253.48-.342,1.007-.202,1.541h0Z"/><path class="i" d="M81.676,53.948c-.503,1.636-.175,5.398,2.923,5.718,4.095-.025,4.313-4.573,2.935-6.712-1.129-1.751-4.448-2.479-5.858.994Z"/><path class="i" d="M114.471,53.948c.503,1.636.175,5.398-2.923,5.718-4.095-.025-4.313-4.573-2.935-6.712,1.129-1.751,4.448-2.479,5.858.994Z"/></g></g></g></svg>