<?xml version="1.0" encoding="UTF-8"?><svg id="b" xmlns="http://www.w3.org/2000/svg" width="323.098" height="241.3" viewBox="0 0 323.098 241.3"><defs><style>.d{fill:#3d8dcc;}.e{fill:#fff;}.f{fill:#211715;}</style></defs><g id="c"><path class="d" d="M226.076,124.966c-7.94.01-22.45.01-40,.02-30.28,0-69.64.02-100,.04-17.41,0-31.86,0-39.95.01,0,0-.04-80-.05-109.89,26.53-.01,179.95-.06,179.95-.06.02,27.15.04,77.56.05,109.88Z"/><path class="e" d="M183.728,35.612c-.236,0-45.16,0-95.302,0v107.705c33.969,0,61.333,0,95.302,0,0-.472,0-107.679,0-107.705Z"/><path class="f" d="M183.728,33.212c-6.119,0-12.239,0-18.358,0-15.043,0-30.086,0-45.129,0-10.605,0-21.21,0-31.815,0-1.297,0-2.4,1.1-2.4,2.4v107.705c0,1.297,1.1,2.4,2.4,2.4,24.548,0,49.097,0,73.645,0,7.219,0,14.438,0,21.657,0,1.297,0,2.4-1.1,2.4-2.4,0-3.644,0-7.288,0-10.932,0-8.572,0-17.143,0-25.715,0-10.333,0-20.667,0-31,0-8.957,0-17.915,0-26.872,0-4.322.163-8.68,0-13-.002-.062,0-.124,0-.185,0-3.089-4.8-3.094-4.8,0,0,3.574,0,7.148,0,10.722,0,8.536,0,17.071,0,25.607,0,10.331,0,20.663,0,30.994,0,8.989,0,17.979,0,26.968,0,2.957,0,5.914,0,8.871,0,1.423-.12,2.907,0,4.326.006.071,0,.145,0,.217l2.4-2.4c-24.548,0-49.097,0-73.645,0-7.219,0-14.438,0-21.657,0l2.4,2.4V35.612l-2.4,2.4c17.996,0,35.992,0,53.988,0,11.71,0,23.42,0,35.13,0,2.062,0,4.123,0,6.185,0,3.089,0,3.094-4.8,0-4.8Z"/><path class="f" d="M101.011,66.439h41.05c3.089,0,3.094-4.8,0-4.8h-41.05c-3.089,0-3.094,4.8,0,4.8h0Z"/><path class="e" d="M102.347,79.197h-1.337v45.921c37.048,0,70.131,0,70.131,0,0-13.894,0-32.027,0-45.921h-.129c-32.749,0-61.704,0-68.666,0Z"/><path class="f" d="M133.675,79.197v45.919c0,3.089,4.8,3.094,4.8,0v-45.919c0-3.089-4.8-3.094-4.8,0h0Z"/><path class="f" d="M101.404,96.905h69.738c3.089,0,3.094-4.8,0-4.8h-69.738c-3.089,0-3.094,4.8,0,4.8h0Z"/><path class="f" d="M101.651,112.212c17.868,0,35.736,0,53.603,0,5.296,0,10.592,0,15.888,0,3.089,0,3.094-4.8,0-4.8-17.868,0-35.736,0-53.603,0h-15.888c-3.089,0-3.094,4.8,0,4.8h0Z"/><path class="f" d="M168.745,79.197v45.919c0,3.089,4.8,3.094,4.8,0v-45.919c0-3.089-4.8-3.094-4.8,0h0Z"/><path class="f" d="M101.011,127.519c15.64,0,31.281,0,46.921,0,7.737,0,15.473,0,23.21,0,3.089,0,3.094-4.8,0-4.8-21.816,0-43.632,0-65.448,0h-4.683c-3.089,0-3.094,4.8,0,4.8h0Z"/><path class="f" d="M98.611,79.197v45.921c0,3.089,4.8,3.094,4.8,0v-45.921c0-3.089-4.8-3.094-4.8,0h0Z"/><path class="f" d="M171.142,76.797c-21.868,0-43.736,0-65.604,0h-4.528c-3.089,0-3.094,4.8,0,4.8,15.638,0,31.276,0,46.913,0,7.739,0,15.479,0,23.218,0,3.089,0,3.094-4.8,0-4.8h0Z"/><path class="f" d="M101.011,54.601h22.961c3.089,0,3.094-4.8,0-4.8h-22.961c-3.089,0-3.094,4.8,0,4.8h0Z"/><path class="e" d="M268.601,173.6c-7.203-12.3-21.933-32.605-28.799-42.254-.013-34.011-.029-87.397-.026-120.266,0-4.797-3.888-8.682-8.685-8.681-44.333.016-152.675.053-190.065.064-4.796.001-8.679,3.882-8.677,8.678.009,24.503.024,62.886.036,91.845.004,11.043.008,20.715.011,27.725-6.769,9.503-21.559,30.448-28.84,42.882-.719,1.227-1.09,2.625-1.09,4.047,0,7.604.029-2.422.029,5.329,0,2.775,2.25,5.023,5.025,5.023,33.123,0,220.06,0,256.115,0,3.323,0,6.026-2.696,6.026-6.019,0-1.569.027-3.088.027-4.343,0-1.42-.368-2.805-1.086-4.031ZM186.076,124.986c-30.28,0-69.64.02-100,.04-17.41,0-31.86,0-39.95.01,0,0-.04-80-.05-109.89,26.53-.01,179.95-.06,179.95-.06.02,27.15.04,77.56.05,109.88-7.94.01-22.45.01-40,.02Z"/><path class="f" d="M34.784,102.987c-.007-17.665-.014-35.33-.021-52.995-.003-8.517-.007-17.033-.01-25.55-.001-3.742-.003-7.484-.004-11.227,0-1.578-.127-3.156.531-4.635.623-1.402,1.786-2.557,3.184-3.184,1.995-.895,4.535-.534,6.678-.534,2.231,0,4.461-.001,6.692-.002,5.297-.002,10.595-.003,15.892-.005,12.977-.004,25.954-.009,38.931-.013,14.568-.005,29.137-.01,43.705-.015,14.046-.005,28.093-.01,42.139-.015,11.459-.004,22.918-.008,34.377-.012,2.505,0,5.302-.407,7.533.944,1.232.746,2.196,1.958,2.64,3.328.487,1.503.326,3.12.326,4.679,0,7.459,0,14.918,0,22.376.002,17.033.006,34.066.011,51.099.002,8.298.005,16.596.008,24.894.001,3.815.003,7.63.004,11.445,0,1.789.001,3.578.002,5.367,0,.797-.053,1.617,0,2.412.07,1.021.679,1.706,1.246,2.499,8.645,12.116,17.447,24.167,25.345,36.791.862,1.377,1.748,2.754,2.536,4.175,1.115,2.01.749,4.427.733,6.642-.011,1.507-.421,2.839-1.799,3.645-.848.496-1.734.494-2.678.494-2.657,0-5.314,0-7.97,0-7.769,0-15.539,0-23.308,0-10.239,0-20.478,0-30.717,0-11.887,0-23.775,0-35.662,0-12.588,0-25.177,0-37.765,0-12.33,0-24.659,0-36.989,0-11.267,0-22.535,0-33.802,0-9.243,0-18.486,0-27.729,0-6.309,0-12.618,0-18.927,0-1.201,0-2.774.25-3.816-.416-1.799-1.149-1.084-3.547-1.211-5.347-.179-2.549-4.105-3.438-4.714-.638-.111.511-.043.987-.101,1.493h4.8c-.168-1.607-.215-3.685.395-5.175.948-2.316,2.645-4.515,3.976-6.626,3.113-4.936,6.353-9.792,9.632-14.618,3.246-4.777,6.54-9.522,9.861-14.247,1.398-1.989,2.802-3.975,4.209-5.957.568-.8,1.5-1.757,1.763-2.712.376-1.367.085-3.207.084-4.613-.003-7.917-.006-15.833-.01-23.75-.001-3.089-4.801-3.094-4.8,0,.004,9.242.007,18.483.011,27.725l.328-1.211c-9.437,13.251-18.936,26.549-27.39,40.456-1.346,2.214-2.619,4.324-2.833,6.977-.096,1.19-.153,2.552-.027,3.752.324,3.095,4.446,3.073,4.8,0,.045-.392.197-1.447-.071-.217l-4.714-.638c.056.789.006,1.598.007,2.388,0,2.157.472,4.114,1.948,5.754,1.902,2.114,4.442,2.421,7.098,2.421,2.779,0,5.559,0,8.338,0,8.255,0,16.509,0,24.764,0,10.971,0,21.942,0,32.913,0,12.635,0,25.269,0,37.904,0,13.245,0,26.49,0,39.736,0,12.803,0,25.605,0,38.408,0,11.307,0,22.614,0,33.921,0,8.759,0,17.517,0,26.276,0,3.095,0,6.189,0,9.284,0,1.759,0,3.664.17,5.358-.35,1.976-.606,3.686-1.918,4.776-3.675,1.241-2,1.235-4.163,1.254-6.438.023-2.687-.057-5.132-1.398-7.542-.847-1.521-1.795-2.995-2.72-4.469-2.078-3.31-4.235-6.57-6.422-9.808-4.611-6.828-9.368-13.558-14.152-20.266-1.834-2.571-3.674-5.138-5.505-7.711l.328,1.211c-.006-15.638-.011-31.276-.016-46.913-.005-16.767-.009-33.533-.01-50.3,0-7.298-.001-14.596,0-21.894,0-3.809-1.06-7.328-4.149-9.782C235.206.216,232.077-.001,228.627,0c-11.067.004-22.135.008-33.202.012-13.741.005-27.483.01-41.224.014-14.427.005-28.853.01-43.28.015-13.123.004-26.247.009-39.37.013-9.863.003-19.726.006-29.589.009-3.528.001-6.845,1.007-9.233,3.747-2.681,3.076-2.78,6.597-2.779,10.465.003,7.874.006,15.749.009,23.623.007,17.657.014,35.314.021,52.972.002,4.039.003,8.078.005,12.117.001,3.089,4.801,3.094,4.8,0Z"/><path class="f" d="M248.857,171.864H31.077c-2.947,0-5.901-.059-8.847,0-.127.003-.254,0-.381,0-3.089,0-3.094,4.8,0,4.8h217.78c2.947,0,5.901.059,8.847,0,.127-.003.254,0,.381,0,3.089,0,3.094-4.8,0-4.8h0Z"/><path class="f" d="M226.076,122.566c-22.77.028-45.54.018-68.31.025-25.044.007-50.088.035-75.132.035-12.169,0-24.339-.005-36.508.01l2.4,2.4c-.005-9.632-.01-19.263-.014-28.895-.009-18.489-.018-36.979-.026-55.468-.004-8.509-.007-17.018-.01-25.527l-2.4,2.4c9.334-.004,18.669-.007,28.003-.01,14.843-.005,29.685-.01,44.528-.015,16.123-.005,32.246-.011,48.369-.016,13.289-.004,26.578-.009,39.866-.013,4.294-.001,8.587-.003,12.881-.004,1.997,0,4.05.137,6.044-.002.085-.006.173,0,.259,0l-2.4-2.4c.01,13.287.016,26.574.023,39.861.007,15.521.014,31.042.019,46.562.003,7.819.006,15.638.008,23.457,0,3.089,4.801,3.094,4.8,0-.005-14.516-.01-29.032-.016-43.548-.006-15.177-.013-30.354-.021-45.531-.004-6.933-.008-13.867-.013-20.8,0-1.297-1.099-2.4-2.4-2.4-5.163.002-10.325.003-15.488.005-12.698.004-25.396.008-38.093.012-16.002.005-32.005.011-48.007.016-15.184.005-30.367.01-45.551.015-10.232.003-20.464.007-30.696.011-.705,0-1.41,0-2.115,0-1.297,0-2.4,1.099-2.4,2.4.006,16.748.014,33.496.021,50.244.008,16.491.016,32.982.024,49.473.002,3.391.003,6.782.005,10.173,0,1.296,1.099,2.402,2.4,2.4,22.914-.028,45.827-.015,68.741-.027,25.043-.013,50.086-.012,75.129-.025,12.027-.006,24.053-.003,36.08-.018,3.088-.004,3.094-4.804,0-4.8Z"/><path class="e" d="M320.705,205.677c-2.292-4.149-6.59-11.515-12.914-21.278-4.329-6.684-9.316-14.418-15.47-21.759-3.165-3.775-7.501-4.681-10.384-3.651-2.68.957-5.41,3.324-5.055,6.338-1.94-3.198-6.497-3.602-10.215-1.872s-5.45,5.59-4.489,8.714c-1.549-3.013-5.255-4.055-8.651-2.853-4.336,1.536-6.178,4.888-5.887,8.359-6.513-7.374-19.313-22.357-25.313-28.949-3.522-3.87-7.462-6.447-12.452-3.775-5.314,2.844-2.585,10.317.09,13.862,7.699,10.205,20.164,26.431,28.007,36.625-.056.003-.084.006-.084.006-2.07.163-3.214.354-4.99.847-1.527.424-3.62,1.714-4.371,4.301-1.055,3.633.406,6.697,3.12,9.332,8.876,8.619,16.139,16.159,20.444,19.872,7.762,6.695,20.553,8.266,30.228,9.098"/><path class="f" d="M246.47,202.573c-8.985-11.682-17.982-23.356-26.919-35.075-2.4-3.148-4.797-6.298-7.182-9.457-1.946-2.577-3.788-6.191-2.953-9.08.395-1.365,1.949-2.396,3.752-2.662,1.926-.285,3.742.685,5.176,1.889,3,2.517,5.498,5.811,8.072,8.749,6.476,7.39,12.853,14.867,19.352,22.236,2.047,2.321,5.432-1.084,3.394-3.394-6.088-6.903-12.069-13.901-18.124-20.832-2.743-3.14-5.397-6.499-8.428-9.369-1.858-1.76-4.088-3.368-6.64-3.895-2.717-.561-5.675.03-7.969,1.604-3.925,2.693-4.175,7.662-2.678,11.812,1.371,3.8,3.991,6.813,6.403,9.987,5.667,7.46,11.367,14.896,17.073,22.327,4.504,5.865,9.017,11.722,13.525,17.583.789,1.026,2.064,1.574,3.284.861,1.009-.59,1.656-2.25.861-3.284h0Z"/><path class="f" d="M237.889,193.043c-2.736.227-5.855.52-8.183,2.126-2.62,1.807-4.035,4.87-3.917,8.042.118,3.154,1.715,5.908,3.876,8.125,2.494,2.558,5.11,5.005,7.647,7.521,3.897,3.865,7.738,7.806,11.802,11.498s8.737,6.145,13.982,7.744c6.226,1.898,12.762,2.635,19.224,3.194,1.293.112,2.4-1.183,2.4-2.4,0-1.391-1.103-2.288-2.4-2.4-4.917-.425-9.828-.984-14.636-2.129-4.749-1.131-9.652-2.799-13.488-5.924-3.364-2.741-6.396-5.942-9.474-8.991-2.086-2.066-4.167-4.139-6.256-6.202-1.12-1.106-2.242-2.211-3.368-3.311-1.059-1.035-2.238-2.024-3.119-3.222-1.367-1.858-2.069-4.628-.574-6.649,1.4-1.893,4.196-2.031,6.484-2.221,1.292-.107,2.4-1.026,2.4-2.4,0-1.215-1.101-2.508-2.4-2.4h0Z"/><path class="f" d="M250.042,177.702c-.177-2.561.996-4.606,3.434-5.781,2.319-1.117,5.281-.99,6.629,1.459,1.316,2.389,5.119.768,4.387-1.849-.673-2.407.96-4.943,3.386-6.003,2.151-.94,5.486-1.224,6.932,1.011,1.198,1.852,4.669,1.311,4.472-1.211-.146-1.869,1.304-3.137,2.905-3.862,1.323-.599,2.59-.608,4.041-.185,2.133.621,3.63,2.123,5.008,3.793,1.663,2.016,3.257,4.086,4.797,6.197,5.983,8.198,11.435,16.837,16.702,25.508,2.026,3.335,4.009,6.697,5.898,10.111,1.496,2.703,5.643.285,4.145-2.423-4.542-8.208-9.568-16.144-14.681-24.005-3.146-4.836-6.363-9.63-9.861-14.22-3.356-4.404-6.699-9.217-12.618-9.95-5.147-.638-11.582,3.307-11.134,9.036l4.472-1.211c-2.886-4.461-8.633-4.888-13.169-2.88-4.375,1.936-7.251,6.821-5.922,11.571l4.387-1.849c-2.466-4.477-7.946-5.439-12.389-3.544-4.15,1.77-6.935,5.701-6.618,10.289.089,1.293,1.039,2.4,2.4,2.4,1.23,0,2.49-1.1,2.4-2.4h0Z"/></g></svg>