<?xml version="1.0" encoding="UTF-8"?>
<svg version="1.1" xmlns="http://www.w3.org/2000/svg" width="2405" height="697">
<path d="M0 0 C1.45058807 0.00273422 1.45058807 0.00273422 2.93048096 0.00552368 C17.24607065 0.05091508 31.2363544 0.48249134 45.3125 3.3125 C46.22499512 3.48942383 47.13749023 3.66634766 48.07763672 3.84863281 C90.60752111 12.26880825 132.87320163 33.09649083 159.8125 68.125 C160.52176636 69.04055664 160.52176636 69.04055664 161.24536133 69.97460938 C188.29811128 105.10301382 200.53179599 144.95858008 200.5625 189.125 C200.56317474 189.9962149 200.56384949 190.86742981 200.56454468 191.76504517 C200.54846534 204.8345402 200.10523988 217.49859204 197.3125 230.3125 C197.14089355 231.13089355 196.96928711 231.94928711 196.79248047 232.79248047 C191.09361619 259.36171634 180.31220505 284.95595231 163.3125 306.3125 C162.88646484 306.84987793 162.46042969 307.38725586 162.02148438 307.94091797 C129.34699834 348.80822884 82.41865343 371.98344938 30.7421875 377.9765625 C29.61039063 378.08742188 28.47859375 378.19828125 27.3125 378.3125 C26.20132813 378.42335938 25.09015625 378.53421875 23.9453125 378.6484375 C-32.28433599 383.2820611 -91.51013308 371.94313276 -135.640625 335.0390625 C-172.65623428 303.52219755 -195.08053731 259.77751898 -199.6875 211.3125 C-199.8392137 208.1624884 -199.87454474 205.01663209 -199.890625 201.86328125 C-199.89632507 200.96997604 -199.90202515 200.07667084 -199.90789795 199.15629578 C-199.91730217 197.26786462 -199.92386361 195.3794174 -199.92773438 193.4909668 C-199.93731972 190.67790761 -199.96833619 187.86561887 -200 185.05273438 C-200.26826656 139.21711737 -184.56339493 92.85160657 -152.11035156 59.77490234 C-150.62972327 58.25311726 -149.18594986 56.70127959 -147.7421875 55.14453125 C-122.45643515 28.33994617 -87.20482745 12.19079687 -51.625 4.5625 C-50.24489746 4.26424316 -50.24489746 4.26424316 -48.83691406 3.95996094 C-32.63372477 0.67652008 -16.49176455 -0.06471322 0 0 Z M-93.28515625 98.56640625 C-110.33986719 118.06146607 -120.12157957 141.7475935 -123.6875 167.3125 C-123.7803125 167.9734668 -123.873125 168.63443359 -123.96875 169.31542969 C-128.27900349 203.25867594 -122.68662013 241.09274589 -102.625 269.5 C-101.34184257 271.12773277 -100.029639 272.73304762 -98.6875 274.3125 C-97.62595703 275.57900391 -97.62595703 275.57900391 -96.54296875 276.87109375 C-75.14468687 301.4922342 -46.00367781 314.76468334 -13.6875 317.3125 C22.4954598 319.21715687 58.23360576 312.57874387 86.01025391 287.79785156 C110.60567751 265.35544977 123.05279744 234.27440786 125.3125 201.3125 C126.85871482 164.40274308 118.98493264 127.75004482 93.80761719 99.63183594 C71.44094364 75.31174112 41.0420335 63.70618117 8.53515625 61.42578125 C-29.7219072 60.0809875 -66.24575094 70.47522504 -93.28515625 98.56640625 Z " fill="#1A61EF" transform="translate(844.6875,144.6875)"/>
<path d="M0 0 C72.6 0 145.2 0 220 0 C220 17.49 220 34.98 220 53 C206.47 53 192.94 53 179 53 C190.61934833 83.58300172 202.35874449 114.11754111 214.15332031 144.63330078 C218.31676482 155.40614675 222.47442556 166.18122472 226.63241577 176.95617676 C228.91483936 182.87062472 231.19768333 188.78491043 233.48046875 194.69921875 C236.73816104 203.13951603 239.99569697 211.57987362 243.25299072 220.02032471 C244.20033131 222.4750548 245.14771888 224.92976676 246.09515381 227.38446045 C248.41542379 233.39609178 250.7350605 239.40796568 253.05322266 245.42041016 C256.98852189 255.62476769 260.92811863 265.82729294 264.89915466 276.01780701 C266.51515566 280.16493867 268.12789368 284.31333606 269.74057007 288.46176147 C270.49019855 290.38682227 271.24165118 292.31117383 271.99502563 294.23477173 C273.01932592 296.8501327 274.03764829 299.46774621 275.0546875 302.0859375 C275.35661514 302.85172623 275.65854279 303.61751495 275.96961975 304.4065094 C277.13281956 307.4153632 278 309.7441303 278 313 C291.2 313 304.4 313 318 313 C318 330.49 318 347.98 318 366 C267.18 366 216.36 366 164 366 C164 348.51 164 331.02 164 313 C177.53 313 191.06 313 205 313 C202.95378506 307.5022398 202.95378506 307.5022398 200.9074707 302.0045166 C199.14952731 297.28138678 197.39244185 292.55794003 195.63671875 287.83398438 C192.43185703 279.21247746 189.22614711 270.59140412 185.99113464 261.9811554 C184.77656029 258.747822 183.56540012 255.51321515 182.35458374 252.2784729 C181.78604827 250.7626558 181.2157627 249.24749392 180.64370728 247.73300171 C179.85183128 245.63611779 179.06589271 243.53709912 178.28125 241.4375 C177.83845703 240.26058594 177.39566406 239.08367187 176.93945312 237.87109375 C176 235 176 235 176 232 C132.11 232 88.22 232 43 232 C42.67 233.98 42.34 235.96 42 238 C41.39948658 239.89719116 40.7479235 241.77876304 40.05395508 243.64379883 C39.65296097 244.72965775 39.25196686 245.81551666 38.83882141 246.9342804 C38.40345566 248.09678818 37.9680899 249.25929596 37.51953125 250.45703125 C36.83072502 252.31694898 36.14191988 254.17686711 35.45317364 256.03680706 C34.48747214 258.64046435 33.51682507 261.24226708 32.54626465 263.84411621 C30.86700398 268.34887053 29.1956589 272.85656733 27.52409363 277.36418152 C26.63660052 279.75592985 25.74734897 282.14702681 24.85591125 284.53730774 C21.46350123 293.6585111 18.24040621 302.81884907 15 312 C35.295 312.495 35.295 312.495 56 313 C56 330.49 56 347.98 56 366 C5.51 366 -44.98 366 -97 366 C-97 348.51 -97 331.02 -97 313 C-77.695 312.505 -77.695 312.505 -58 312 C-56.70449219 308.59816406 -55.40898438 305.19632812 -54.07421875 301.69140625 C-44.14317429 275.62915881 -34.1539839 249.59101329 -24.05389404 223.59370422 C-23.66228088 222.58567245 -23.27066772 221.57764069 -22.8671875 220.5390625 C-22.47412415 219.52736496 -22.08106079 218.51566742 -21.67608643 217.47331238 C-16.82781908 204.98944777 -12.00787844 192.49465341 -7.1875 180 C-6.26359531 177.60562965 -5.3396858 175.21126116 -4.41577148 172.81689453 C-0.17815238 161.83404092 4.05777702 150.85053669 8.29225159 139.86647034 C19.46512786 110.88597704 30.68588685 81.92570436 42 53 C28.14 53 14.28 53 0 53 C0 35.51 0 18.02 0 0 Z M109 53 C105.43109488 61.35776777 102.16954974 69.79108819 99.078125 78.3359375 C98.61586594 79.60697095 98.15332881 80.87790329 97.6905365 82.14874268 C96.71271984 84.83521447 95.73648087 87.52225158 94.76156616 90.20977783 C92.46130234 96.55030079 90.15225856 102.88762805 87.84375572 109.22515488 C87.32504299 110.64928545 86.80642872 112.07345188 86.28791237 113.49765396 C81.29171684 127.2205776 76.25326799 140.9275894 71.1875 154.625 C70.82974487 155.5933075 70.47198975 156.56161499 70.10339355 157.55926514 C69.10496778 160.26119176 68.10549207 162.96272679 67.10546875 165.6640625 C66.81695541 166.44444885 66.52844208 167.22483521 66.23118591 168.02886963 C65.96435501 168.74846863 65.69752411 169.46806763 65.42260742 170.20947266 C65.17779633 170.8702179 64.93298523 171.53096313 64.68075562 172.21173096 C64.08927773 173.76547736 63.45153885 175.30145985 62.8059082 176.83349609 C61.82567737 179.08337035 61.82567737 179.08337035 62 182 C93.68 182 125.36 182 158 182 C152.45564207 166.11574223 152.45564207 166.11574223 146.7578125 150.2890625 C146.39179428 149.28708328 146.02577606 148.28510406 145.64866638 147.25276184 C144.47557784 144.04296917 143.30039252 140.83394961 142.125 137.625 C141.29676322 135.36076958 140.46855738 133.09652785 139.64038086 130.83227539 C133.2738815 113.43615467 126.86552686 96.05556526 120.43212891 78.68408203 C119.76854318 76.89225686 119.10496851 75.1004276 118.44140625 73.30859375 C117.97849182 72.05861603 117.97849182 72.05861603 117.50622559 70.78338623 C115.31549651 64.86354209 113.14287743 58.93735939 111 53 C110.34 53 109.68 53 109 53 Z " fill="#1A61EF" transform="translate(1168,152)"/>
<path d="M0 0 C1.44294434 0.25740967 1.44294434 0.25740967 2.91503906 0.52001953 C53.26781356 9.59909698 101.0236003 32.21980321 138.7734375 66.95703125 C140.81427926 68.82959308 142.89463697 70.63829534 145 72.4375 C152.57206793 79.04585019 159.57595551 86.27569801 166 94 C166.40911621 94.4846875 166.81823242 94.969375 167.23974609 95.46875 C180.28293516 110.98813978 191.71303833 127.9714319 201 146 C201.42877441 146.83160645 201.85754883 147.66321289 202.29931641 148.52001953 C236.24983913 215.18058827 241.94209042 292.98550395 219.375 364.25 C207.38504872 400.52179697 187.9240223 434.6478324 162.04296875 462.7734375 C160.17040692 464.81427926 158.36170466 466.89463697 156.5625 469 C149.90280423 476.60889379 142.72211091 483.44354924 134.8125 489.73828125 C132.96999953 491.21995871 131.15567125 492.73753121 129.375 494.29296875 C85.7131068 532.31106609 23.38128078 555.92060361 -34.4140625 556.203125 C-35.37841217 556.21018463 -36.34276184 556.21724426 -37.33633423 556.22451782 C-77.34207114 556.45093883 -77.34207114 556.45093883 -95 553 C-96.03785645 552.80664062 -97.07571289 552.61328125 -98.14501953 552.4140625 C-133.5765335 545.67609594 -169.49225899 532.95489441 -199.24609375 512.16796875 C-201.19652799 510.81383586 -201.19652799 510.81383586 -204.3125 509.375 C-207 508 -207 508 -208.83203125 506.1640625 C-211.19119636 503.80914814 -213.67458523 501.95317671 -216.375 500 C-234.79031251 486.35556719 -252.07638222 470.22894697 -266 452 C-266.6084375 451.28199219 -267.216875 450.56398438 -267.84375 449.82421875 C-279.02023119 436.56359865 -287.86621247 421.18371945 -295.98339844 405.91162109 C-296.85414168 404.2742725 -297.74180429 402.64594097 -298.6328125 401.01953125 C-323.97275028 353.03981299 -333.22836228 292.57422768 -325 239 C-324.84402344 237.9589209 -324.68804687 236.9178418 -324.52734375 235.84521484 C-316.38755369 182.94411633 -294.56053731 133.22955442 -259 93 C-258.31035156 92.19949219 -257.62070312 91.39898437 -256.91015625 90.57421875 C-246.30110924 78.45832054 -234.83532525 66.75484719 -222 57 C-220.83679175 56.08520457 -219.67406401 55.16979794 -218.51171875 54.25390625 C-182.31480222 26.08063955 -139.97457582 8.37905465 -95 0 C-94.08976074 -0.17789063 -93.17952148 -0.35578125 -92.24169922 -0.5390625 C-63.01400492 -6.028445 -29.17467653 -5.54394576 0 0 Z M-92 15 C-92.93424805 15.17692383 -93.86849609 15.35384766 -94.83105469 15.53613281 C-145.2266679 25.22052048 -191.94662265 48.27547605 -229 84 C-229.69174316 84.66451172 -230.38348633 85.32902344 -231.09619141 86.01367188 C-240.34443213 94.94520567 -249.14725812 103.92685251 -256.75097656 114.31103516 C-258.01177987 116.01592908 -259.30928433 117.68651471 -260.6171875 119.35546875 C-282.97214275 148.28421364 -308.89760381 195.2505411 -308 233 C-297.16007042 227.92355411 -286.91782428 221.94219091 -276.609375 215.875 C-269.81469887 211.8786095 -262.97432492 207.96410858 -256.125 204.0625 C-253.75236486 202.71005479 -251.37998796 201.35715757 -249.0078125 200.00390625 C-248.42220551 199.66984268 -247.83659851 199.33577911 -247.23324585 198.99159241 C-241.14348742 195.51517045 -235.07109601 192.00887592 -229 188.5 C-216.27942253 181.14933115 -203.54447152 173.8211205 -190.75634766 166.58837891 C-189.11718723 165.64379275 -187.49091628 164.67522136 -185.89599609 163.65771484 C-181.75440159 161.03344056 -178.87392256 160.27753803 -174 161 C-171.30082798 162.18198084 -168.93461303 163.72435842 -166.5 165.375 C-165.79770264 165.83269775 -165.09540527 166.29039551 -164.37182617 166.76196289 C-162.23695782 168.15889945 -160.1173913 169.57675229 -158 171 C-156.88201477 171.74164625 -155.76355879 172.4825836 -154.64453125 173.22265625 C-152.29150683 174.78376721 -149.94566569 176.3552192 -147.6015625 177.9296875 C-141.49357131 182.0194347 -135.33777299 186.03677434 -129.1875 190.0625 C-128.56190186 190.4720694 -127.93630371 190.88163879 -127.29174805 191.30361938 C-122.86191303 194.20355635 -118.43107839 197.10196339 -114 200 C-112.85318504 200.75015502 -111.70637499 201.50031754 -110.55957031 202.25048828 C-104.10772731 206.4706157 -97.65492075 210.68926727 -91.20166016 214.90722656 C-85.80072254 218.43756339 -80.40039461 221.96883261 -75 225.5 C-72.8333362 226.91667105 -70.66666953 228.33333772 -68.5 229.75 C-64.16666667 232.58333333 -59.83333333 235.41666667 -55.5 238.25 C-54.42685547 238.95165283 -53.35371094 239.65330566 -52.24804688 240.3762207 C-50.08782177 241.78871305 -47.92766518 243.20131021 -45.76757812 244.61401367 C-40.81966158 247.84979283 -35.87120182 251.0847265 -30.9200592 254.31556702 C-28.11302167 256.14734046 -25.30649354 257.97989318 -22.5 259.8125 C-20.88750366 260.86522095 -20.88750366 260.86522095 -19.24243164 261.93920898 C-11.84783055 266.77363764 -4.48403631 271.65207764 2.8359375 276.59887695 C5.6981209 278.92887242 5.6981209 278.92887242 9 280 C9 242.05 9 204.1 9 165 C-4.25298874 161.21343179 -17.14136493 160.26153721 -29.92578125 166.40625 C-40.19810743 172.56673982 -47.77839487 181.40833029 -55.08984375 190.75 C-57 193 -57 193 -60 195 C-63.5625 194.8125 -63.5625 194.8125 -67 194 C-69.342884 190.485674 -69.47979639 189.13759897 -69 185 C-67.41796875 182.4296875 -67.41796875 182.4296875 -65.1875 179.875 C-64.35992187 178.92625 -63.53234375 177.9775 -62.6796875 177 C-62.23850586 176.50886719 -61.79732422 176.01773438 -61.34277344 175.51171875 C-60.01249006 174.01406154 -58.72847303 172.47572302 -57.4453125 170.9375 C-47.21606438 158.87351245 -33.60855113 149.56926859 -17.421875 148.08203125 C-11.28310893 147.8741053 -5.1408982 147.93292708 1 148 C-3.14469502 138.32904495 -9.10966722 132.43561901 -18.60546875 127.91015625 C-29.34932453 123.82643945 -41.19915338 125.25373015 -51.63671875 129.35546875 C-56.20591054 131.58964964 -60.23702215 134.3528497 -64.28125 137.42578125 C-67.50377116 139.29169508 -69.33263152 139.45842106 -73 139 C-73.99 138.34 -74.98 137.68 -76 137 C-76.61395028 131.5621547 -76.61395028 131.5621547 -76 129 C-68.25232316 119.63367706 -53.41477441 112.8910644 -41.52880859 111.76611328 C-24.00336159 110.84510139 -10.12963194 114.08164804 4 125 C1.66038195 113.65080018 -2.06787012 108.65898056 -11.6875 102.3125 C-18.76837393 97.8222125 -25.99351654 95.0831786 -34.0625 92.875 C-37 92 -37 92 -39 90 C-39.265625 88.125 -39.265625 88.125 -39.25 86 C-39.25515625 85.29875 -39.2603125 84.5975 -39.265625 83.875 C-39 82 -39 82 -37 80 C-26.6164942 77.92329884 -14.76429794 83.00724546 -6.125 88.375 C-4.39913435 89.55815678 -2.68998092 90.76612938 -1 92 C-0.16339844 92.60328125 0.67320312 93.2065625 1.53515625 93.828125 C8.09618329 98.73555986 12.08415217 103.86756288 16 111 C18.29671564 108.12910545 20.01513961 105.17593815 21.64453125 101.87890625 C29.18007484 91.43338329 44.19189248 84.90696615 56 81 C57.485 80.505 57.485 80.505 59 80 C62.38720593 79.61002563 65.62050398 79.5058552 69 80 C71.1875 82.0625 71.1875 82.0625 72 85 C71.6875 88.8125 71.6875 88.8125 71 92 C70.27296875 92.15855469 69.5459375 92.31710938 68.796875 92.48046875 C55.06460263 95.66706016 40.17749867 100.73375199 32 113 C28.61239383 119.29355161 28.61239383 119.29355161 29 126 C29.70125 125.2575 30.4025 124.515 31.125 123.75 C42.24428436 113.11416278 56.06209631 111.41505555 70.7734375 111.66015625 C84.42669995 112.25819992 97.85989047 119.00043003 108 128 C109.01386845 131.24437905 109.31819728 133.09436158 108.1875 136.3125 C107 138 107 138 105 139 C99.06353515 139.816703 95.9188803 137.40499298 91.25 134.1875 C79.76731887 126.71143623 69.22921547 123.88838368 55.3203125 126.50390625 C50.19860904 128.05459501 45.13920899 130.58261492 41 134 C41 134.66 41 135.32 41 136 C40.40703125 136.22429687 39.8140625 136.44859375 39.203125 136.6796875 C36.35498583 138.38655104 35.37197983 140.24967212 33.75 143.125 C33.22921875 144.03507813 32.7084375 144.94515625 32.171875 145.8828125 C31.78515625 146.58148438 31.3984375 147.28015625 31 148 C32.06476563 147.96519531 33.12953125 147.93039063 34.2265625 147.89453125 C54.1146548 147.43818147 69.82060422 152.14141512 84.79296875 165.61328125 C100.44036061 180.61615811 100.44036061 180.61615811 101.375 187.9375 C101 191 101 191 99.4375 193.4375 C97 195 97 195 93.71875 195.0078125 C88.78801096 193.67154079 87.09136058 191.37739493 84.0625 187.4375 C83.01510981 186.15194104 81.96563554 184.86807719 80.9140625 183.5859375 C80.41293945 182.96557617 79.91181641 182.34521484 79.39550781 181.70605469 C70.66831025 171.03676558 59.95674237 163.41932973 46 162 C38.87653638 161.54618861 31.95897566 162.45230574 25 164 C23.36282011 165.63717989 23.81471522 167.52372406 23.75862122 169.7849884 C23.73123367 170.82079041 23.70384613 171.85659241 23.67562866 172.92378235 C23.63860336 174.6433741 23.63860336 174.6433741 23.60083008 176.39770508 C23.57177078 177.59777191 23.54271149 178.79783875 23.51277161 180.03427124 C23.25824303 191.13967328 23.10395226 202.24669503 22.98524952 213.35431385 C22.90363014 220.81946943 22.78831706 228.28091917 22.5871582 235.74389648 C22.41162837 242.25684769 22.30055597 248.76720934 22.26573676 255.282489 C22.24523213 258.72881551 22.19424414 262.16816309 22.06629372 265.61231422 C21.04087301 279.62264165 21.04087301 279.62264165 25.73836899 292.29791832 C29.92570668 296.14287719 34.59435671 298.65824127 39.76149845 300.95221138 C43.15841239 302.54222492 46.10195319 304.60285113 49.1875 306.73046875 C50.31329174 307.47204431 51.44089526 308.21088371 52.57104492 308.94580078 C53.12956146 309.31094788 53.688078 309.67609497 54.26351929 310.05230713 C54.83655792 310.42692078 55.40959656 310.80153442 56 311.1875 C57.24523933 312.00237911 58.49043686 312.81732211 59.7355957 313.63232422 C62.88494633 315.69339815 66.03490804 317.75353575 69.18511963 319.81329346 C70.93260291 320.95593067 72.67995353 322.0987704 74.42724609 323.24169922 C80.88349249 327.46474287 87.34065839 331.68637773 93.79833984 335.90722656 C99.19927746 339.4375634 104.59959827 342.9688435 110 346.5 C111.60584961 347.54994141 111.60584961 347.54994141 113.24414062 348.62109375 C128.1836239 358.3888715 128.1836239 358.3888715 132.90332031 361.48071289 C135.08196033 362.9031776 137.26488053 364.31910957 139.45214844 365.72827148 C144.74352843 369.14751998 149.91976164 372.6379498 154.97265625 376.40234375 C168.10267836 385.97696011 177.72078419 389.34207399 194 387 C207.71363449 353.73736478 216.76115859 320.15868371 218 284 C218.04125 282.87851562 218.0825 281.75703125 218.125 280.6015625 C219.28826257 215.89508202 195.70160864 148.33645956 151 101 C149.93277054 99.75403551 148.87020443 98.50406044 147.8125 97.25 C139.07830433 87.25937711 129.49207265 78.11762905 119 70 C117.99582031 69.20207031 116.99164063 68.40414062 115.95703125 67.58203125 C69.66037437 31.00952589 12.27351723 11.45745475 -46.625 11.6875 C-47.59488861 11.68932281 -48.56477722 11.69114563 -49.5640564 11.69302368 C-63.9063186 11.73838767 -77.89265067 12.20662597 -92 15 Z M-176.98828125 180.79296875 C-178.13876953 181.97826172 -178.13876953 181.97826172 -179.3125 183.1875 C-180.12074219 184.01378906 -180.92898437 184.84007812 -181.76171875 185.69140625 C-182.86966797 186.83416016 -182.86966797 186.83416016 -184 188 C-189 193 -189 193 -190.609375 194.57421875 C-194.28319906 198.19114731 -197.75103135 201.91725893 -201.10546875 205.83203125 C-202.47383335 207.39789177 -203.87699524 208.93357558 -205.30078125 210.44921875 C-209.92067273 215.38668051 -213.34514531 219.7668629 -216 226 C-210.84379928 230.83740336 -206.0214405 233.71617835 -199.5 236.375 C-198.14370483 236.94516846 -198.14370483 236.94516846 -196.76000977 237.52685547 C-189.91296491 240.3529552 -182.95777786 242.77014762 -175.9375 245.125 C-162.75745043 249.5900914 -151.70253055 254.1282691 -144.9140625 267.0703125 C-141.60266086 274.81716956 -142.58453402 281.57312494 -145.6328125 289.21484375 C-150.46213783 299.05286934 -158.91033486 305.68804185 -167.20068359 312.51074219 C-168.91594643 313.93043056 -170.61170235 315.36962602 -172.30078125 316.8203125 C-177.84191681 321.5745512 -183.46833821 326.16601686 -189.25 330.625 C-194.94396878 335.02953267 -200.03482516 339.779108 -205 345 C-205.886875 345.825 -206.77375 346.65 -207.6875 347.5 C-213.9664448 354.28804843 -217.46302272 360.5568196 -217.42578125 369.8671875 C-216.58115542 376.08177385 -213.45120963 382.54879037 -209 387 C-206.12915518 387.19352613 -203.3551078 387.26036875 -200.48336792 387.24050903 C-199.59144466 387.24221788 -198.69952139 387.24392673 -197.78057015 387.24568737 C-194.77404339 387.24899727 -191.76773687 387.23795396 -188.76123047 387.22705078 C-186.61317958 387.22648699 -184.4651283 387.2268026 -182.31707764 387.22793579 C-176.47024161 387.22851156 -170.62348701 387.21672104 -164.77666998 387.20278788 C-158.67209119 387.1903178 -152.5675107 387.18911296 -146.46292114 387.18673706 C-134.89611475 387.18051131 -123.32934599 387.16408573 -111.7625562 387.14403808 C-98.59710653 387.12171308 -85.43165511 387.11069422 -72.26619124 387.10064721 C-45.17743993 387.07972042 -18.08872207 387.04452324 9 387 C9.34840944 375.56953684 9.61448752 364.14034654 9.77718258 352.70564461 C9.85529647 347.39494737 9.96110638 342.08789545 10.1315918 336.77929688 C10.29527212 331.65016166 10.38439255 326.52451707 10.42315865 321.39297104 C10.45075825 319.44133394 10.50466722 317.48987669 10.58595085 315.5397377 C11.32536348 305.32021786 11.32536348 305.32021786 7.55665398 296.22467995 C4.03054169 293.11149903 0.11376703 290.95238232 -4.11429977 288.93853569 C-7.00038837 287.50209467 -9.57611485 285.71788158 -12.23828125 283.90234375 C-14.26256908 282.58003732 -16.28731903 281.25843813 -18.3125 279.9375 C-19.42908582 279.20840892 -20.5456209 278.47924014 -21.66210938 277.75 C-23.96546464 276.24563528 -26.26903045 274.7415938 -28.57275391 273.23779297 C-34.05054053 269.66164652 -39.52505239 266.0804906 -45 262.5 C-47.16665232 261.08331139 -49.33331901 259.66664476 -51.5 258.25 C-64.5 249.75 -77.5 241.25 -90.5 232.75 C-91.5722583 232.04891113 -92.6445166 231.34782227 -93.74926758 230.62548828 C-95.91838712 229.20721155 -98.08749517 227.78891724 -100.2565918 226.37060547 C-105.63563599 222.8534295 -111.01487214 219.33654786 -116.39453125 215.8203125 C-118.53385998 214.42188389 -120.67318289 213.02344638 -122.8125 211.625 C-123.86421387 210.93760742 -124.91592773 210.25021484 -125.99951172 209.54199219 C-131.9365274 205.66054594 -137.87031937 201.77426185 -143.80078125 197.8828125 C-145.11807591 197.01870712 -146.4353773 196.15461201 -147.75268555 195.29052734 C-150.27170374 193.63815848 -152.78998708 191.98467772 -155.30786133 190.33056641 C-158.533654 188.21279475 -161.76508489 186.10381843 -165 184 C-165.83756836 183.45408203 -166.67513672 182.90816406 -167.53808594 182.34570312 C-172.29001897 178.69481925 -172.29001897 178.69481925 -176.98828125 180.79296875 Z M-217 198 C-219.10982846 198.93197269 -219.10982846 198.93197269 -221.4609375 200.40234375 C-222.85892578 201.23088867 -222.85892578 201.23088867 -224.28515625 202.07617188 C-225.30480469 202.69041016 -226.32445312 203.30464844 -227.375 203.9375 C-229.56953578 205.23959123 -231.76488097 206.54031901 -233.9609375 207.83984375 C-234.53390564 208.18002533 -235.10687378 208.52020691 -235.69720459 208.87069702 C-241.50549999 212.31461691 -247.36775357 215.66123546 -253.23791504 218.9982605 C-263.72863532 224.96220046 -274.19106656 230.97223584 -284.57446289 237.12182617 C-289.14169297 239.8140677 -293.71538327 242.40351056 -298.45703125 244.77734375 C-299.30120605 245.20934082 -300.14538086 245.64133789 -301.01513672 246.08642578 C-302.57405857 246.87547089 -304.14683865 247.63799674 -305.73486328 248.36669922 C-309.52401751 250.28787774 -309.52401751 250.28787774 -311.67529297 253.7890625 C-312.00065306 256.22052304 -312.02305168 258.54620405 -312 261 C-312.03343506 262.05453369 -312.06687012 263.10906738 -312.10131836 264.19555664 C-312.99438787 295.03322549 -309.4698129 325.04418716 -300.75 354.6875 C-300.51120117 355.51604492 -300.27240234 356.34458984 -300.02636719 357.19824219 C-296.83393872 367.53131831 -292.30933678 376.94488084 -288 387 C-267.87 387 -247.74 387 -227 387 C-228.32 383.04 -229.64 379.08 -231 375 C-232.52630089 362.38097689 -230.30151193 352.5283441 -222.9140625 342.32421875 C-220.75772988 339.70581486 -218.42382794 337.37194172 -216 335 C-214.90171875 333.84951172 -214.90171875 333.84951172 -213.78125 332.67578125 C-208.77350088 327.48795895 -203.57818353 322.98753013 -197.82275391 318.68310547 C-193.47210318 315.41595504 -189.46030024 311.89710491 -185.4609375 308.21484375 C-182.87302408 305.88572167 -180.20781137 303.68824532 -177.5 301.5 C-164.99746122 292.06152015 -164.99746122 292.06152015 -157 279.0625 C-157 274.83411514 -158.33362924 272.15377187 -161 269 C-169.59843909 260.97479018 -183.06502971 257.51060187 -194.0625 254.0625 C-205.84072431 250.21287175 -220.92448651 244.70073537 -228.265625 234.1875 C-230.25698852 230.13235974 -230.6499757 226.40539086 -230 222 C-226.60600189 213.03933076 -221.29393595 206.10515436 -215 199 C-215.99 198.505 -215.99 198.505 -217 198 Z M24 308 C24 334.07 24 360.14 24 387 C63.6 387 103.2 387 144 387 C140.2822639 384.02581112 136.58479696 381.29812161 132.625 378.6875 C131.98344971 378.26218994 131.34189941 377.83687988 130.6809082 377.39868164 C122.88618829 372.24315469 115.05048933 367.14979731 107.21875 362.05078125 C99.77549632 357.20442225 92.34213302 352.34297843 84.90942383 347.48046875 C79.41452766 343.88585184 73.91819159 340.2934936 68.41796875 336.70703125 C66.23685209 335.28404893 64.05586166 333.8608731 61.875 332.4375 C60.81571289 331.74615967 59.75642578 331.05481934 58.66503906 330.3425293 C53.11430897 326.7130429 47.57900443 323.06205232 42.06640625 319.375 C41.50538208 318.99988785 40.94435791 318.6247757 40.36633301 318.23829651 C37.67439859 316.43736173 34.98496672 314.6328196 32.29833984 312.82397461 C31.35297363 312.18983643 30.40760742 311.55569824 29.43359375 310.90234375 C28.59884521 310.34023193 27.76409668 309.77812012 26.90405273 309.19897461 C25.23398234 307.91119107 25.23398234 307.91119107 24 308 Z M-280 402 C-274.79434823 412.43696913 -274.79434823 412.43696913 -268.6875 422.1875 C-268.24599609 422.84041016 -267.80449219 423.49332031 -267.34960938 424.16601562 C-265.35465746 427.22612428 -265.35465746 427.22612428 -263 430 C-260.87916177 430.30169671 -258.75290797 430.5655519 -256.625 430.8125 C-246.09856358 432.27066157 -237.29768447 436.19761374 -227.75 440.73046875 C-219.40971288 444.58074334 -209.2958725 444.07670337 -200.68359375 441.12109375 C-197.27413701 439.69676466 -193.95408082 438.10026277 -190.625 436.5 C-176.85268113 429.91935811 -162.35212642 427.11304448 -147.625 432.1875 C-142.66424906 434.17293167 -137.87024659 436.41768125 -133.18359375 438.984375 C-124.62878182 442.96335729 -113.50397248 441.72131771 -104.7421875 439.0546875 C-101.72460275 437.89407798 -98.92804265 436.49603655 -96.0625 435 C-83.76353063 428.62040557 -71.00545121 427.13069888 -57.59765625 430.734375 C-53.71407246 432.10058689 -50.02670806 433.73665883 -46.27856445 435.43310547 C-35.43070587 440.33041655 -27.42046013 443.30852042 -15.6875 439.4375 C-12.53215156 438.18888354 -9.60036567 436.78498937 -6.609375 435.17578125 C6.14258178 428.37508223 17.93688974 428.09397056 31.75 432.1875 C35.77471942 433.45049112 39.69627925 434.8785117 43.61328125 436.4453125 C58.8272693 442.47577209 72.21745716 440.00985936 87.5 436 C101.6581636 432.28515716 115.60648905 429.47270564 130 434.0625 C130.73492676 434.2785791 131.46985352 434.4946582 132.22705078 434.71728516 C138.32456039 436.59052992 144.14623537 439.05385897 149.875 441.85180664 C152.3279209 443.02149839 154.4123174 443.98722429 157.15625 444.046875 C160.0146397 442.42389102 161.72093287 439.98100464 163.625 437.375 C164.05594971 436.79814453 164.48689941 436.22128906 164.9309082 435.62695312 C168.11353765 431.31958301 171.18442522 426.93410925 174.1875 422.5 C174.56664551 421.94489746 174.94579102 421.38979492 175.33642578 420.81787109 C179.36991363 414.73923448 182.4948143 408.50963058 186 402 C32.22 402 -121.56 402 -280 402 Z M-90.8125 448.4375 C-104.17553842 455.34499869 -120.24519385 457.78673822 -134.99072266 453.6887207 C-138.73889889 452.40395701 -142.26367363 450.68842139 -145.8125 448.9375 C-147.29750621 448.21606534 -148.78315763 447.49595691 -150.26953125 446.77734375 C-150.91510986 446.46015381 -151.56068848 446.14296387 -152.22583008 445.81616211 C-159.62305698 442.41325451 -168.53356918 443.27368337 -176.1015625 445.80859375 C-180.72047928 447.7072051 -185.21760397 449.87526582 -189.67260742 452.13085938 C-201.15745231 457.81063721 -216.46970987 459.68293192 -228.90625 456.01953125 C-232.04329567 454.82848003 -235.01117203 453.52236705 -238 452 C-238.82371094 451.58492187 -239.64742187 451.16984375 -240.49609375 450.7421875 C-241.21925781 450.37351562 -241.94242187 450.00484375 -242.6875 449.625 C-243.780625 449.08875 -244.87375 448.5525 -246 448 C-246.99 448.495 -246.99 448.495 -248 449 C-236.65839137 462.33420994 -224.24803537 475.35489437 -210.09375 485.72265625 C-207 488 -207 488 -204.15625 490.43359375 C-198.24210176 495.3365586 -193.97506618 497.05628401 -186.2421875 496.51953125 C-177.1874948 495.06859856 -168.97606903 491.25318524 -160.6940918 487.46264648 C-148.40802514 481.88851315 -135.20787671 480.75087925 -122.375 485.25 C-117.44824238 487.25593476 -112.7376513 489.589616 -108 492 C-96.89208747 496.27227405 -85.84868533 493.95657935 -75 490 C-72.40033997 488.79959041 -69.87745823 487.50453972 -67.34375 486.171875 C-54.64809145 479.82404572 -41.20070625 480.90416311 -27.99121094 485.28027344 C-22.97217394 487.09441285 -18.11028043 489.27993191 -13.265625 491.51171875 C-6.38835077 494.64597889 -0.05880113 495.17146236 7.26171875 493.05859375 C12.44011516 491.1036725 17.39453609 488.84691085 22.3125 486.3125 C37.01194195 478.84499503 50.84282026 483.40279009 65.74414062 488.23779297 C68.6276898 489.21208307 71.4647239 490.30131145 74.3125 491.375 C85.7576404 495.1953975 99.94640431 493.91859899 111 489 C116.18562247 485.99528504 120.59072484 482.02254128 125 478 C126.14840232 476.97652303 127.29683978 475.95308548 128.4453125 474.9296875 C134.83802965 469.16687612 140.98461605 463.1552766 147 457 C135.82331397 449.54887598 120.36188196 444.82001549 107 446 C102.24776292 446.9636706 97.58071887 448.17766126 92.89541626 449.42153931 C72.84559916 454.67447 55.66861849 456.92743882 36 449 C33.26650939 448.00902652 30.51355511 447.09065472 27.75 446.1875 C25.91695313 445.55908203 25.91695313 445.55908203 24.046875 444.91796875 C14.12124906 442.28582115 6.63103549 444.39445668 -2.3125 448.9375 C-14.12133169 454.7657557 -26.43491723 457.47115724 -39.5078125 454.09375 C-42.74463357 452.85310114 -45.8631838 451.47480031 -49 450 C-50.87525752 449.17243094 -52.75622082 448.35949023 -54.63989258 447.55126953 C-56.40125107 446.7925376 -58.15404975 446.01402373 -59.90625 445.234375 C-70.81593656 440.88152026 -80.78522606 443.17474667 -90.8125 448.4375 Z M-65.08789062 501.17871094 C-68.03714963 502.44547642 -71.01378566 503.63590403 -74 504.8125 C-74.99 505.21082031 -75.98 505.60914063 -77 506.01953125 C-92.85444145 511.20112605 -109.11549327 508.02381173 -123.625 500.8125 C-124.58664063 500.30332031 -125.54828125 499.79414062 -126.5390625 499.26953125 C-133.03222213 495.91988541 -140.70139953 495.98207179 -147.73828125 497.6484375 C-150.5561647 498.64902131 -153.26432715 499.79154016 -156 501 C-157.40162515 501.58635613 -158.80402622 502.17085955 -160.20703125 502.75390625 C-161.68048409 503.37571994 -163.15314382 503.99941634 -164.625 504.625 C-165.692948 505.07661499 -165.692948 505.07661499 -166.7824707 505.53735352 C-170.57114063 506.97743472 -170.57114063 506.97743472 -173 510 C-137.48788953 527.78724529 -99.37461229 540.99238244 -59.20703125 541.203125 C-58.30649017 541.21013931 -57.4059491 541.21715363 -56.4781189 541.22438049 C-53.58952774 541.24177902 -50.70114163 541.2482324 -47.8125 541.25 C-46.33144272 541.25101212 -46.33144272 541.25101212 -44.82046509 541.25204468 C-30.32671207 541.23629396 -16.26320556 540.77370989 -2 538 C-0.67838867 537.76651855 -0.67838867 537.76651855 0.66992188 537.52832031 C28.30693607 532.6148554 55.6085242 522.88019252 80 509 C77.35523671 506.35523671 74.43339943 505.72645198 70.9375 504.6875 C70.23375244 504.47383789 69.53000488 504.26017578 68.80493164 504.04003906 C67.30837217 503.58728728 65.81086192 503.13766843 64.3125 502.69091797 C62.00756005 502.00225876 59.7067859 501.3008704 57.40625 500.59765625 C55.91687538 500.14774601 54.42729764 499.6985075 52.9375 499.25 C51.90387329 498.93421997 51.90387329 498.93421997 50.84936523 498.61206055 C38.02659588 494.80620154 30.94647787 497.86612133 19.4921875 503.48632812 C8.78019326 508.67211347 -3.16018876 510.0519214 -14.74609375 507.01953125 C-17.91137806 505.80784998 -20.95093715 504.47807756 -24 503 C-25.56041857 502.28709311 -27.12273904 501.57832461 -28.6875 500.875 C-29.39261719 500.55789063 -30.09773437 500.24078125 -30.82421875 499.9140625 C-43.9584814 494.39625736 -52.32385149 495.65445528 -65.08789062 501.17871094 Z " fill="#1A61EF" transform="translate(327,63)"/>
<path d="M0 0 C4.04218807 3.64739711 7.82983101 7.56811226 11.6796875 11.41796875 C12.0096875 1.84796875 12.3396875 -7.72203125 12.6796875 -17.58203125 C29.1796875 -17.58203125 45.6796875 -17.58203125 62.6796875 -17.58203125 C62.6796875 18.05796875 62.6796875 53.69796875 62.6796875 90.41796875 C46.8396875 90.41796875 30.9996875 90.41796875 14.6796875 90.41796875 C12.6996875 82.49796875 12.6996875 82.49796875 10.6796875 74.41796875 C3.59895404 57.14788713 -9.35769894 45.79210987 -26.3203125 38.41796875 C-52.03562307 28.20747779 -85.36113708 27.90469236 -111.1640625 37.97265625 C-125.15994155 44.38166027 -132.04741446 52.63398799 -137.6328125 66.73046875 C-139.76784115 78.18198607 -138.03173392 87.40750606 -132.6328125 97.60546875 C-118.60663755 114.66433017 -96.21652866 118.71651081 -75.53429413 122.72636223 C-73.03041175 123.21214813 -70.52877559 123.70837577 -68.02740479 124.20692444 C-61.81803551 125.44253877 -55.60558808 126.66233908 -49.39276123 127.88043213 C4.96992357 138.54316957 4.96992357 138.54316957 26.6796875 149.41796875 C27.37964844 149.76730469 28.07960938 150.11664063 28.80078125 150.4765625 C51.26816356 161.89852781 68.71471664 179.42341266 76.6484375 203.70703125 C85.50935217 235.59289844 81.88106663 269.06546731 65.79296875 297.8984375 C62.92405121 302.82586638 59.41823536 307.128477 55.6796875 311.41796875 C55.20144531 312.02769531 54.72320313 312.63742187 54.23046875 313.265625 C33.329394 339.55666172 -1.67259937 349.78855368 -33.49609375 353.8203125 C-71.66290519 357.51061347 -118.30140938 353.68634177 -149.3828125 328.85546875 C-153.96749356 324.94208874 -158.02917531 320.70910594 -162.3203125 316.41796875 C-162.6503125 326.97796875 -162.9803125 337.53796875 -163.3203125 348.41796875 C-179.8203125 348.41796875 -196.3203125 348.41796875 -213.3203125 348.41796875 C-213.3203125 307.49796875 -213.3203125 266.57796875 -213.3203125 224.41796875 C-197.4803125 224.41796875 -181.6403125 224.41796875 -165.3203125 224.41796875 C-163.99559165 227.06741046 -163.81656286 229.73113383 -163.4206543 232.63867188 C-160.6165318 252.8830684 -153.48807935 271.44786628 -136.6953125 284.16796875 C-109.82985339 301.8010255 -69.0499178 301.92734859 -38.6171875 295.92285156 C-28.91578647 293.79035822 -20.20123172 290.61962038 -12.3203125 284.41796875 C-11.2684375 283.65484375 -10.2165625 282.89171875 -9.1328125 282.10546875 C-0.86921431 274.20914159 4.66681575 262.81551389 4.9296875 251.29296875 C4.75457258 240.75105079 0.9485953 232.27632057 -6.03125 224.515625 C-19.19459384 211.82438421 -40.42276631 208.32225486 -57.77194977 204.92437935 C-60.41846516 204.40570078 -63.06250047 203.8756504 -65.70623779 203.34300232 C-72.26973662 202.02281224 -78.8366855 200.7201655 -85.4039917 199.41906738 C-90.97600263 198.31465714 -96.54631002 197.20227535 -102.11467743 196.07963371 C-104.67838176 195.56592214 -107.2440951 195.06338557 -109.81011963 194.56141663 C-140.01745295 188.54438384 -167.34929559 178.69350426 -189.3203125 156.41796875 C-190.56941406 155.18433594 -190.56941406 155.18433594 -191.84375 153.92578125 C-208.99326243 136.07389971 -214.76199063 111.94603086 -214.6953125 87.85546875 C-214.69510101 87.14997894 -214.69488953 86.44448914 -214.69467163 85.71762085 C-214.66119114 74.5159363 -213.7829715 64.12279036 -210.3203125 53.41796875 C-209.94648438 52.26039063 -209.57265625 51.1028125 -209.1875 49.91015625 C-199.4898577 22.74391324 -180.09869281 2.07370533 -154.50390625 -10.69921875 C-109.12483925 -31.94893503 -40.40045287 -32.56477785 0 0 Z " fill="#1A61EF" transform="translate(2289.3203125,169.58203125)"/>
<path d="M0 0 C4.04218807 3.64739711 7.82983101 7.56811226 11.6796875 11.41796875 C12.0096875 1.84796875 12.3396875 -7.72203125 12.6796875 -17.58203125 C29.1796875 -17.58203125 45.6796875 -17.58203125 62.6796875 -17.58203125 C62.6796875 18.05796875 62.6796875 53.69796875 62.6796875 90.41796875 C46.8396875 90.41796875 30.9996875 90.41796875 14.6796875 90.41796875 C12.6996875 82.49796875 12.6996875 82.49796875 10.6796875 74.41796875 C3.59895404 57.14788713 -9.35769894 45.79210987 -26.3203125 38.41796875 C-52.03562307 28.20747779 -85.36113708 27.90469236 -111.1640625 37.97265625 C-125.15994155 44.38166027 -132.04741446 52.63398799 -137.6328125 66.73046875 C-139.76784115 78.18198607 -138.03173392 87.40750606 -132.6328125 97.60546875 C-118.60663755 114.66433017 -96.21652866 118.71651081 -75.53429413 122.72636223 C-73.03041175 123.21214813 -70.52877559 123.70837577 -68.02740479 124.20692444 C-61.81803551 125.44253877 -55.60558808 126.66233908 -49.39276123 127.88043213 C4.96992357 138.54316957 4.96992357 138.54316957 26.6796875 149.41796875 C27.37964844 149.76730469 28.07960938 150.11664063 28.80078125 150.4765625 C51.26816356 161.89852781 68.71471664 179.42341266 76.6484375 203.70703125 C85.50935217 235.59289844 81.88106663 269.06546731 65.79296875 297.8984375 C62.92405121 302.82586638 59.41823536 307.128477 55.6796875 311.41796875 C55.20144531 312.02769531 54.72320313 312.63742187 54.23046875 313.265625 C33.329394 339.55666172 -1.67259937 349.78855368 -33.49609375 353.8203125 C-71.66290519 357.51061347 -118.30140938 353.68634177 -149.3828125 328.85546875 C-153.96749356 324.94208874 -158.02917531 320.70910594 -162.3203125 316.41796875 C-162.6503125 326.97796875 -162.9803125 337.53796875 -163.3203125 348.41796875 C-179.8203125 348.41796875 -196.3203125 348.41796875 -213.3203125 348.41796875 C-213.3203125 307.49796875 -213.3203125 266.57796875 -213.3203125 224.41796875 C-197.4803125 224.41796875 -181.6403125 224.41796875 -165.3203125 224.41796875 C-163.99559165 227.06741046 -163.81656286 229.73113383 -163.4206543 232.63867188 C-160.6165318 252.8830684 -153.48807935 271.44786628 -136.6953125 284.16796875 C-109.82985339 301.8010255 -69.0499178 301.92734859 -38.6171875 295.92285156 C-28.91578647 293.79035822 -20.20123172 290.61962038 -12.3203125 284.41796875 C-11.2684375 283.65484375 -10.2165625 282.89171875 -9.1328125 282.10546875 C-0.86921431 274.20914159 4.66681575 262.81551389 4.9296875 251.29296875 C4.75457258 240.75105079 0.9485953 232.27632057 -6.03125 224.515625 C-19.19459384 211.82438421 -40.42276631 208.32225486 -57.77194977 204.92437935 C-60.41846516 204.40570078 -63.06250047 203.8756504 -65.70623779 203.34300232 C-72.26973662 202.02281224 -78.8366855 200.7201655 -85.4039917 199.41906738 C-90.97600263 198.31465714 -96.54631002 197.20227535 -102.11467743 196.07963371 C-104.67838176 195.56592214 -107.2440951 195.06338557 -109.81011963 194.56141663 C-140.01745295 188.54438384 -167.34929559 178.69350426 -189.3203125 156.41796875 C-190.56941406 155.18433594 -190.56941406 155.18433594 -191.84375 153.92578125 C-208.99326243 136.07389971 -214.76199063 111.94603086 -214.6953125 87.85546875 C-214.69510101 87.14997894 -214.69488953 86.44448914 -214.69467163 85.71762085 C-214.66119114 74.5159363 -213.7829715 64.12279036 -210.3203125 53.41796875 C-209.94648437 52.26039063 -209.57265625 51.1028125 -209.1875 49.91015625 C-199.4898577 22.74391324 -180.09869281 2.07370533 -154.50390625 -10.69921875 C-109.12483925 -31.94893503 -40.40045287 -32.56477785 0 0 Z " fill="#1A61EF" transform="translate(1736.3203125,169.58203125)"/>
<path d="M0 0 C51.81 0 103.62 0 157 0 C157 17.49 157 34.98 157 53 C143.14 53 129.28 53 115 53 C115 138.8 115 224.6 115 313 C128.86 313 142.72 313 157 313 C157 330.49 157 347.98 157 366 C105.19 366 53.38 366 0 366 C0 348.51 0 331.02 0 313 C13.86 313 27.72 313 42 313 C42 227.2 42 141.4 42 53 C28.14 53 14.28 53 0 53 C0 35.51 0 18.02 0 0 Z " fill="#1A61EF" transform="translate(1861,152)"/>
</svg>
