<?xml version="1.0" encoding="UTF-8"?>
<svg version="1.1" xmlns="http://www.w3.org/2000/svg" width="600" height="600">
<path d="M0 0 C0.81815186 -0.01521698 1.63630371 -0.03043396 2.47924805 -0.04611206 C20.05051376 -0.31025015 37.16025238 0.22470426 54.53515625 2.99609375 C55.31293427 3.11816193 56.09071228 3.2402301 56.89205933 3.36599731 C96.50899342 9.72329604 140.86139185 24.21171521 172.59765625 49.30859375 C172.59765625 49.96859375 172.59765625 50.62859375 172.59765625 51.30859375 C173.45677612 51.7104187 173.45677612 51.7104187 174.33325195 52.12036133 C176.67854486 53.35103956 178.7003596 54.74472957 180.828125 56.3203125 C181.63185547 56.91392578 182.43558594 57.50753906 183.26367188 58.11914062 C184.09576172 58.73853516 184.92785156 59.35792969 185.78515625 59.99609375 C186.59791016 60.59615234 187.41066406 61.19621094 188.24804688 61.81445312 C190.70617499 63.63507148 193.153662 65.46905449 195.59765625 67.30859375 C196.40195068 67.90929687 197.20624512 68.51 198.03491211 69.12890625 C202.41609515 72.45447569 206.19893833 75.76469051 209.78515625 79.93359375 C213.55990097 84.23589052 213.55990097 84.23589052 217.84765625 87.99609375 C220.81565915 90.49191437 222.79846556 93.09505685 225.046875 96.2265625 C226.55101951 98.2459807 228.14938901 100.07623824 229.84765625 101.93359375 C233.1543314 105.64804274 236.07652171 109.5849034 238.97265625 113.62109375 C239.41383789 114.23227051 239.85501953 114.84344727 240.30957031 115.47314453 C242.15130362 118.07014689 243.5848161 120.27007329 244.59765625 123.30859375 C245.58765625 123.63859375 246.57765625 123.96859375 247.59765625 124.30859375 C250.15100973 127.72331948 252.22008225 131.45710736 254.34960938 135.14746094 C255.20235052 136.62407765 256.06342733 138.09590372 256.93164062 139.56347656 C269.45585154 160.83018058 279.59004642 184.33016838 285.59765625 208.30859375 C286.09072266 210.02949219 286.09072266 210.02949219 286.59375 211.78515625 C290.21898171 224.96012285 292.01969341 238.54797615 294.08862305 252.03564453 C294.40723321 254.08422382 294.75581392 256.12861603 295.1484375 258.16430664 C295.73372369 262.26099187 295.79831022 266.28818837 295.8359375 270.421875 C295.85035637 271.74035934 295.85035637 271.74035934 295.86506653 273.08547974 C295.88978206 275.93072392 295.9023329 278.77575465 295.91015625 281.62109375 C295.91343933 282.5879007 295.91672241 283.55470764 295.92010498 284.55081177 C295.93593314 298.93457275 295.13899617 312.60358251 292.12744141 326.71191406 C291.5482201 329.55089923 291.08369821 332.39635547 290.62890625 335.2578125 C284.63097928 371.8111612 269.64631665 412.99583749 246.59765625 442.30859375 C245.93765625 442.30859375 245.27765625 442.30859375 244.59765625 442.30859375 C244.19353516 443.1284375 244.19353516 443.1284375 243.78125 443.96484375 C239.23960959 452.95819109 234.14514422 460.354248 227.20703125 467.5859375 C225.16618715 469.71538112 223.2398799 471.86310522 221.34765625 474.12109375 C212.64134193 484.10405512 203.09701478 494.53025247 191.59765625 501.30859375 C190.93765625 501.30859375 190.27765625 501.30859375 189.59765625 501.30859375 C189.345 501.90671875 189.09234375 502.50484375 188.83203125 503.12109375 C187.4431046 505.58248276 186.13617349 506.67647293 183.84765625 508.30859375 C182.7803125 509.07816406 182.7803125 509.07816406 181.69140625 509.86328125 C179.92841574 511.08027096 178.14064746 512.26125335 176.34765625 513.43359375 C173.6178036 515.154873 173.6178036 515.154873 171.77734375 517.21484375 C169.34432074 519.55194112 166.91124711 521.03209018 163.97265625 522.68359375 C159.64964445 525.12193714 159.64964445 525.12193714 155.39379883 527.67431641 C148.98762289 531.63580282 142.40639469 534.86041825 135.53515625 537.93359375 C134.51099609 538.39765625 133.48683594 538.86171875 132.43164062 539.33984375 C130.41030031 540.25429036 128.38631905 541.16292386 126.35961914 542.06542969 C124.72151606 542.80274259 123.0899581 543.55540849 121.47436523 544.34082031 C113.59506958 548.10480896 105.13904088 550.35107569 96.78515625 552.80859375 C95.9575177 553.05326385 95.12987915 553.29793396 94.27716064 553.55001831 C82.16469709 557.11870945 70.1194884 560.51197057 57.59765625 562.30859375 C56.88818848 562.41461914 56.1787207 562.52064453 55.44775391 562.62988281 C1.11711854 570.41406098 -61.98181605 564.28704443 -110.61474609 537.27636719 C-113.21160207 535.87047575 -115.86955541 534.59915544 -118.52661133 533.31176758 C-126.48196415 529.4437585 -133.94084971 525.05490378 -141.40234375 520.30859375 C-142.81966797 519.51388672 -142.81966797 519.51388672 -144.265625 518.703125 C-145.32330078 518.01283203 -145.32330078 518.01283203 -146.40234375 517.30859375 C-146.40234375 516.64859375 -146.40234375 515.98859375 -146.40234375 515.30859375 C-147.2536084 514.91353638 -147.2536084 514.91353638 -148.12207031 514.51049805 C-150.57068219 513.21986461 -152.67107397 511.73659617 -154.88671875 510.078125 C-155.74007812 509.43939453 -156.5934375 508.80066406 -157.47265625 508.14257812 C-158.35695313 507.47548828 -159.24125 506.80839844 -160.15234375 506.12109375 C-161.45558594 505.14946289 -161.45558594 505.14946289 -162.78515625 504.15820312 C-168.20056434 500.08851581 -173.37226267 495.84412522 -178.40234375 491.30859375 C-178.94101074 490.830271 -179.47967773 490.35194824 -180.03466797 489.85913086 C-186.23901394 484.33986049 -192.13089993 478.74001299 -197.40234375 472.30859375 C-198.58376953 470.90287109 -198.58376953 470.90287109 -199.7890625 469.46875 C-202.35645081 466.38701878 -204.8336802 463.23902814 -207.27734375 460.05859375 C-207.92533936 459.21760132 -207.92533936 459.21760132 -208.58642578 458.35961914 C-211.81268154 454.14513551 -214.87368377 449.83747659 -217.83203125 445.4296875 C-219.36091948 443.24451485 -219.36091948 443.24451485 -221.38671875 441.3828125 C-223.70266521 438.99954202 -225.15038694 436.57850751 -226.77734375 433.68359375 C-228.90595652 429.93253516 -231.06193675 426.22062408 -233.33984375 422.55859375 C-251.76024731 391.77648701 -262.5937384 355.68974751 -267.40234375 320.30859375 C-267.5307666 319.37112305 -267.65918945 318.43365234 -267.79150391 317.46777344 C-274.82498965 263.10827386 -265.30265285 204.40954787 -239.70361328 155.796875 C-238.53821269 153.56840168 -237.42319619 151.32594588 -236.3359375 149.05859375 C-233.27022393 142.67251995 -229.8826227 136.6279887 -225.98046875 130.7109375 C-224.89188981 129.05381858 -223.85120714 127.36458142 -222.8515625 125.65234375 C-221.06814169 122.76810525 -218.79696804 120.70321804 -216.40234375 118.30859375 C-215.0495626 116.32169644 -213.7166607 114.32114157 -212.40234375 112.30859375 C-210.81568138 110.19785199 -209.17929385 108.27259123 -207.40234375 106.30859375 C-206.74234375 106.30859375 -206.08234375 106.30859375 -205.40234375 106.30859375 C-205.15484375 105.77234375 -204.90734375 105.23609375 -204.65234375 104.68359375 C-198.99073932 93.92654534 -189.78298709 85.57199634 -181.33984375 76.99609375 C-180.58429199 76.21911133 -179.82874023 75.44212891 -179.05029297 74.64160156 C-174.99954699 70.56707429 -171.09388222 67.16575974 -166.07617188 64.34106445 C-164.13587218 63.23776897 -164.13587218 63.23776897 -161.96484375 60.80859375 C-159.63538126 58.53594742 -157.92141704 57.41219687 -155.08984375 55.93359375 C-151.93476963 54.27113218 -149.47206712 52.58687325 -146.90234375 50.12109375 C-141.16478401 44.87402122 -134.28309936 41.29223954 -127.53808594 37.5078125 C-125.64372065 36.44412682 -123.76091117 35.36265848 -121.87890625 34.27734375 C-102.24337319 23.31379668 -80.97013879 15.4990626 -59.40234375 9.30859375 C-58.64759766 9.09122559 -57.89285156 8.87385742 -57.11523438 8.64990234 C-44.13453245 5.01934316 -30.71783677 3.49195873 -17.3840332 1.72583008 C-15.43126021 1.45257297 -13.48379951 1.13731845 -11.54541016 0.77587891 C-7.69570664 0.20353678 -3.88407264 0.07081407 0 0 Z M-136.87109375 57.73828125 C-139.0172965 59.06972185 -141.17954262 60.29992535 -143.40234375 61.49609375 C-146.48015303 63.18350536 -146.48015303 63.18350536 -148.77734375 65.74609375 C-151.67590413 68.57564079 -154.51532361 70.12485143 -158.12109375 71.90234375 C-160.99878777 73.67626472 -163.034372 75.89436415 -165.40234375 78.30859375 C-167.15972847 80.05511804 -168.91756265 81.80119017 -170.67578125 83.546875 C-172.19147622 85.05518605 -173.70668438 86.56398425 -175.22167969 88.07299805 C-176.25430485 89.10059945 -177.28782643 90.12730089 -178.32226562 91.15307617 C-186.06661875 98.83453726 -193.51375445 106.54391263 -199.96484375 115.37109375 C-202.37144552 118.63690529 -204.76101579 121.78059017 -207.52734375 124.74609375 C-211.01718491 128.69740152 -213.20636055 133.33747152 -215.62109375 137.9921875 C-217.23057243 140.98878268 -218.96047555 143.78922758 -220.83984375 146.62109375 C-224.43603319 152.16789487 -227.38550829 157.93898955 -230.25488281 163.8840332 C-231.59115151 166.6479061 -232.94742045 169.39969192 -234.32714844 172.14208984 C-239.25063601 182.07754993 -242.87328426 192.10809877 -245.96801758 202.74707031 C-246.71588079 205.31215068 -247.48816784 207.86893833 -248.26367188 210.42578125 C-251.41119145 220.96271764 -253.75725944 231.43642607 -255.40234375 242.30859375 C-251.85799948 240.96403677 -248.59435182 239.39631031 -245.2890625 237.54296875 C-243.80696289 236.71345703 -243.80696289 236.71345703 -242.29492188 235.8671875 C-241.23724609 235.27035156 -240.17957031 234.67351562 -239.08984375 234.05859375 C-237.42791992 233.12466797 -237.42791992 233.12466797 -235.73242188 232.171875 C-227.24657449 227.38745509 -218.82733558 222.4935344 -210.42651367 217.56152344 C-203.30033762 213.3877781 -196.11840342 209.32467291 -188.90234375 205.30859375 C-179.76434066 200.22099088 -170.70284569 195.01858154 -161.68115234 189.7277832 C-153.49328003 184.9307184 -145.26767205 180.20224591 -137.02734375 175.49609375 C-136.40644867 175.14121887 -135.78555359 174.78634399 -135.14584351 174.42071533 C-121.90727825 166.85600986 -121.90727825 166.85600986 -115.40234375 167.30859375 C-112.55078125 168.61865234 -112.55078125 168.61865234 -109.77734375 170.45703125 C-108.23542358 171.46237915 -108.23542358 171.46237915 -106.66235352 172.48803711 C-105.58655029 173.2125708 -104.51074707 173.93710449 -103.40234375 174.68359375 C-102.26906707 175.43051451 -101.13486263 176.17602943 -99.99975586 176.92016602 C-96.78832214 179.03138713 -93.59448022 181.16829676 -90.40234375 183.30859375 C-89.05006951 184.20661876 -87.69731783 185.10392597 -86.34375 186 C-84.04955981 187.52242539 -81.76177798 189.05398669 -79.4765625 190.58984375 C-74.10666096 194.18725018 -68.68908496 197.71209977 -63.27734375 201.24609375 C-62.15893459 201.97647965 -61.04052639 202.70686704 -59.92211914 203.43725586 C-58.19425615 204.56562876 -56.46638301 205.69398608 -54.7384491 206.82225037 C-48.12152213 211.14356594 -41.51202518 215.47620771 -34.90234375 219.80859375 C-25.73921736 225.81401867 -16.57294685 231.81458879 -7.40234375 237.80859375 C2.37647196 244.20013303 12.15008171 250.59956661 21.92077637 257.00350952 C28.57617957 261.36556928 35.23295447 265.72549751 41.89453125 270.078125 C42.48403564 270.4633432 43.07354004 270.8485614 43.6809082 271.24545288 C46.46593022 273.06525772 49.25127188 274.88456849 52.03710938 276.703125 C53.03162109 277.3528125 54.02613281 278.0025 55.05078125 278.671875 C56.4574707 279.58960693 56.4574707 279.58960693 57.89257812 280.52587891 C61.23907044 282.73130191 64.54860111 284.98923813 67.84667969 287.26635742 C69.54447325 288.47908697 69.54447325 288.47908697 71.59765625 288.30859375 C71.59765625 248.37859375 71.59765625 208.44859375 71.59765625 167.30859375 C62.80492676 165.11041138 56.34172013 163.68902773 47.59765625 164.30859375 C46.27507812 164.39560547 46.27507812 164.39560547 44.92578125 164.484375 C38.92318985 165.22137957 34.01939472 167.33774499 28.72265625 170.12109375 C28.09190186 170.45238281 27.46114746 170.78367188 26.8112793 171.125 C21.2050693 174.23499248 17.24251113 178.45989558 13.09765625 183.30859375 C10.3842075 186.44583493 7.53102407 189.37522593 4.59765625 192.30859375 C3.97890625 193.25734375 3.36015625 194.20609375 2.72265625 195.18359375 C2.02140625 195.88484375 1.32015625 196.58609375 0.59765625 197.30859375 C-3.15234375 197.12109375 -3.15234375 197.12109375 -6.40234375 196.30859375 C-6.04918808 189.98464345 -3.92065479 186.38946294 -0.08984375 181.43359375 C0.70570923 180.38522339 0.70570923 180.38522339 1.51733398 179.31567383 C5.80665077 173.87209956 10.34685544 169.89778049 16.1015625 166.0078125 C18.54899642 164.46056242 18.54899642 164.46056242 20.14453125 162.734375 C28.04590468 154.98168332 43.59881059 153.20349026 54.16015625 153.05859375 C58.02734326 153.18946302 61.78721879 153.64590897 65.59765625 154.30859375 C58.71760596 141.39752065 52.55913479 133.71235879 38.59765625 128.30859375 C25.48283149 124.75666204 14.01810473 128.87378977 2.359375 134.7109375 C-0.47768337 136.24951912 -0.47768337 136.24951912 -2.98828125 138.453125 C-6.50213512 141.15390265 -9.0543643 141.01381548 -13.40234375 141.30859375 C-14.21484375 138.12109375 -14.21484375 138.12109375 -14.40234375 134.30859375 C-12.27734375 131.62109375 -12.27734375 131.62109375 -9.40234375 129.30859375 C-8.6753125 128.6640625 -7.94828125 128.01953125 -7.19921875 127.35546875 C-3.92553052 124.95964105 -0.56503244 123.58932872 3.22265625 122.24609375 C3.93196289 121.99005371 4.64126953 121.73401367 5.37207031 121.47021484 C7.4420683 120.73347564 9.51768211 120.01661487 11.59765625 119.30859375 C12.61085938 118.96183594 13.6240625 118.61507812 14.66796875 118.2578125 C28.15885097 114.10828459 40.07923047 116.58951598 52.59765625 122.30859375 C58.22200103 125.52250505 62.84023729 129.95291239 67.59765625 134.30859375 C69.59501759 130.31387107 67.30430923 125.34644574 66.0859375 121.21875 C62.65819261 111.21089441 53.42563668 104.83698576 44.3828125 100.1640625 C39.67413005 97.95454016 34.871523 96.39161686 29.859375 95.01953125 C27.62264932 94.31644995 25.66132162 93.4136228 23.59765625 92.30859375 C23.59765625 89.66859375 23.59765625 87.02859375 23.59765625 84.30859375 C30.97106465 83.74140849 36.74499105 85.70086771 43.59765625 88.30859375 C44.685625 88.71722656 45.77359375 89.12585938 46.89453125 89.546875 C52.12587873 91.60751553 55.66875076 93.2549611 59.59765625 97.30859375 C60.40847656 97.78554687 61.21929687 98.2625 62.0546875 98.75390625 C65.00660755 100.55861313 66.9805749 102.60903598 69.28515625 105.18359375 C70.05214844 106.02664062 70.81914062 106.8696875 71.609375 107.73828125 C74.90532433 111.99905661 75.86141346 116.03218712 76.59765625 121.30859375 C77.25765625 121.30859375 77.91765625 121.30859375 78.59765625 121.30859375 C78.7678125 120.65632813 78.93796875 120.0040625 79.11328125 119.33203125 C81.779642 109.71611324 86.63569943 102.28323163 95.03515625 96.68359375 C95.88078125 96.22984375 96.72640625 95.77609375 97.59765625 95.30859375 C98.79747949 94.51653993 99.99662567 93.72346009 101.1953125 92.9296875 C105.48048687 90.24396749 109.80166099 88.54701713 114.59765625 86.99609375 C115.35304688 86.73248047 116.1084375 86.46886719 116.88671875 86.19726562 C121.98026459 84.51254471 126.23772083 84.04668781 131.59765625 84.30859375 C131.59765625 86.94859375 131.59765625 89.58859375 131.59765625 92.30859375 C127.39236285 94.57690352 123.48457885 95.94657159 118.84765625 97.05859375 C111.95644212 98.96637198 107.070047 101.77514006 101.59765625 106.30859375 C100.46650391 107.23285156 100.46650391 107.23285156 99.3125 108.17578125 C93.15557129 113.38291152 90.28526933 117.31683927 88.59765625 125.30859375 C88.2229637 126.97532956 87.84796851 128.64199737 87.47265625 130.30859375 C87.17991517 131.6416916 86.88784965 132.97493899 86.59765625 134.30859375 C87.04496094 133.921875 87.49226563 133.53515625 87.953125 133.13671875 C89.21471024 132.04998008 90.48060095 130.96822618 91.75 129.890625 C93.13852266 128.70172082 94.50015778 127.48130068 95.84765625 126.24609375 C106.64553359 118.63849835 119.49217943 115.02260981 132.59765625 116.30859375 C144.14289285 118.68136206 161.26405373 122.48299038 168.59765625 132.30859375 C170.16287364 138.17815897 170.16287364 138.17815897 168.59765625 141.30859375 C163.1859136 141.20837629 160.25189701 140.33444071 155.91015625 137.05859375 C145.32404392 129.0820812 133.27351685 126.21776042 120.265625 127.546875 C111.73330881 129.06885573 103.34687535 133.30412509 98.01171875 140.23046875 C95.09292589 144.51996544 92.30330527 148.8818958 89.59765625 153.30859375 C92.60797369 154.2428302 93.46415893 154.35309286 96.59765625 153.30859375 C114.49691512 151.41294923 129.3521501 158.38797444 143.5703125 168.40234375 C148.85659836 172.75871245 152.79298553 177.99862798 156.72265625 183.55859375 C157.20919678 184.24453613 157.6957373 184.93047852 158.19702148 185.63720703 C160.64133627 189.26843107 162.28547292 191.75842191 161.59765625 196.30859375 C159.28765625 196.63859375 156.97765625 196.96859375 154.59765625 197.30859375 C154.15035156 196.71691406 153.70304687 196.12523437 153.2421875 195.515625 C146.60187868 186.83650068 139.16649354 178.77650077 129.59765625 173.30859375 C129.16453125 172.84195313 128.73140625 172.3753125 128.28515625 171.89453125 C122.9077158 166.84073305 114.84466178 164.50659937 107.59765625 164.30859375 C106.69402344 164.25832031 105.79039062 164.20804688 104.859375 164.15625 C99.36931618 163.97823253 94.70945506 164.46446886 89.37792969 165.82910156 C88.29590271 166.10457825 87.21387573 166.38005493 86.09906006 166.66387939 C85.2735968 166.87663513 84.44813354 167.08939087 83.59765625 167.30859375 C82.84575648 183.8933473 82.28387548 200.47248517 81.93966675 217.07022381 C81.77548075 224.78013335 81.55155378 232.47928698 81.18359375 240.18237305 C77.97331103 272.57221311 77.97331103 272.57221311 86.62930298 302.09155273 C93.42109166 309.49186495 102.27362284 313.38425038 111.56636047 316.71276855 C117.94363771 319.07401316 123.25246242 323.04698754 128.78515625 326.93359375 C130.88862595 328.3182164 132.99617326 329.69668254 135.109375 331.06640625 C142.10912467 335.64155995 149.10355355 340.22481484 156.09765625 344.80859375 C165.32377162 350.85493537 174.55233147 356.89749993 183.78515625 362.93359375 C184.83590332 363.6205835 185.88665039 364.30757324 186.96923828 365.01538086 C191.91772195 368.25040171 196.86674046 371.48460026 201.81690979 374.71704102 C204.14340239 376.23633705 206.46961841 377.75605625 208.79580688 379.27581787 C210.40420794 380.32638503 212.01300823 381.3763409 213.62182617 382.42626953 C215.12193237 383.40635986 215.12193237 383.40635986 216.65234375 384.40625 C218.13057617 385.35878662 218.13057617 385.35878662 219.63867188 386.33056641 C221.65857676 387.68083615 223.63619216 389.09601945 225.57226562 390.56396484 C232.9919236 396.05349269 238.19258608 397.39632665 247.34765625 396.80859375 C248.43820312 396.7725 249.52875 396.73640625 250.65234375 396.69921875 C253.30467843 396.60615438 255.94913255 396.4756525 258.59765625 396.30859375 C261.89792425 390.00740179 264.54906566 383.59495283 267.03515625 376.93359375 C267.62719849 375.34792603 267.62719849 375.34792603 268.23120117 373.73022461 C271.29613732 365.38787321 273.92390074 357.01801219 276.07568359 348.39697266 C276.5935458 346.32503938 277.13574373 344.26052989 277.6796875 342.1953125 C282.6803082 322.68432541 284.1551114 303.14589593 284.03515625 283.05859375 C284.03109268 281.45366562 284.03109268 281.45366562 284.02694702 279.8163147 C283.96497995 263.65044883 283.22068865 248.12168212 279.59765625 232.30859375 C279.31680176 231.00946045 279.31680176 231.00946045 279.03027344 229.68408203 C277.7527212 223.83139236 276.25425566 218.06476682 274.59765625 212.30859375 C274.35176758 211.44878906 274.10587891 210.58898437 273.85253906 209.703125 C265.79051781 181.98676587 253.47082971 157.21030325 238.1640625 132.828125 C236.8682422 130.74382552 235.65098546 128.64761794 234.47265625 126.49609375 C230.87909199 120.38703451 226.67266534 115.25004997 221.59765625 110.30859375 C219.44093899 107.75974608 217.60182808 105.31570131 215.91015625 102.43359375 C213.8140966 99.60108071 212.25024846 98.16645603 209.47265625 96.12109375 C204.76160264 92.63228393 201.06445646 88.58624186 197.25 84.15234375 C185.35007182 71.39365787 169.96558562 61.12357359 154.82910156 52.58105469 C152.22171276 51.09421547 149.64186673 49.56349831 147.05859375 48.03515625 C55.77687393 -5.31320547 -49.24338243 2.62506281 -136.87109375 57.73828125 Z M-116.40234375 181.30859375 C-116.94439453 181.8607959 -117.48644531 182.41299805 -118.04492188 182.98193359 C-121.24545367 186.23537346 -124.43875298 189.40758271 -127.96484375 192.30859375 C-131.15071261 194.97783523 -133.76705987 197.94255161 -136.453125 201.10546875 C-138.67302587 203.61453506 -141.01737877 205.95610182 -143.40234375 208.30859375 C-153.22497338 217.55247287 -153.22497338 217.55247287 -159.40234375 229.30859375 C-159.05151924 232.7063941 -157.85119808 234.20697856 -155.27734375 236.37109375 C-151.88100157 239.1310541 -148.4974851 240.72801288 -144.40234375 242.30859375 C-143.17658233 242.92894964 -141.95678237 243.56118123 -140.7421875 244.203125 C-136.42133396 246.38518339 -132.00952542 247.91267703 -127.40234375 249.37109375 C-94.96188994 259.80629092 -94.96188994 259.80629092 -87.29296875 273.25390625 C-85.07338223 278.42596162 -84.38358695 283.76655676 -85.40234375 289.30859375 C-89.42555487 298.99554869 -95.51078797 305.65582871 -103.40234375 312.30859375 C-103.94375 312.77652344 -104.48515625 313.24445313 -105.04296875 313.7265625 C-107.43208968 315.76988961 -109.83042961 317.58816002 -112.46484375 319.30859375 C-115.43381065 321.18672559 -115.43381065 321.18672559 -117.65234375 323.62109375 C-120.14208822 326.05425312 -122.53828391 327.85544052 -125.40234375 329.80859375 C-129.14831003 332.37045843 -132.27061549 335.00758288 -135.40234375 338.30859375 C-136.55924716 339.31987295 -137.72666193 340.3192084 -138.90234375 341.30859375 C-141.89199256 343.84175855 -144.66298175 346.50241805 -147.40234375 349.30859375 C-148.03269531 349.90542969 -148.66304687 350.50226563 -149.3125 351.1171875 C-151.4084044 353.12690517 -153.42030503 355.18669343 -155.40234375 357.30859375 C-155.93859375 357.87964844 -156.47484375 358.45070313 -157.02734375 359.0390625 C-161.55548163 364.86646721 -161.57818515 372.14140422 -160.81005859 379.20849609 C-159.69385419 384.95795136 -156.53744862 392.17348888 -152.40234375 396.30859375 C-149.51977772 396.40653915 -146.66116792 396.43851566 -143.77818298 396.42884827 C-142.86261283 396.42970269 -141.94704268 396.43055712 -141.00372797 396.43143743 C-137.91123869 396.43309504 -134.81880271 396.42756629 -131.72631836 396.42211914 C-129.51930238 396.4218373 -127.31228631 396.42199493 -125.10527039 396.42256165 C-119.0931165 396.42284976 -113.08098238 396.41695086 -107.06883311 396.40998769 C-100.79341274 396.40375638 -94.51799196 396.40315053 -88.24256897 396.40196228 C-77.70296898 396.39920259 -67.1633755 396.39294708 -56.6237793 396.3840332 C-45.76603227 396.37485977 -34.90828722 396.3677786 -24.05053711 396.36352539 C-23.38171282 396.36326267 -22.71288854 396.36299994 -22.02379685 396.36272926 C-18.66863553 396.36142426 -15.31347421 396.36016054 -11.95831287 396.35891736 C15.89368191 396.34845147 43.74566857 396.33085075 71.59765625 396.30859375 C71.99262273 384.37409435 72.2941207 372.44116264 72.47846317 360.50144482 C72.5669745 354.95604398 72.68684434 349.41513122 72.88012695 343.87231445 C73.06571817 338.51615731 73.16664783 333.16429531 73.21056938 327.80517006 C73.2418355 325.76770673 73.30290882 323.73046334 73.39506721 321.6948452 C74.17554844 310.88778017 74.17554844 310.88778017 69.94990921 301.39429092 C65.90579434 297.9804633 61.44430606 295.57503376 56.67538261 293.32762337 C53.68239545 291.85970025 51.02318893 290.05964534 48.26953125 288.18359375 C47.30080078 287.55001953 46.33207031 286.91644531 45.33398438 286.26367188 C44.34849609 285.61849609 43.36300781 284.97332031 42.34765625 284.30859375 C41.25904297 283.59638672 40.17042969 282.88417969 39.04882812 282.15039062 C29.50177673 275.90383275 19.95942089 269.65010069 10.41699219 263.39648438 C2.48045111 258.19556196 -5.45960721 253.00005191 -13.40234375 247.80859375 C-22.57294722 241.81458854 -31.73908611 235.8138188 -40.90234375 229.80859375 C-51.18654948 223.06888393 -61.47250404 216.33187554 -71.76733398 209.60839844 C-76.74956135 206.35410455 -81.7291812 203.09605503 -86.69895935 199.82278442 C-89.05334701 198.27244028 -91.40926516 196.72443043 -93.76528931 195.17657471 C-95.40840612 194.09571889 -97.04933599 193.01154074 -98.69018555 191.92724609 C-104.47053154 188.1314871 -110.29139513 184.5485041 -116.40234375 181.30859375 Z M-157.27734375 200.30859375 C-165.0395645 204.93964233 -172.86243098 209.4574082 -180.71484375 213.93359375 C-181.91945334 214.62089638 -183.12404299 215.30823396 -184.32861328 215.99560547 C-188.62373905 218.44596183 -192.92006742 220.89420651 -197.2164917 223.34228516 C-210.34795882 230.82484635 -223.47153557 238.31940722 -236.52734375 245.93359375 C-237.4802832 246.48934082 -238.43322266 247.04508789 -239.41503906 247.61767578 C-241.20794544 248.66592965 -242.99734987 249.72020271 -244.78271484 250.78125 C-246.58874171 251.83423267 -248.41646635 252.85056803 -250.26025391 253.8359375 C-255.4265972 256.47168134 -255.4265972 256.47168134 -258.59765625 261.04296875 C-258.57445312 262.038125 -258.55125 263.03328125 -258.52734375 264.05859375 C-258.52347656 265.29480469 -258.51960938 266.53101563 -258.515625 267.8046875 C-258.48202881 268.86405518 -258.48202881 268.86405518 -258.44775391 269.94482422 C-258.39703244 272.58506744 -258.4785377 275.20466498 -258.5703125 277.84375 C-258.91952523 290.50220682 -258.15672649 302.88055306 -256.65234375 315.43359375 C-256.57384186 316.10975739 -256.49533997 316.78592102 -256.41445923 317.48257446 C-254.55258892 333.20330669 -250.3230508 348.13919118 -245.73046875 363.23730469 C-245.02451993 365.56791627 -244.33450843 367.90289881 -243.64453125 370.23828125 C-239.91327544 384.27597662 -239.91327544 384.27597662 -232.40234375 396.30859375 C-230.34677714 396.40273062 -228.28794194 396.42602373 -226.23022461 396.42211914 C-225.58634293 396.42226517 -224.94246124 396.42241119 -224.27906799 396.42256165 C-222.14174072 396.4218626 -220.00449962 396.41407066 -217.8671875 396.40625 C-216.3888809 396.40438579 -214.91057368 396.4029619 -213.43226624 396.40196228 C-209.53435573 396.39813734 -205.63648226 396.38830727 -201.73858643 396.3772583 C-197.76388042 396.36704367 -193.78916846 396.36246455 -189.81445312 396.35742188 C-182.01039975 396.34668497 -174.20637693 396.32960884 -166.40234375 396.30859375 C-166.85680339 394.89067967 -167.31609319 393.47431329 -167.77734375 392.05859375 C-168.03257812 391.2696875 -168.2878125 390.48078125 -168.55078125 389.66796875 C-169.35419064 387.44200878 -170.33998965 385.41884696 -171.40234375 383.30859375 C-173.50874732 370.99868003 -171.30614085 360.5695314 -164.40234375 350.30859375 C-160.69280192 345.06865799 -156.78461824 341.6406376 -151.2421875 338.44921875 C-148.55618137 336.78400901 -146.57308934 334.59065963 -144.40234375 332.30859375 C-140.59005343 328.76296622 -136.571676 325.68767944 -132.27734375 322.74609375 C-128.58137008 320.21139277 -125.53252091 317.52572027 -122.40234375 314.30859375 C-121.45359375 313.71046875 -120.50484375 313.11234375 -119.52734375 312.49609375 C-116.13333816 310.12028984 -113.89935726 307.53980903 -111.26171875 304.3828125 C-109.39431717 302.29963973 -107.43691563 300.5825278 -105.27734375 298.80859375 C-100.89566743 295.03334826 -96.6943785 291.01805641 -96.21875 284.9765625 C-96.66471105 279.25497714 -98.23164716 275.24199197 -102.58203125 271.3671875 C-105.69831942 269.09255611 -108.7201592 267.67029451 -112.27734375 266.18359375 C-114.03691406 265.43722656 -114.03691406 265.43722656 -115.83203125 264.67578125 C-119.32055255 263.33991423 -122.81055168 262.32599357 -126.40234375 261.30859375 C-128.29079289 260.57132251 -130.16657722 259.80067871 -132.02734375 258.99609375 C-136.32778259 257.1630317 -140.64853222 255.44548438 -145.02734375 253.80859375 C-165.45080327 245.99674293 -165.45080327 245.99674293 -169.73046875 236.5078125 C-171.22277636 231.62310793 -170.4259711 227.51193347 -168.30078125 222.9375 C-162.80864449 213.34927242 -155.7170251 204.56105477 -148.40234375 196.30859375 C-151.78368418 196.30859375 -154.44746922 198.5959934 -157.27734375 200.30859375 Z M83.59765625 312.30859375 C83.59765625 340.02859375 83.59765625 367.74859375 83.59765625 396.30859375 C125.83765625 396.30859375 168.07765625 396.30859375 211.59765625 396.30859375 C208.06289383 392.77383133 204.64782491 390.24571237 200.47265625 387.62109375 C198.933071 386.63883971 197.39404472 385.6557092 195.85546875 384.671875 C195.0140332 384.1351416 194.17259766 383.5984082 193.30566406 383.04541016 C188.29771767 379.83349791 183.32466113 376.56816031 178.34765625 373.30859375 C177.2498584 372.59034424 176.15206055 371.87209473 175.02099609 371.13208008 C165.48669614 364.89411223 155.95676473 358.64946252 146.42797852 352.40307617 C140.5649343 348.56009253 134.69962334 344.72068281 128.828125 340.890625 C126.6471292 339.46745745 124.46613951 338.04428052 122.28515625 336.62109375 C121.23650391 335.93732666 120.18785156 335.25355957 119.10742188 334.54907227 C113.61898034 330.96331878 108.15113104 327.34977178 102.7109375 323.69140625 C102.15153976 323.31580063 101.59214203 322.94019501 101.01579285 322.5532074 C98.33411752 320.75215903 95.65595463 318.94628232 92.9831543 317.13208008 C92.04125244 316.49810303 91.09935059 315.86412598 90.12890625 315.2109375 C89.29939453 314.64882568 88.46988281 314.08671387 87.61523438 313.50756836 C85.7022606 312.13830522 85.7022606 312.13830522 83.59765625 312.30859375 Z M-226.40234375 408.30859375 C-222.72481655 415.66364814 -219.51708944 422.04615311 -215.015625 428.6875 C-213.40234375 431.30859375 -213.40234375 431.30859375 -212.4453125 433.9609375 C-211.38898537 436.80627823 -210.73541902 438.3351625 -208.40234375 440.30859375 C-203.99697471 441.0648048 -199.88578789 441.18542557 -195.43359375 441.11328125 C-191.59601112 441.12911177 -189.58774207 442.09403347 -186.40234375 444.30859375 C-184.27282955 445.18278732 -182.12552826 446.01456128 -179.96484375 446.80859375 C-176.62596236 448.03850047 -173.46572151 449.27574601 -170.3046875 450.9140625 C-162.04969321 454.88045949 -150.97451903 453.94311782 -142.40234375 451.30859375 C-137.57656999 449.39592322 -132.88335258 447.21248892 -128.2175293 444.94018555 C-116.19665442 439.09683989 -103.68873205 436.84786303 -90.6953125 441.3203125 C-88.32436172 442.3422044 -86.13729214 443.51755026 -83.90234375 444.80859375 C-72.62539592 451.26649986 -58.82001138 452.60854073 -46.19140625 449.359375 C-39.66789441 447.38917052 -33.61163224 444.52532814 -27.5859375 441.37890625 C-19.4874496 437.40934331 -9.41103195 436.74761267 -0.83984375 439.55859375 C0.64407096 440.12974078 2.12310551 440.71368879 3.59765625 441.30859375 C5.36759662 441.93611806 7.13848346 442.56097731 8.91015625 443.18359375 C12.90963106 444.63033114 16.77504493 446.26771731 20.66015625 447.99609375 C30.51725702 452.09370449 38.55995813 451.96817119 48.59765625 448.30859375 C54.05450153 445.88634354 59.32958961 443.11236191 64.59765625 440.30859375 C72.08377527 436.56553424 84.24485754 438.85682758 91.85742188 441.31030273 C94.74915253 442.32847889 97.6180831 443.39419527 100.47607422 444.50341797 C118.63126582 451.39361612 133.08507149 450.07595784 151.59765625 445.30859375 C169.49859274 440.73856649 183.19618863 440.06102665 200.41015625 447.18359375 C202.17134465 447.90104287 203.93306051 448.61719859 205.6953125 449.33203125 C206.95625732 449.8439502 206.95625732 449.8439502 208.24267578 450.36621094 C212.6521897 452.13074792 217.11302642 453.74514482 221.59765625 455.30859375 C222.02175781 454.75171875 222.44585937 454.19484375 222.8828125 453.62109375 C225.89696809 449.69937923 228.93836585 445.88989369 232.28515625 442.24609375 C235.03200707 439.15130849 236.86400743 436.17495756 238.578125 432.42578125 C239.73160134 430.03043958 241.0747849 427.81974998 242.47265625 425.55859375 C245.79982774 419.96894564 248.68855893 414.12678839 251.59765625 408.30859375 C93.85765625 408.30859375 -63.88234375 408.30859375 -226.40234375 408.30859375 Z M-31.33984375 454.74609375 C-45.52866316 462.01676208 -62.46639363 464.62160192 -78.02734375 459.68359375 C-79.84028342 458.94193661 -81.63238301 458.14766736 -83.40234375 457.30859375 C-84.54445313 456.79167969 -85.6865625 456.27476562 -86.86328125 455.7421875 C-89.1160484 454.71029085 -91.35955159 453.65773946 -93.58984375 452.578125 C-97.4983948 450.81384849 -100.75187707 450.14215336 -105.02734375 450.05859375 C-105.80335938 450.0328125 -106.579375 450.00703125 -107.37890625 449.98046875 C-115.57522598 450.86999182 -122.82023018 454.3115831 -130.15234375 457.87109375 C-138.30490442 461.683579 -145.33668596 463.88269036 -154.40234375 464.30859375 C-155.16675781 464.36402344 -155.93117187 464.41945313 -156.71875 464.4765625 C-166.50416992 464.87870304 -176.6925964 461.34841133 -184.90234375 456.18359375 C-189.29658559 453.82953562 -193.51216786 453.05638725 -198.40234375 452.30859375 C-195.5537276 456.89500204 -192.41309932 460.51647313 -188.52734375 464.24609375 C-185.26217627 467.43616042 -182.04856588 470.58482253 -179.15234375 474.12109375 C-176.53577019 477.2885249 -173.56808981 479.86486391 -170.4375 482.515625 C-168.48699674 484.23401463 -166.74125546 486.03795978 -164.96484375 487.93359375 C-160.84801285 492.11642595 -156.29107257 495.66807815 -151.65234375 499.24609375 C-150.53388062 500.11645264 -150.53388062 500.11645264 -149.39282227 501.00439453 C-148.32245728 501.8181958 -148.32245728 501.8181958 -147.23046875 502.6484375 C-146.59012695 503.13691162 -145.94978516 503.62538574 -145.29003906 504.12866211 C-138.26731082 508.5183214 -126.39398114 507.00033665 -118.65234375 505.37109375 C-110.50471249 503.08931177 -102.93694196 499.00052998 -95.41015625 495.20068359 C-86.63395551 491.30133565 -73.15911157 491.86283853 -64.27734375 494.99609375 C-60.18664899 496.77273243 -56.36519272 498.98762653 -52.5 501.203125 C-42.43799606 506.50581981 -30.0686954 504.99041815 -19.45703125 502.29296875 C-15.70558487 501.08406275 -12.38604075 499.42704385 -8.9140625 497.58203125 C3.36482368 491.35665505 15.58502532 490.61821312 28.80078125 494.32421875 C32.39912183 495.59067381 35.67380941 497.25908184 39.04296875 499.03515625 C48.82840814 503.9129135 58.42195233 506.2347453 69.1484375 503.35546875 C75.35229492 501.2497556 81.01421844 498.67928902 86.66015625 495.37890625 C96.50257692 489.94176257 106.33403743 492.22221852 116.50683594 495.09667969 C120.38493352 496.24142895 124.17828009 497.49586163 127.94140625 498.9765625 C142.97139434 504.88076744 157.06222074 504.81888148 172.59765625 500.30859375 C176.5636736 498.52986486 180.10388871 496.4246718 183.66015625 493.93359375 C184.47613281 493.36898437 185.29210937 492.804375 186.1328125 492.22265625 C188.86075021 490.10428941 191.17118356 487.76658778 193.59765625 485.30859375 C200.26432292 478.64192708 206.93098958 471.97526042 213.59765625 465.30859375 C209.46505474 462.55352608 205.02439544 460.77098268 200.47265625 458.80859375 C199.10367188 458.20337891 199.10367188 458.20337891 197.70703125 457.5859375 C186.31065574 452.66698909 176.71413731 451.2931899 164.47265625 453.55859375 C163.73837402 453.69064209 163.0040918 453.82269043 162.24755859 453.95874023 C156.31737444 455.07185131 150.58622264 456.66607566 144.8046875 458.390625 C127.40389315 463.37136394 111.34723661 461.28873909 94.83984375 454.2578125 C86.49454519 450.72487252 76.57182375 447.61533225 67.69726562 451.04248047 C64.97409102 452.3192231 62.33504442 453.72505301 59.69433594 455.16333008 C47.67628462 461.65267392 35.21143262 464.37192896 21.91015625 460.55859375 C18.40095564 459.3956848 15.13866779 458.22186691 11.97265625 456.30859375 C-2.15463541 447.93686536 -16.76758843 447.16758537 -31.33984375 454.74609375 Z M-12.71484375 511.55859375 C-22.93986315 516.87029214 -38.7214461 517.16357254 -49.77734375 514.18359375 C-54.40294901 512.53945855 -58.56038269 510.07061998 -62.828125 507.671875 C-70.89366629 503.40044266 -81.15505145 502.71820074 -89.96484375 504.9609375 C-92.5118381 505.96338629 -94.94137567 507.1093932 -97.40234375 508.30859375 C-99.39812835 509.21763263 -101.40055158 510.11000395 -103.40673828 510.99584961 C-104.78143235 511.60374737 -106.15249129 512.21996006 -107.51904297 512.84594727 C-112.07940964 514.89247023 -116.52372958 516.2111772 -121.40234375 517.30859375 C-117.91766058 520.17417077 -114.05869541 522.09360223 -110.02734375 524.05859375 C-108.72777552 524.69903805 -107.42830052 525.33967157 -106.12890625 525.98046875 C-105.39784668 526.33520264 -104.66678711 526.68993652 -103.91357422 527.05541992 C-102.07841966 527.97121307 -100.26195706 528.92473536 -98.45751953 529.8996582 C-88.36463477 535.2384544 -77.93346821 538.68779608 -67.02734375 541.99609375 C-66.10225006 542.28029175 -65.17715637 542.56448975 -64.22402954 542.8572998 C-50.07570563 547.18729933 -36.16172148 550.79415325 -21.40234375 552.30859375 C-20.10296875 552.45296875 -18.80359375 552.59734375 -17.46484375 552.74609375 C-11.58298274 553.29071051 -5.74360819 553.390088 0.16015625 553.24609375 C2.74701607 553.31242349 5.06720473 553.78726459 7.59765625 554.30859375 C9.07482951 554.39593965 10.55541225 554.43886913 12.03515625 554.43359375 C12.75574219 554.43617188 13.47632813 554.43875 14.21875 554.44140625 C16.68848543 554.35246037 16.68848543 554.35246037 19.4453125 553.79296875 C22.91140798 553.26038407 26.09357521 553.32223524 29.59765625 553.43359375 C36.32778641 553.52608221 42.86734478 552.95456631 49.53515625 552.05859375 C50.37884766 551.94918457 51.22253906 551.83977539 52.09179688 551.72705078 C66.69515282 549.63654027 81.00005212 545.57216646 95.09765625 541.30859375 C95.87125488 541.07515259 96.64485352 540.84171143 97.44189453 540.60119629 C111.89742123 536.19346255 125.29661985 530.54025101 138.59765625 523.30859375 C139.32484863 522.91559082 140.05204102 522.52258789 140.80126953 522.11767578 C144.13781732 520.29408973 147.46788432 518.47212736 150.59765625 516.30859375 C150.59765625 515.97859375 150.59765625 515.64859375 150.59765625 515.30859375 C149.59347656 515.22222656 148.58929688 515.13585937 147.5546875 515.046875 C139.48201916 514.25510578 132.62639018 512.83555867 125.08984375 509.6875 C120.89801268 508.03233628 116.67247935 506.6925899 112.34765625 505.43359375 C111.61498535 505.20631592 110.88231445 504.97903809 110.12744141 504.74487305 C103.33767059 502.81792234 97.63557511 503.01100733 91.11328125 505.796875 C90.035625 506.39886719 88.95796875 507.00085938 87.84765625 507.62109375 C75.72434005 514.00981089 62.23366322 518.32422946 48.50634766 514.76660156 C42.48794924 512.79830225 36.87587962 510.01049569 31.28515625 507.05859375 C26.90834141 504.78983444 22.46038923 503.93508082 17.59765625 503.30859375 C16.8396875 503.2003125 16.08171875 503.09203125 15.30078125 502.98046875 C5.6260682 502.26622819 -4.36435497 507.01317305 -12.71484375 511.55859375 Z " fill="#FFFFFF" transform="translate(288.40234375,18.69140625)"/>
</svg>
