<?xml version="1.0" encoding="UTF-8"?><svg id="b" xmlns="http://www.w3.org/2000/svg" width="221.853" height="378.15" viewBox="0 0 221.853 378.15"><defs><style>.e{fill:#fff;}.e,.f,.g,.h{stroke-width:0px;}.f{fill:#3d8dcc;}.g{fill:#645d5c;}.h{fill:#211715;}</style></defs><g id="c"><g id="d"><path class="e" d="m173.163,73.273c1.39-1.336,3.263-1.838,4.866-1.781,3.488.123,4.972,2.009,5.611,3.117,1.906,3.306,1.826,9.399.546,13.168-.906,2.67-2.391,6.753-5.97,9.682-1.475,1.207-3.645,2.002-5.721,1.651l-.485-.082c-.657,2.172-1.468,4.298-1.964,5.332-1.451,3.94-9.46,17.737-19.601,23.159.189,2.088.277,3.558.539,5.839.353,3.073.736,5.361,4.728,7.308.155.057,4.486,2.076,8.378,3.874-1.203,1.037-2.215,1.912-2.215,1.912-9.652,7.436-20.364,10.32-31.121,10.32-10.98,0-21.469-2.884-31.121-10.32,0,0-.991-.696-2.284-1.604,4.047-1.867,8.881-4.122,9.046-4.182,3.991-1.947,4.374-4.235,4.728-7.308.231-2.008.326-3.387.474-5.111-4.981-2.192-9.416-5.873-13.627-10.913-5.162-6.178-8.098-12.833-9.717-18.34-2.23.6-4.651-.225-6.253-1.535-3.579-2.928-5.064-7.012-5.97-9.682-1.28-3.77-1.36-9.862.546-13.168.639-1.108,2.123-2.994,5.611-3.117,1.603-.056,3.476.445,4.866,1.781,0,0-10.1-42.915,45.056-42.915,53.677,0,41.056,42.915,41.056,42.915Z"/><path class="g" d="m179.669,38.615c-2.133-6.518-5.627-12.28-10.705-16.346l-5.724-6.002c-6.493-8.561-17.048-13.202-32.126-13.863-19.616-.664-34.096,8.115-40.505,16.289l1.315,1.359c-13.304,11.547-18.147,32.204-11.695,51.749.586-.17,1.256-.283,2.023-.31,1.603-.056,3.476.445,4.866,1.781l6.882-5.778c5.164-5.755,14.279-14.429,20.676-17.784.75-.393,1.713.139,2.017,1.392.294,1.211.292,2.131.197,3.001-.145,1.321,1.138,2.283,2.227,1.678,4.566-2.536,12.703-7.642,18.472-10.073l8.555,1.051c2.754,1.197,4.849,2.348,7.88,4.956,5.193,4.468,10.172,10.599,12.377,16.147l6.829,5.411c1.39-1.336,3.263-1.838,4.866-1.781.879.031,1.63.174,2.273.388,2.642-10.454,2.715-22.828-.7-33.264Z"/><path class="h" d="m82.468,70.934c-4.314-13.421-3.605-28.689,4-40.824,1.964-3.134,4.372-5.922,7.153-8.36,2.328-2.04-1.079-5.423-3.394-3.394-11.311,9.912-16.221,25.512-15.066,40.251.362,4.623,1.259,9.189,2.678,13.603.942,2.929,5.578,1.677,4.629-1.276h0Z"/><path class="h" d="m167.267,23.967c10.448,8.467,13.251,23.113,12.523,35.898-.214,3.762-.778,7.478-1.675,11.137-.736,3,3.892,4.279,4.629,1.276,3.407-13.893,2.87-30.172-4.511-42.761-1.983-3.383-4.521-6.471-7.571-8.944-1.006-.815-2.41-.984-3.394,0-.843.843-1.012,2.574,0,3.394h0Z"/><path class="h" d="m144.933,48.832c4.315,1.89,7.827,4.691,11.081,8.075,3.227,3.356,6.31,7.243,8.073,11.593.487,1.2,1.598,2.048,2.952,1.676,1.138-.313,2.166-1.744,1.676-2.952-2.048-5.052-5.317-9.504-9.052-13.445-3.56-3.756-7.547-7.008-12.307-9.093-1.186-.52-2.576-.348-3.284.861-.595,1.018-.333,2.761.861,3.284h0Z"/><path class="h" d="m95.697,69.191c5.115-5.681,10.771-11.256,17.123-15.548.665-.45,1.342-.883,2.036-1.288.226-.132.709-.379.689-.421-.001-.003-1.183-.278-1.178-.284-.089.102.101.454.126.618.142.934-.101,1.867.076,2.795.204,1.075.822,2.08,1.761,2.673,1.958,1.237,3.756.268,5.524-.748,1.635-.939,3.258-1.898,4.888-2.845,3.924-2.28,7.878-4.582,12.059-6.364,1.193-.508,1.457-2.265.861-3.284-.722-1.234-2.086-1.371-3.284-.861-3.706,1.58-7.227,3.578-10.714,5.586-1.707.983-3.405,1.984-5.108,2.973-.719.418-1.44.835-2.165,1.243-.07.04-.48.237-.485.271.044-.295,1.056.055,1.126.075.057.016.174.374.258.32.102-.067.052-.732.054-.839.038-2.202-.55-4.862-2.797-5.788-1.954-.805-3.726.453-5.322,1.476-3.38,2.168-6.502,4.768-9.487,7.446-3.304,2.965-6.465,6.099-9.436,9.399-2.062,2.29,1.322,5.696,3.394,3.394h0Z"/><path class="h" d="m92.306,20.391c5.777-7.301,14.587-11.857,23.523-14.057,5.967-1.469,12.122-1.848,18.24-1.344,5.191.428,10.468,1.446,15.268,3.523,4.581,1.982,8.78,4.985,11.83,8.966.787,1.027,2.066,1.573,3.284.861,1.011-.591,1.654-2.248.861-3.284-3.099-4.044-6.943-7.36-11.484-9.703-5.161-2.663-10.794-4.085-16.528-4.822-12.444-1.599-25.415.355-36.41,6.568-4.502,2.544-8.757,5.825-11.978,9.897-.804,1.015-.991,2.403,0,3.394.834.834,2.585,1.022,3.394,0h0Z"/><path class="h" d="m170.512,95.219c-.646,3.133-1.86,6.217-2.935,8.9.004-.009.202-.43-.011.014-.094.196-.181.395-.275.592-.204.427-.419.849-.64,1.267-.524.993-1.084,1.968-1.667,2.927-3.114,5.116-6.907,9.915-11.548,13.731-2.508,2.062-5.358,3.681-8.496,4.409-3.008.697-1.735,5.326,1.276,4.629,6.59-1.527,12.073-6.334,16.374-11.341,3.538-4.12,6.84-8.751,9.089-13.719.156-.346.305-.695.45-1.046.04-.096.273-.659.135-.337-.144.339.014-.018.038-.072.157-.346.301-.7.447-1.051.158-.381.309-.765.455-1.151.795-2.106,1.483-4.268,1.937-6.474.261-1.268-.369-2.593-1.676-2.952-1.188-.326-2.689.401-2.952,1.676h0Z"/><path class="h" d="m85.084,96.342c1.446,6.373,4.036,12.555,7.665,17.995,3.891,5.833,8.986,11.289,15.152,14.743,3.206,1.796,6.713,3.015,10.347,3.555,1.281.19,2.58-.32,2.952-1.676.311-1.131-.386-2.761-1.676-2.952-7.917-1.175-14.172-5.748-19.298-11.706-5.222-6.069-8.746-13.445-10.513-21.233-.683-3.011-5.312-1.737-4.629,1.276h0Z"/><path class="h" d="m124.499,111.257c.316-.167.634-.326.958-.478.531-.249-.476.165.135-.051.234-.083.467-.167.705-.24.644-.197,1.299-.328,1.961-.441-.36.061-.094.011.117-.011.193-.021.386-.038.579-.053.467-.035.936-.052,1.405-.054.437-.003.874.007,1.31.033.201.012.402.026.603.045.049.005.791.107.253.021.655.104,1.304.237,1.938.436.251.078.543.251.8.287-.083-.012-.477-.227-.196-.077.111.059.227.109.338.167.163.086.324.177.481.276.198.125.765.56.023-.017.988.77,2.444,1.035,3.394,0,.79-.861,1.058-2.57,0-3.394-2.478-1.93-5.573-2.555-8.672-2.575-3.016-.02-5.887.576-8.553,1.984-1.112.587-1.542,2.227-.861,3.284.729,1.131,2.094,1.489,3.284.861h0Z"/><path class="h" d="m129.316,89.788c.368,1.405.722,2.832.933,4.269l-.086-.638c.025.197.036.391.016.589l.086-.638c-.014.092-.034.177-.065.265l.242-.573c-.027.062-.056.114-.094.17l.375-.486c-.044.053-.086.094-.14.137l.486-.375c-.108.069-.222.125-.338.179l.573-.242c-.186.078-.371.135-.57.166l.638-.086c-.18.021-.355.02-.535,0l.638.086c-.202-.028-.4-.077-.601-.104-.319-.1-.638-.114-.957-.043-.319.014-.617.109-.892.285-.498.291-.973.862-1.103,1.434-.14.614-.11,1.304.242,1.849.312.484.835,1.022,1.434,1.103.478.064.942.185,1.428.207.755.033,1.454-.2,2.128-.51.837-.385,1.492-1.149,1.714-2.049.189-.764.109-1.418-.02-2.184-.232-1.375-.55-2.739-.904-4.088-.152-.579-.588-1.133-1.103-1.434s-1.273-.429-1.849-.242c-1.25.404-2.018,1.651-1.676,2.952h0Z"/><path class="h" d="m106.945,77.641c-.713,2.317-.248,7.647,4.141,8.101,5.802-.035,6.11-6.479,4.157-9.509-1.599-2.481-6.301-3.512-8.298,1.408Z"/><path class="h" d="m153.403,77.641c.713,2.317.249,7.647-4.141,8.1-5.802-.035-6.111-6.479-4.158-9.509,1.599-2.481,6.301-3.512,8.299,1.408Z"/><path class="h" d="m174.86,74.97c1.118-1.002,2.667-1.275,4.113-.967.64.136,1.197.356,1.718.751-.212-.161.292.283.288.279.107.108.21.22.308.336-.153-.209-.153-.207-.001.004,1.533,2.262,1.569,5.417,1.351,8.049-.222,2.678-1.168,5.365-2.422,7.731-1.561,2.946-4.042,6.043-7.719,5.557-1.287-.17-2.4,1.225-2.4,2.4,0,1.438,1.109,2.229,2.4,2.4,7.626,1.009,12.294-7.383,14.147-13.541.993-3.3,1.098-6.92.531-10.304-.467-2.787-1.692-5.414-4.058-7.057-3.532-2.452-8.541-1.82-11.648.967-2.304,2.067,1.099,5.452,3.394,3.394h0Z"/><path class="h" d="m88.747,71.576c-2.943-2.64-7.212-3.224-10.776-1.474-2.525,1.24-4.013,3.723-4.683,6.376-1.573,6.231-.018,13.336,3.49,18.663,2.409,3.658,6.257,6.989,10.939,6.369,1.285-.17,2.4-.981,2.4-2.4,0-1.165-1.106-2.571-2.4-2.4-3.679.487-6.156-2.612-7.719-5.557-1.255-2.364-2.201-5.055-2.422-7.731-.218-2.633-.182-5.788,1.351-8.049.152-.212.152-.213-.001-.004.098-.116.201-.228.308-.336.044-.042.519-.455.288-.279.523-.396,1.077-.615,1.718-.751,1.447-.307,2.995-.036,4.113.967,2.294,2.057,5.699-1.326,3.394-3.394h0Z"/><path class="h" d="m170.834,144.989c-.516-.181.585.265.15.068-.237-.107-.477-.209-.715-.316-.722-.323-1.441-.652-2.159-.981-1.875-.859-3.747-1.726-5.618-2.593-1.548-.717-3.094-1.437-4.643-2.152-.305-.141-.609-.283-.917-.418-1.218-.535-.499-.259-.31-.155-.186-.103-.374-.198-.559-.305-.329-.191-.663-.393-.963-.628.16.126-.305-.295-.373-.364-.109-.11-.212-.225-.315-.34-.178-.199.136.233-.089-.128-.075-.12-.15-.238-.219-.363-.029-.052-.278-.564-.15-.275.121.274-.045-.128-.067-.195-.053-.166-.107-.33-.152-.498-.074-.274-.134-.552-.187-.831-.027-.144-.048-.288-.074-.432-.129-.717.049.485-.037-.26-.214-1.842-.369-3.688-.526-5.535-.11-1.292-1.024-2.4-2.4-2.4-1.213,0-2.511,1.101-2.4,2.4.151,1.769.29,3.54.498,5.303.161,1.361.317,2.732.834,4.011.6,1.486,1.516,2.714,2.781,3.702.71.554,1.457,1.049,2.275,1.433.262.123,1.159.634.027.011.016.009.034.014.051.022.064.033.132.059.197.089,3.415,1.594,6.837,3.173,10.262,4.746,1.485.682,2.977,1.47,4.522,2.011,1.223.428,2.626-.487,2.952-1.676.364-1.324-.448-2.522-1.676-2.952h0Z"/><path class="e" d="m171.129,340.05c-29.512.05-74.768.131-96.532.164-6.11,0-11.06-4.95-11.03-11.06.03-8.899.09-21.207.169-34.851-1.988-.362-3.913-1.01-5.696-1.973-6.865-3.705-11.741-10.235-14.444-17.423-2.705-7.19-3.895-14.798-4.485-22.608-.397-5.246-.523-10.583-.657-15.946.039-10.281.483-19.542,1.597-29.205,1.013-8.786,2.159-17.766,4.943-26.195,2.263-6.851,5.73-13.518,11.229-18.327,11.274-9.86,24.767-14.723,42.896-16.579,9.793,7.736,20.46,10.724,31.636,10.724,11.721,0,23.388-3.424,33.689-12.43,14.291,3.024,28.981,8.685,39.563,19.003,10.116,9.863,12.779,23.589,14.073,37.098,1.165,12.172,1.386,24.514,1.374,36.734,0,11.152-.534,22.981-4.963,33.379-3.692,8.668-9.593,14.004-16.653,17.356.049,15.95.099,30.602.119,41.073.01,6.09-4.9,11.03-10.99,11.04-4.391.007-9.783.016-15.838.026Z"/><path class="f" d="m71.199,375.836c-.743-21.518-1.215-35.582-1.215-35.582,0,0-.012-.425-.036-1.061,1.413.655,2.989,1.02,4.651,1.018,26.232-.036,86.578-.149,112.365-.187,1.646-.002,3.206-.365,4.606-1.013-.03.746-.046,1.243-.046,1.243,0,0-.471,14.047-1.213,35.548"/><path class="h" d="m67.556,339.194c.215,7.605.507,15.208.766,22.811.157,4.61.315,9.22.474,13.829.106,3.08,4.906,3.095,4.8,0-.392-11.413-.782-22.827-1.165-34.24-.027-.8-.052-1.6-.075-2.4-.087-3.082-4.888-3.095-4.8,0h0Z"/><path class="h" d="m192.706,375.804c.399-11.44.794-22.88,1.179-34.321.028-.823.055-1.646.081-2.469.1-3.09-4.7-3.086-4.8,0-.247,7.658-.517,15.316-.781,22.973-.159,4.606-.319,9.211-.479,13.817-.108,3.089,4.692,3.085,4.8,0h0Z"/><path class="h" d="m195.436,287.914c.03,9.5.062,19,.089,28.501.011,3.859.021,7.717.029,11.576.006,3.093-.816,5.922-3.377,7.882-2.401,1.837-5.135,1.752-7.996,1.757-2.619.004-5.239.008-7.858.013-6.25.01-12.5.021-18.75.032-14.421.025-28.841.05-43.262.075-12.413.021-24.826.043-37.239.062-2.851.004-5.523.008-7.876-1.87-1.165-.93-2.106-2.192-2.646-3.582-.62-1.596-.585-3.188-.579-4.87.031-8.537.074-17.074.121-25.612.014-2.528.028-5.055.043-7.583.018-3.089-4.782-3.093-4.8,0-.056,9.509-.107,19.019-.146,28.528-.015,3.707-.505,7.764.913,11.276,1.505,3.727,4.515,6.569,8.327,7.855,2.833.956,5.976.658,8.924.654,2.852-.005,5.704-.009,8.556-.014,6.738-.011,13.475-.023,20.213-.034,15.032-.026,30.064-.052,45.095-.078,6.723-.012,13.446-.023,20.169-.034,2.841-.005,5.682-.009,8.523-.014,2.872-.005,5.942.276,8.729-.522,3.63-1.04,6.804-3.686,8.399-7.119,1.672-3.598,1.314-7.515,1.304-11.376-.023-9.216-.053-18.431-.083-27.647-.008-2.618-.017-5.236-.025-7.853-.01-3.088-4.81-3.094-4.8,0h0Z"/><path class="h" d="m221.852,237.177c.007-9.4-.118-18.805-.704-28.189-.509-8.162-1.197-16.435-3.145-24.399-1.82-7.442-4.948-14.558-9.946-20.422-5.092-5.974-11.931-10.579-18.923-14.037-8.05-3.98-16.694-6.627-25.479-8.4-1.269-.256-2.592.365-2.952,1.676-.325,1.184.4,2.695,1.676,2.952,14.545,2.936,29.509,8.291,40.222,18.972,10.78,10.749,12.556,26.779,13.584,41.212.726,10.194.874,20.418.867,30.635-.002,3.089,4.798,3.094,4.8,0h0Z"/><path class="h" d="m40.853,236.354c.067-15.093.945-30.44,3.969-45.259,1.375-6.74,3.361-13.475,6.96-19.388,3.386-5.564,8.402-9.717,13.901-13.098,6.324-3.887,13.28-6.418,20.494-8.079,3.009-.693,1.735-5.322-1.276-4.629-6.763,1.557-13.373,3.888-19.444,7.276-6.009,3.354-11.749,7.666-15.877,13.219-4.309,5.796-6.864,12.803-8.568,19.763-1.885,7.699-2.819,15.639-3.638,23.511-.922,8.865-1.28,17.772-1.32,26.683-.014,3.089,4.786,3.093,4.8,0h0Z"/><path class="h" d="m36.053,236.354c.309,12.406.521,25.165,4.473,37.058,3.266,9.827,10.21,19.811,20.673,22.765,10.534,2.975,21.435-1.759,28.173-9.951,3.445-4.189,5.985-8.96,8.295-13.843,2.76-5.836,5.051-11.885,7.017-18.031,4.478-14,7.355-28.435,10.795-42.708.724-3.002-3.904-4.282-4.629-1.276-2.898,12.021-5.395,24.145-8.785,36.043-3.114,10.927-6.919,21.962-12.833,31.728-2.501,4.131-5.663,8.07-9.788,10.676-3.918,2.476-8.563,3.68-13.19,3.392-9.461-.589-16.748-8.934-20.067-17.222-4.887-12.204-5.012-25.687-5.334-38.632-.077-3.083-4.877-3.095-4.8,0h0Z"/><path class="h" d="m61.601,224.344c6.75-10.525,12.801-21.479,19.035-32.312,1.544-2.682-2.603-5.102-4.145-2.423-6.235,10.833-12.285,21.787-19.035,32.312-1.673,2.608,2.48,5.018,4.145,2.423h0Z"/><path class="h" d="m217.052,237.177c-.007,11.327-.368,23.44-5.394,33.84-3.585,7.419-9.711,12.87-17.376,15.831-7.794,3.011-16.211,3.903-24.488,4.441-11.714.762-23.461,1.154-35.198,1.285-14.348.161-28.853.238-43.155-1.046-1.293-.116-2.4,1.186-2.4,2.4,0,1.395,1.104,2.284,2.4,2.4,13.161,1.181,26.49,1.158,39.694,1.076,12.344-.077,24.688-.48,37.01-1.213,8.765-.522,17.754-1.291,26.091-4.228,8.413-2.964,15.685-8.244,20.235-16.023,6.757-11.554,7.372-25.725,7.38-38.764.002-3.089-4.798-3.094-4.8,0h0Z"/><path class="h" d="m114.91,256.883c13.712-1.123,27.418-2.3,41.091-3.837,4.748-.534,9.493-1.103,14.234-1.699,1.286-.162,2.4-.987,2.4-2.4,0-1.171-1.105-2.563-2.4-2.4-14.609,1.836-29.25,3.346-43.92,4.591-3.801.323-7.603.634-11.405.945-1.292.106-2.4,1.027-2.4,2.4,0,1.216,1.101,2.506,2.4,2.4h0Z"/><path class="h" d="m178.129,212.158c-.014,4.366-.594,8.78-.999,13.121-.253,2.706-.518,5.411-.812,8.114-.113,1.042-.23,2.084-.36,3.125-.024.194-.051.388-.074.582-.058.479.094-.588-.012.076-.044.276-.082.552-.133.827-.236,1.273.351,2.588,1.676,2.952,1.168.321,2.715-.395,2.952-1.676.835-4.502,1.109-9.16,1.536-13.713.416-4.435,1.012-8.947,1.026-13.408.01-3.089-4.79-3.093-4.8,0h0Z"/><path class="e" d="m40.229,113.871c-1.374.859-2.661,1.195-3.824.998-.687-.116-1.315-.356-1.866-.715-1.965-1.277-4.004-4.357-5.741-8.671-2.235-5.55-.997-9.356.436-13.765.335-1.031.682-2.098.988-3.209.654-2.286.305-4.562-.987-6.404-1.211-1.727-3.156-2.842-5.202-2.983-1.808-.214-3.731.237-5.386,1.271-1.656,1.035-2.916,2.586-3.457,4.256-1.056,2.759-.945,5.616-.696,8.042.063.616.049,1.821-.756,2.971-.437.624-1.073,1.214-1.791,1.662-.791.494-1.653.807-2.493.905-2.253.262-3.989-.789-5.306-3.213-1.387-2.553-1.987-5.667-1.69-8.768.583-6.081,4.743-12.375,10.599-16.034,3.327-2.079,8.687-4.225,15.327-2.641,4.681,1.116,8.981,4.297,11.503,8.51,2.301,3.844,2.968,8.236,1.879,12.367-.688,2.608-1.332,4.511-1.9,6.189-.336.992-.626,1.847-.876,2.705-.608,2.081-.338,4.521.704,6.367l.441.776c.716,1.255,1.335,2.339,1.872,3.611.298.705.491,1.909.25,3.01-.242,1.101-.981,2.109-2.029,2.763Z"/><path class="e" d="m49.86,130.081c-1.678,1.049-3.7,1.235-5.41.498-2.681-1.305-3.689-4.15-3.287-6.281.261-1.38,1.151-2.605,2.573-3.544l.104-.067c.665-.416,3.02-1.691,5.397-.655,2.524,1.1,3.952,4.276,3.118,6.936-.391,1.247-1.277,2.352-2.495,3.114Z"/><path class="h" d="m39.017,111.798c-1.122.662-2.1,1.018-3.267.283-.484-.305-1.286-1.188-1.792-1.892-1.678-2.336-3.041-5.182-3.69-7.985-.604-2.61-.159-5.159.594-7.683.864-2.895,2.296-5.885,2.046-8.971-.532-6.592-7.357-10.483-13.425-8.213-2.976,1.113-5.352,3.366-6.49,6.342s-1.067,5.91-.899,9.013c.111,2.053-2.329,3.816-4.165,3.016-2.068-.902-2.861-4.409-3.073-6.375-.58-5.363,2.113-10.551,5.854-14.227,3.619-3.557,8.466-5.803,13.589-5.673,5.502.139,10.68,3.138,13.516,7.863,1.658,2.761,2.438,6.068,1.911,9.272-.507,3.082-1.752,6.066-2.706,9.028-1.063,3.3-.945,6.56.769,9.623.943,1.685,3.593,4.977,1.228,6.582-2.542,1.724-.143,5.885,2.423,4.145,3.049-2.068,4.11-5.66,2.64-9.057-1.064-2.459-3.105-4.706-3.005-7.515.054-1.497.733-2.989,1.207-4.393.466-1.379.917-2.762,1.321-4.161,1.013-3.506,1.412-6.952.568-10.549-1.519-6.48-6.527-11.725-12.609-14.19s-13.057-1.667-18.71,1.47c-5.489,3.046-9.89,8.236-11.875,14.2-1.063,3.194-1.265,6.643-.577,9.938.626,3.001,2.111,6.37,4.839,8.014,3.019,1.82,6.942.875,9.406-1.446,1.336-1.258,2.158-2.939,2.26-4.776.082-1.483-.227-2.976-.163-4.47.124-2.928,1.173-5.792,4.017-7.044,2.451-1.079,5.555-.421,6.842,2.061.821,1.583.522,3.148.034,4.786-.513,1.721-1.128,3.412-1.607,5.143-.99,3.574-1.165,7.247-.034,10.813,1.104,3.478,2.896,7.167,5.417,9.851,2.77,2.95,6.565,3.37,10.029,1.324,2.658-1.57.246-5.721-2.423-4.145Z"/><path class="h" d="m48.649,128.009c-.163.098-.333.183-.496.28-.088.053-.41.241.061-.011-.256.136-.598.211-.879.276-.046.011-.29.089-.357.072l.279-.036c-.12.013-.239.022-.36.028-.263.012-.647.067-.895-.029l.284.035c-.117-.021-.234-.045-.35-.074-.116-.028-.231-.061-.344-.097-.1-.032-.469-.274-.21-.071.283.221-.108-.08-.161-.112-.093-.055-.185-.113-.275-.173l-.132-.091c-.168-.124-.172-.125-.009-.003l.119.09c-.079-.066-.157-.134-.233-.204-.112-.104-.22-.212-.324-.324-.085-.092-.164-.189-.246-.284-.216-.248.321.499.066.07-.124-.209-.259-.407-.37-.624-.031-.06-.084-.222-.125-.257.253.219.158.444.055.115-.076-.243-.158-.482-.214-.731-.025-.109-.036-.225-.065-.333-.084-.312.046.648.028.174-.008-.218-.024-.433-.016-.651.003-.085.012-.169.015-.254.018-.456-.133.492-.03.205.073-.201.212-.593.22-.811-.014.385-.16.344-.02.07.06-.118.125-.234.195-.348-.002.004.151-.267.178-.27l-.178.223c.07-.087.142-.172.216-.256.173-.194.359-.375.555-.546l.067-.058c.203-.166.184-.153-.058.039.033-.073.28-.196.359-.247.244-.157.501-.286.759-.418.222-.114.34-.026-.156.059.081-.014.186-.073.267-.102.295-.106.598-.194.906-.258.059-.012.257-.073.332-.06l-.294.044c.118-.011.236-.018.355-.021.121-.003.242.004.364.003.583-.005-.34-.1.016-.013.259.064.637.08.86.239-.448-.319-.111-.038.022.035.131.072.254.157.382.233.357.208-.12-.056-.125-.111.005.051.293.252.338.294.164.155.308.326.46.491.225.245-.335-.495-.057-.068.055.084.112.166.165.252.08.128.155.259.225.393.085.162.2.592.013-.025.081.265.191.519.26.789.031.122.053.246.083.369.125.51-.034-.564-.002-.04.017.277.028.55.012.828-.013.22-.134.448.03-.114-.041.142-.055.3-.09.444-.031.125-.067.248-.108.37-.192.578.201-.302-.04.108-.092.157-.254.652-.427.711l.173-.217c-.071.088-.144.174-.22.259-.115.128-.235.25-.361.367-.03.028-.199.214-.26.23.258-.192.28-.21.067-.054-.097.068-.197.134-.298.197-1.054.679-1.584,2.162-.861,3.284.68,1.054,2.155,1.588,3.284.861,1.606-1.034,2.822-2.442,3.49-4.239.552-1.482.549-3.196.139-4.713-.897-3.321-3.839-5.935-7.353-5.966-2.997-.026-6.068,1.704-7.632,4.25s-1.286,6,.411,8.411c1.125,1.599,2.761,2.909,4.708,3.321,2.149.455,4.356.072,6.236-1.065,1.074-.649,1.571-2.183.861-3.284-.696-1.079-2.134-1.556-3.284-.861Z"/><path class="h" d="m98.42,148.524c14.194,10.84,33.929,13.62,50.728,7.59,5.019-1.801,9.701-4.356,13.938-7.59,1.029-.785,1.572-2.067.861-3.284-.592-1.013-2.247-1.652-3.284-.861-6.772,5.17-14.703,8.572-23.185,9.6-8.081.979-16.425.246-24.088-2.556-4.529-1.656-8.723-4.123-12.547-7.044-1.031-.787-2.686-.16-3.284.861-.722,1.235-.172,2.494.861,3.284h0Z"/><path class="e" d="m95.595,140.741c.964-4.184,2.202-8.06,3.753-11.282,3.623-7.524,9.018-9.953,17.048-11.049,3.871-.528,7.899-.178,11.511,1.309,4.072,1.677,7.299,5.282,5.054,10.036,3.48.766,4.942,3.002,4.805,5.82-.074,1.527-1.121,4.317-3.733,4.85l-.444.091c2.246,1.098,2.615,3.08,2.65,4.413.063,2.363-2.047,4.883-4.001,4.663-1.413-.159-2.567-.286-3.635-.382.709.396,1.111.62,1.111.62,1.343.749,2.166,2.345,2.261,3.521.101,1.237-.184,2.545-.893,3.543-1.117,1.572-3.014,1.662-4.646,1.846-2.133.241-4.065.803-4.779,2.8-.278.776-1.343,5.833-1.753,7.323-.824,2.998-2.143,5.932-4.34,8.187-2.196,2.254-5.365,3.756-8.588,3.509,0,0-1.322-.101-2.306-.176-5.072-2.105-11.942-5.339-13.593-7.883-1.845-2.842,1.674-8.464,1.967-13.211.38-6.152,1.193-12.656,2.55-18.548Z"/><path class="h" d="m135.564,129.709c2.144-6.225-2.803-10.953-8.285-12.774-5.73-1.903-12.367-1.334-18.031.598-4.777,1.63-8.612,4.724-11.132,9.113-2.91,5.069-4.426,10.998-5.517,16.693-.65,3.393-1.127,6.822-1.484,10.258-.304,2.92-.294,5.877-1.075,8.72-.72,2.618-1.877,5.271-1.892,8.027-.015,2.663,1.442,4.437,3.463,5.965,2.12,1.602,4.524,2.822,6.915,3.96,1.293.615,2.602,1.197,3.919,1.759.747.318,1.416.667,2.225.753.744.08,1.5.128,2.248.172,6.391.369,11.589-4.209,14.003-9.801,1.059-2.453,1.633-4.99,2.224-7.582.229-1.006.385-2.093.729-3.069.251-.711.734-.949,1.492-1.15,1.44-.381,2.965-.293,4.388-.753,1.78-.575,3.164-1.775,3.933-3.489,1.528-3.409.43-7.365-2.761-9.354-2.629-1.639-5.041,2.512-2.423,4.145,1.361.849,1.646,3.326-.025,4.07-.904.402-2.074.358-3.033.497-1.183.172-2.377.47-3.414,1.089-3.325,1.983-3.444,6.677-4.284,10.059-1.114,4.484-3.578,9.205-8.431,10.376-.936.226-1.857.2-2.809.131-.477-.035-1.059-.012-1.493-.152-.508-.164-1.047-.473-1.548-.693-2.369-1.045-4.722-2.158-6.955-3.473-.736-.433-1.609-.968-2.221-1.443-.345-.269-.665-.569-.971-.881-.051-.052-.335-.344-.054-.025-.031-.035-.318-.567-.201-.278-.575-1.423.548-4.071,1.058-5.733,1.603-5.231,1.531-10.67,2.309-16.056s1.888-10.792,3.797-15.901c1.401-3.75,3.436-7.494,6.83-9.659,4.012-2.559,9.552-3.515,14.293-3.196,4.005.269,11.454,2.377,9.586,7.802-1.008,2.927,3.627,4.184,4.629,1.276h0Z"/><path class="h" d="m119.04,130.414c2.724.185,5.452.385,8.158.752-.239-.032.493.072.476.07.278.041.555.083.832.127.655.104,1.31.217,1.962.339.582.108,1.165.217,1.743.344.278.061.554.127.826.21.334.102.448.148.514.179.218.102.42.227.628.346.098.06.193.124.286.191-.19-.148-.181-.134.028.044.146.156.303.297.439.464-.315-.388.063.139.096.198.089.156.232.567.103.178.078.235.139.468.199.708.023.105.043.21.058.316-.041-.279-.048-.273-.021.016-.008.219-.02.465-.001.68.039.456.141-.489.007.008-.048.178-.077.362-.127.54-.02.071-.259.727-.15.472.107-.249-.219.404-.261.473-.351.584-.661.858-1.44,1.042-1.262.298-2.011,1.736-1.676,2.952.355,1.291,1.687,1.975,2.952,1.676,5.754-1.358,7.345-9.613,2.967-13.332-2.356-2.002-5.6-2.34-8.55-2.779-3.334-.497-6.688-.785-10.049-1.013-1.295-.088-2.4,1.166-2.4,2.4,0,1.372,1.102,2.312,2.4,2.4h0Z"/><path class="h" d="m118.791,140.884c2.582.134,5.162.335,7.731.631,1.272.147,2.154.267,3.484.503.594.105,1.196.207,1.777.37.245.068.495.142.729.244-.32-.139.312.206.427.269.101.055.338.285-.003-.017.07.062.146.122.21.191.139.149.402.59.149.122.079.145.181.284.265.427.055.093.09.197.144.29-.071-.121-.136-.43-.07-.134.038.171.102.337.141.509.016.071.026.145.044.215.097.359-.027-.224-.023-.221.142.135.048.974.027,1.137.049-.388-.121.346-.157.451-.091.261-.021.056.003.006-.07.152-.163.291-.24.44-.167.323.032.044-.21.307-.109.119-.222.229-.336.342-.112.111-.27.186-.06.054-.125.079-.252.159-.385.221.083-.039.235-.187.076-.05-.138.119-.012.017.132.008-.137.008-.268.001-.406-.007-.71-.043-1.421-.159-2.128-.234-2.858-.3-5.703-.409-8.576-.365-1.297.02-2.4,1.089-2.4,2.4,0,1.286,1.098,2.42,2.4,2.4,2.969-.045,5.906.081,8.858.395,1.673.178,3.126.37,4.662-.507,1.494-.853,2.548-2.32,3.152-3.9.818-2.137.472-4.884-.87-6.746-1.874-2.6-4.946-3.113-7.919-3.542-3.524-.508-7.072-.824-10.627-1.008-1.296-.067-2.4,1.151-2.4,2.4,0,1.356,1.1,2.332,2.4,2.4h0Z"/></g></g></svg>