<?xml version="1.0" encoding="UTF-8"?><svg id="b" xmlns="http://www.w3.org/2000/svg" width="305.174" height="264.795" viewBox="0 0 305.174 264.795"><defs><style>.d{fill:#170A1C;}.e{fill:#d9d9d9;}.f{fill:#fff;}.g{fill:#211715;}.h{fill:#cfcfcf;}</style></defs><g id="c"><path class="f" d="M96.908,24.019H18.152c-8.666,0-15.691,7.028-15.691,15.694v106.29c0,8.666,7.025,15.681,15.691,15.681h78.756V24.019Z"/><path class="g" d="M96.908,159.284H19.65c-1.929,0-3.712-.052-5.566-.631-3.065-.958-5.714-3.097-7.353-5.85-1.717-2.884-1.87-5.872-1.87-9.136V43.682c0-2.11-.198-4.327.216-6.41,1.247-6.265,6.692-10.796,13.082-10.853,2.449-.022,4.9,0,7.349,0h71.4v-4.8H19.137c-2.474,0-4.938.239-7.271,1.133-3.624,1.389-6.685,3.813-8.843,7.044C.717,33.249.06,37.127.06,41.201v97.795c0,3.212-.235,6.532.221,9.717,1.082,7.554,7.257,13.912,14.821,15.101,2.414.38,4.857.27,7.293.27h74.512v-4.8Z"/><path class="g" d="M26.932,49.483h49.334c3.089,0,3.094-4.8,0-4.8H26.932c-3.089,0-3.094,4.8,0,4.8h0Z"/><path class="g" d="M96.908,60.402H26.933c-3.089,0-3.094,4.8,0,4.8h69.975v-4.8Z"/><path class="g" d="M24.532,80.69c0,17.618,0,35.237,0,52.855,0,1.342,0,2.684,0,4.026,0,1.297,1.1,2.4,2.4,2.4,18.96,0,37.921,0,56.881,0,1.297,0,2.4-1.1,2.4-2.4,0-13.428,0-26.857,0-40.285,0-5.532,0-11.064,0-16.595,0-1.297-1.1-2.4-2.4-2.4H26.932c-3.089,0-3.094,4.8,0,4.8h56.881l-2.4-2.4c0,16.687,0,33.375,0,50.062,0,2.273,0,4.546,0,6.819l2.4-2.4c-18.96,0-37.921,0-56.881,0l2.4,2.4c0-12.836,0-25.673,0-38.509,0-6.124,0-12.248,0-18.372,0-3.089-4.8-3.094-4.8,0Z"/><path class="h" d="M43.276,128.362c-2.211,0-4.074-1.794-4.015-4.004.081-2.999,1.053-5.98,2.963-8.62.83-1.146,1.84-2.223,2.999-3.202,5.783-4.885,14.514-4.885,20.297,0,1.159.979,2.169,2.056,2.999,3.202,1.911,2.64,2.882,5.622,2.963,8.62.06,2.21-1.804,4.004-4.015,4.004h-24.192Z"/><path class="h" d="M65.691,96.638c-1.091-1.825-2.79-3.542-4.742-4.429-1.709-.776-2.77-1.064-4.659-1.25-1.236-.122-2.488.041-3.704.249-2.201.376-4.595,1.727-6.042,3.434-1.227,1.448-1.871,2.533-2.53,4.306-.421,1.134-.565,2.394-.582,3.596.001,2.196.58,4.574,1.847,6.398.608.875,1.258,1.75,2.094,2.419,1.445,1.157,2.446,1.768,4.22,2.402,2.114.756,4.824.672,6.985.165,2.037-.477,4.246-1.747,5.607-3.349.695-.818,1.383-1.656,1.829-2.637.787-1.734,1.097-2.88,1.266-4.808.192-2.186-.47-4.624-1.589-6.496Z"/><path class="f" d="M302.804,239.936c-5.438-27.764-11.56-53.014-18.637-79.986-1.845-7.029-3.812-13.869-8.972-18.987-9.806-9.725-25.619-13.672-45.054-18.665,0,0,0,53.884,0,83.66-5.187-2.4-9.329-4.106-15.372-6.608-7.281-3.016-17.011-.067-19.649,6.756-1.568,4.057-.79,8.737,1.191,12.609s5.056,7.065,8.222,10.048c12.212,11.508,26.49,20.869,37.373,33.64l60.899-22.467Z"/><path class="g" d="M229.503,124.612c9.188,2.36,18.484,4.59,27.348,8.017,6.832,2.641,14.329,6.382,18.756,12.455,2.683,3.68,4.169,7.998,5.392,12.339,1.428,5.07,2.693,10.19,3.999,15.293,2.678,10.463,5.261,20.95,7.7,31.472,2.801,12.084,5.405,24.213,7.792,36.386.25,1.273,1.77,2.001,2.952,1.676,1.329-.365,1.927-1.676,1.676-2.952-4.298-21.915-9.338-43.672-14.843-65.314-1.363-5.359-2.731-10.72-4.162-16.061-1.24-4.628-2.671-9.317-5.162-13.446-4.298-7.126-11.764-11.773-19.238-15.003-9.918-4.287-20.501-6.809-30.934-9.489-2.994-.769-4.271,3.859-1.276,4.629h0Z"/><rect class="f" x="121.369" y="2.403" width="136.989" height="242.233" rx="18.571" ry="18.571"/><path class="g" d="M139.94,247.035c8.481,0,16.963,0,25.444,0,15.8,0,31.601,0,47.401,0,8.983,0,17.968.065,26.95,0,10.978-.079,20.163-8.622,20.972-19.585.119-1.61.051-3.249.051-4.862v-25.669c0-14.078,0-28.155,0-42.233V60.877c0-10.504,0-21.007,0-31.511v-7.326c0-5.954-1.855-11.609-6.142-15.895C250.692,2.22,245.322.046,239.785.003c-.679-.005-1.359,0-2.038,0-4.52,0-9.04,0-13.56,0-15.32,0-30.639,0-45.959,0-11.947,0-23.894,0-35.841,0-.802,0-1.604-.006-2.407,0-5.144.037-10.041,1.882-13.921,5.258-4.839,4.21-7.09,10.285-7.09,16.587s0,13.403,0,20.105v169.902c0,4.736-.038,9.474,0,14.211.093,11.492,9.482,20.865,20.971,20.971,3.09.028,3.092-4.772,0-4.8-8.946-.082-16.116-7.35-16.171-16.274-.01-1.588,0-3.176,0-4.764v-69.877c0-16.099,0-32.197,0-48.296s0-29.305,0-43.957,0-20.221,0-30.332v-6.925c0-5.603,2.231-10.943,6.999-14.164,2.829-1.911,6.033-2.836,9.436-2.844,1.031-.002,2.063,0,3.094,0,4.981,0,9.962,0,14.943,0,15.307,0,30.614,0,45.92,0,11.295,0,22.59,0,33.884,0,.812,0,1.627-.017,2.438.013,4.996.184,9.827,2.836,12.631,6.986,1.875,2.776,2.824,5.944,2.844,9.288.003.53,0,1.059,0,1.589v155.536c0,11.523,0,23.046,0,34.57v9.875c0,1.589.066,3.204-.051,4.791-.628,8.508-8.084,14.767-16.414,14.785-3.153.007-6.306,0-9.459,0-14.305,0-28.61,0-42.915,0-13.532,0-27.063,0-40.595,0h-6.584c-3.089,0-3.094,4.8,0,4.8Z"/><rect class="g" x="168.996" y="14.971" width="41.737" height="13.449" rx="6.724" ry="6.724"/><path class="e" d="M189.862,75.397c-9.612.037-19.18,2.862-26.901,8.673-7.328,5.515-12.733,13.211-15.466,21.969-5.37,17.201-.229,37.926,14.208,49.177s36.255,12.378,51.988,3.204c15.896-9.268,22.684-28.443,19.989-46.13-1.357-8.907-5.552-17.362-11.84-23.816-6.498-6.669-15.197-11.068-24.391-12.47-2.516-.384-5.041-.596-7.586-.606-3.089-.012-3.093,4.788,0,4.8,8.737.033,17.295,2.604,24.315,7.877,6.344,4.765,11.057,11.627,13.419,19.182,4.797,15.345.589,33.838-12.051,44.104-12.394,10.066-32.145,11.01-46.01,3.324-14.419-7.993-21.328-25.172-18.836-41.242,1.249-8.055,4.859-15.653,10.549-21.517,5.929-6.111,13.724-9.944,22.111-11.263,2.148-.338,4.331-.456,6.503-.464,3.088-.012,3.094-4.812,0-4.8Z"/><path class="d" d="M169.655,124.836c3.996,4,7.911,8.081,11.904,12.084,2.123,2.128,5.684,2.093,7.817,0,8.239-8.085,16.417-16.235,24.484-24.492,2.086-2.135,2.128-5.689,0-7.817-2.098-2.098-5.724-2.142-7.817,0-8.067,8.257-16.245,16.407-24.484,24.492h7.817c-3.993-4.003-7.908-8.083-11.904-12.084-2.11-2.112-5.707-2.11-7.817,0-2.119,2.119-2.116,5.698,0,7.817h0Z"/><path class="f" d="M268.906,223.548c-15.369-6.408-17.318-7.223-33.484-15.081-8.058-3.917-12.716-5.83-20.655-9.118-7.281-3.016-17.011-.067-19.649,6.756-1.568,4.057-.79,8.737,1.191,12.609s5.056,7.065,8.222,10.048c12.212,11.508,26.49,20.869,37.373,33.64l27.001-38.855Z"/><path class="g" d="M269.544,221.233c-7.943-3.312-15.857-6.654-23.627-10.358-5.306-2.529-10.559-5.17-15.908-7.607-2.417-1.101-4.853-2.157-7.3-3.191-2.67-1.128-5.336-2.377-8.071-3.336-8.841-3.097-20.938,1.292-22.52,11.346-1.974,12.542,9.614,21.73,18.08,28.921,10.272,8.724,21.199,16.803,30.009,27.091.844.985,2.527.867,3.394,0,.976-.976.846-2.407,0-3.394-7.468-8.72-16.475-15.875-25.296-23.154-4.382-3.616-8.742-7.274-12.841-11.213-3.869-3.717-7.68-7.982-8.615-13.455-.739-4.33.853-8.289,4.662-10.484,3.395-1.957,7.657-2.353,11.382-1.185,2.466.774,4.852,1.941,7.234,2.942,2.316.973,4.621,1.972,6.91,3.008,5.113,2.314,10.132,4.827,15.193,7.252,8.56,4.1,17.278,7.794,26.036,11.445,1.197.499,2.64-.539,2.952-1.676.38-1.382-.475-2.451-1.676-2.952h0Z"/></g></svg>